<svg id="Controles_bootstrap" data-name="Controles bootstrap" xmlns="http://www.w3.org/2000/svg" viewBox="0 0 134.6 68.7"><defs><style>.cls-1{fill:#fff;}</style></defs><title>logo</title><path class="cls-1" d="M1732.9,3828.8c-2.9,4.1-6,8.4-8.4,12.9h-8.3v-1h7.4c3-4.8,6.2-9.7,9.5-14.3,2.6,4.5,5.1,9.1,7.9,13.5,3.1-4.2,5.6-8.9,9.1-12.8,3.2,4.3,5.8,9,8.6,13.6h3v-23.2h8.7v23.2h3.9q0-5.8,0-11.6l9.7-5.9,10.6,6c0,3.9,0,7.7,0,11.6h55.1v1h-56.1c0-4.1,0-8.2-.1-12.3-3.2-1.6-6.2-3.6-9.5-5.1-2.9,1.6-5.7,3.4-8.4,5.2-0.7,4-.1,8.1-0.3,12.2h-5.8v-23.2h-6.8v23.2h-5c-2.3-4.3-5.2-8.2-7.6-12.3-2.9,3.6-5.6,7.3-8.1,11.1l-0.9,1.4" transform="translate(-1715.1 -3817.5)"/><path class="cls-1" d="M1723.8,3859.6h4.5v1.1a10.6,10.6,0,0,1-2.5,5.8,6.8,6.8,0,0,1-5.1,1.9,6.4,6.4,0,0,1-3.1-.7,4.3,4.3,0,0,1-1.9-2.1,7.1,7.1,0,0,1-.4-2.8,45.7,45.7,0,0,1,.7-5.7,47.8,47.8,0,0,1,1.2-5.7,9.2,9.2,0,0,1,1.3-2.8,6.8,6.8,0,0,1,2.5-2.1,7.5,7.5,0,0,1,3.3-.7q3.2,0,4.5,2t0.7,5.9v0.2h-4.4a7.7,7.7,0,0,0,0-3.1,1.2,1.2,0,0,0-1.3-.9,1.8,1.8,0,0,0-1.7,1.1,24.6,24.6,0,0,0-1.3,5.7v0.4a25.7,25.7,0,0,0-.6,6.1,1.2,1.2,0,0,0,1.3,1.1,1.8,1.8,0,0,0,1.6-.8,8.4,8.4,0,0,0,.9-3Z" transform="translate(-1715.1 -3817.5)"/><path class="cls-1" d="M1728.5,3867.9l7.7-21.5h5.4l0.8,21.5h-4.6v-4.1h-3.6l-1.2,4.1h-4.6Zm6.9-8h2.6l0.2-9.4Z" transform="translate(-1715.1 -3817.5)"/><path class="cls-1" d="M1758.7,3846.4h6.3l-3.4,21.5h-4.3l3-16.6-7.2,16.3-2.5-16.3-2.3,16.6h-4.3l3.4-21.5h6.4l0.3,12.2" transform="translate(-1715.1 -3817.5)"/><path class="cls-1" d="M1764.1,3867.9l0.6-4,8.1-13.4h-5.5l0.7-4.1h10.5l-0.6,3.7-8.1,13.4h6.3l-0.7,4.4h-11.3Z" transform="translate(-1715.1 -3817.5)"/><path class="cls-1" d="M1785.3,3860.6h4.2v0.6a5.6,5.6,0,0,0,0,2.5,1.1,1.1,0,0,0,1.2.7,1.6,1.6,0,0,0,1.2-.6,2.8,2.8,0,0,0,.7-1.5q0.2-1.6-1.6-3l-0.4-.4-0.2-.2a12.3,12.3,0,0,1-2.9-3.1,5.6,5.6,0,0,1-.5-1.8,8.4,8.4,0,0,1,.1-2.1,7.4,7.4,0,0,1,2.2-4.4,6.1,6.1,0,0,1,4.3-1.6,4.8,4.8,0,0,1,4.1,1.6,5.8,5.8,0,0,1,.8,4.6v0.7H1794v-0.3a4.3,4.3,0,0,0-.1-2.1,1,1,0,0,0-1-.7,1.5,1.5,0,0,0-1.1.5,2.5,2.5,0,0,0-.6,1.3q-0.2,1.4,1.8,2.9l0.5,0.4,0.4,0.3a8.6,8.6,0,0,1,2.6,2.8,5.6,5.6,0,0,1,.4,1.7,8.8,8.8,0,0,1-.1,2,8.6,8.6,0,0,1-2.3,5,6.4,6.4,0,0,1-4.6,1.7q-3,0-4.2-1.7t-0.7-5v-0.4Z" transform="translate(-1715.1 -3817.5)"/><path class="cls-1" d="M1798,3867.9l0.8-4.9h4.5l-0.8,4.9H1798Z" transform="translate(-1715.1 -3817.5)"/><path class="cls-1" d="M1803.9,3867.9l7.7-21.5h5.4l0.8,21.5h-4.6v-4.1h-3.6l-1.2,4.1h-4.6Zm6.9-8h2.6l0.2-9.4Z" transform="translate(-1715.1 -3817.5)"/><path class="cls-1" d="M1819.7,3867.9l0.8-4.9h4.5l-0.8,4.9h-4.5Z" transform="translate(-1715.1 -3817.5)"/><path class="cls-1" d="M1836.3,3859.6h4.5v1.1a10.6,10.6,0,0,1-2.5,5.8,6.8,6.8,0,0,1-5.1,1.9,6.4,6.4,0,0,1-3.1-.7,4.3,4.3,0,0,1-1.9-2.1,7.1,7.1,0,0,1-.4-2.8,45.7,45.7,0,0,1,.7-5.7,47.8,47.8,0,0,1,1.2-5.7,9.2,9.2,0,0,1,1.3-2.8,6.8,6.8,0,0,1,2.5-2.1,7.5,7.5,0,0,1,3.3-.7q3.2,0,4.5,2t0.7,5.9v0.2h-4.4a7.7,7.7,0,0,0,0-3.1,1.2,1.2,0,0,0-1.3-.9,1.8,1.8,0,0,0-1.7,1.1,24.6,24.6,0,0,0-1.3,5.7v0.4a25.7,25.7,0,0,0-.6,6.1,1.2,1.2,0,0,0,1.3,1.1,1.8,1.8,0,0,0,1.6-.8,8.4,8.4,0,0,0,.9-3Z" transform="translate(-1715.1 -3817.5)"/><path class="cls-1" d="M1842.1,3867.9l0.8-4.9h4.5l-0.8,4.9h-4.5Z" transform="translate(-1715.1 -3817.5)"/><path class="cls-1" d="M1716.9,3884h-1.6l1.8-8.5h1.6Z" transform="translate(-1715.1 -3817.5)"/><path class="cls-1" d="M1719.8,3884h-1.5l1.3-6.3h1.4v0.5l0.8-.6,0.8-.2a1.3,1.3,0,0,1,.9.3,1.2,1.2,0,0,1,.3.9v0.8l-1,4.6h-1.5l0.9-4.4v-0.5a0.5,0.5,0,0,0-.1-0.4h-0.4a0.7,0.7,0,0,0-.6.3,2.2,2.2,0,0,0-.4.9Z" transform="translate(-1715.1 -3817.5)"/><path class="cls-1" d="M1728.1,3877.7h1.5l-1.4,6.4a3.1,3.1,0,0,1-.8,1.7,2.6,2.6,0,0,1-1.7.4,2.1,2.1,0,0,1-1.3-.4,1.4,1.4,0,0,1-.5-1h1.4a0.4,0.4,0,0,0,.1.3h0.4a0.7,0.7,0,0,0,.6-0.3,4,4,0,0,0,.4-1.3l-0.5.5-0.7.2a1.3,1.3,0,0,1-1.1-.5,2.3,2.3,0,0,1-.4-1.4,5.4,5.4,0,0,1,0-.6V3881l0.3-1.2,0.3-.9a2.5,2.5,0,0,1,.7-1,1.6,1.6,0,0,1,1-.3l0.7,0.2a1.3,1.3,0,0,1,.4.7Zm-1,1-0.5.2-0.3.5a9.7,9.7,0,0,0-.4,1.5,7.4,7.4,0,0,0-.2,1.4,1,1,0,0,0,.1.6l0.4,0.2,0.5-.2,0.3-.5,0.2-.6,0.2-.8,0.2-.9a4.6,4.6,0,0,0,.1-0.6,0.9,0.9,0,0,0-.1-0.6Z" transform="translate(-1715.1 -3817.5)"/><path class="cls-1" d="M1732.8,3881.9h1.4a2.7,2.7,0,0,1-.7,1.7,2.2,2.2,0,0,1-1.6.6,2.2,2.2,0,0,1-1.5-.5,1.8,1.8,0,0,1-.5-1.4q0-.2,0-0.5v-0.6q0.1-.8.2-1.4a5.8,5.8,0,0,1,.3-1,2.4,2.4,0,0,1,.9-1.1,2.6,2.6,0,0,1,1.4-.3,2.1,2.1,0,0,1,1.5.4,1.7,1.7,0,0,1,.5,1.3,5.8,5.8,0,0,1-.1.8l-0.2,1h-3v0.8a4.1,4.1,0,0,0,0,.5,0.9,0.9,0,0,0,.2.6l0.5,0.2a0.7,0.7,0,0,0,.6-0.3A2,2,0,0,0,1732.8,3881.9Zm0.4-1.9v-0.8a0.7,0.7,0,0,0-.2-0.5l-0.5-.2a0.8,0.8,0,0,0-.7.3,2.9,2.9,0,0,0-.4,1.1h1.6Z" transform="translate(-1715.1 -3817.5)"/><path class="cls-1" d="M1736.5,3884H1735l1.3-6.3h1.4v0.5l0.8-.6,0.8-.2a1.3,1.3,0,0,1,.9.3,1.2,1.2,0,0,1,.3.9v0.8l-1,4.6h-1.5l0.9-4.4v-0.5a0.5,0.5,0,0,0-.1-0.4h-0.4a0.7,0.7,0,0,0-.6.3,2.2,2.2,0,0,0-.4.9Z" transform="translate(-1715.1 -3817.5)"/><path class="cls-1" d="M1740.6,3884l1.3-6.3h1.5l-1.3,6.3h-1.5Zm1.5-7.2,0.3-1.3h1.5l-0.3,1.3h-1.5Z" transform="translate(-1715.1 -3817.5)"/><path class="cls-1" d="M1746.7,3881.9h1.4a2.7,2.7,0,0,1-.7,1.7,2.2,2.2,0,0,1-1.6.6,2.2,2.2,0,0,1-1.5-.5,1.8,1.8,0,0,1-.5-1.4q0-.2,0-0.5v-0.6q0.1-.8.2-1.4a5.8,5.8,0,0,1,.3-1,2.4,2.4,0,0,1,.9-1.1,2.6,2.6,0,0,1,1.4-.3,2.1,2.1,0,0,1,1.5.4,1.7,1.7,0,0,1,.5,1.3,5.8,5.8,0,0,1-.1.8l-0.2,1h-3v0.8a4.1,4.1,0,0,0,0,.5,0.9,0.9,0,0,0,.2.6l0.5,0.2a0.7,0.7,0,0,0,.6-0.3A2,2,0,0,0,1746.7,3881.9Zm0.4-1.9v-0.8a0.7,0.7,0,0,0-.2-0.5l-0.5-.2a0.8,0.8,0,0,0-.7.3,2.9,2.9,0,0,0-.4,1.1h1.6Z" transform="translate(-1715.1 -3817.5)"/><path class="cls-1" d="M1751.6,3877.7l-0.2,1h0a2.2,2.2,0,0,1,.6-0.9,1.5,1.5,0,0,1,.9-0.3h0.2l-0.3,1.6h-0.4a1.3,1.3,0,0,0-.9.3,1.6,1.6,0,0,0-.4.9l-0.8,3.7h-1.5l1.4-6.3h1.4Z" transform="translate(-1715.1 -3817.5)"/><path class="cls-1" d="M1752.9,3884l1.3-6.3h1.5l-1.3,6.3h-1.5Zm2.1-7.1h-0.6l1-1.3h1.3Z" transform="translate(-1715.1 -3817.5)"/><path class="cls-1" d="M1758.7,3883.5l-0.6.5-0.7.2a1.6,1.6,0,0,1-1.2-.4,1.8,1.8,0,0,1-.4-1.3,2,2,0,0,1,.5-1.4,2.7,2.7,0,0,1,1.4-.8h0.2q1.6-.4,1.6-1.2a0.6,0.6,0,0,0-.2-0.4l-0.5-.2-0.6.2a1.4,1.4,0,0,0-.3.7h-1.4a2.3,2.3,0,0,1,.7-1.5,2.5,2.5,0,0,1,1.6-.5,2.5,2.5,0,0,1,1.5.4,1.3,1.3,0,0,1,.5,1.1v0.6l-0.7,3.5v0.9h-1.4v-0.5Zm0.4-2.6-0.5.2q-1.4.6-1.4,1.3a0.8,0.8,0,0,0,.2.5l0.5,0.2a0.8,0.8,0,0,0,.7-0.4A6.1,6.1,0,0,0,1759.1,3880.9Z" transform="translate(-1715.1 -3817.5)"/><path class="cls-1" d="M1770.3,3884h-1.5l-0.2-.4-0.8.5-0.9.2a2.1,2.1,0,0,1-1.6-.7,2.6,2.6,0,0,1-.6-1.8,2.5,2.5,0,0,1,.5-1.5,4.1,4.1,0,0,1,1.5-1.2l-0.4-.9a2.9,2.9,0,0,1-.1-0.8,1.7,1.7,0,0,1,.5-1.3,1.8,1.8,0,0,1,1.3-.5,2,2,0,0,1,1.4.5,1.6,1.6,0,0,1,.5,1.2,2,2,0,0,1-.4,1.2,3.6,3.6,0,0,1-1.2,1l0.8,1.8,0.3-.6a5.8,5.8,0,0,0,.2-0.9h1.2a4.7,4.7,0,0,1-.3,1.4,6.2,6.2,0,0,1-.8,1.4Zm-2.2-1.5-1.1-2.3-0.7.7a1.4,1.4,0,0,0-.2.8,1.3,1.3,0,0,0,.3.9,1,1,0,0,0,.8.4h0.5Zm-0.4-4.2,0.6-.6a0.9,0.9,0,0,0,.2-0.6,0.6,0.6,0,0,0-.2-0.4l-0.4-.2-0.4.2a0.6,0.6,0,0,0-.2.5,1.4,1.4,0,0,0,.1.4Z" transform="translate(-1715.1 -3817.5)"/><path class="cls-1" d="M1775.5,3884H1774l1.8-8.5h2.4v3.7c0,0.4,0,.8,0,1.1s0,0.6,0,.9l0.4-1.2,0.2-.5,1.7-3.9h2.4l-1.8,8.5h-1.5l1.5-6.2,0.2-.7,0.2-.9h-0.1l-0.4,1-0.2.6-2.7,6.2h-1v-6.1c0-.2,0-0.5,0-0.8s0-.6,0-0.8h-0.1v0.8l-0.2,1Z" transform="translate(-1715.1 -3817.5)"/><path class="cls-1" d="M1785.8,3881.9h1.4a2.7,2.7,0,0,1-.7,1.7,2.2,2.2,0,0,1-1.6.6,2.2,2.2,0,0,1-1.5-.5,1.8,1.8,0,0,1-.5-1.4q0-.2,0-0.5v-0.6q0.1-.8.2-1.4a5.8,5.8,0,0,1,.3-1,2.4,2.4,0,0,1,.9-1.1,2.6,2.6,0,0,1,1.4-.3,2.1,2.1,0,0,1,1.5.4,1.7,1.7,0,0,1,.5,1.3,5.8,5.8,0,0,1-.1.8l-0.2,1h-3v0.8a4.1,4.1,0,0,0,0,.5,0.9,0.9,0,0,0,.2.6l0.5,0.2a0.7,0.7,0,0,0,.6-0.3A2,2,0,0,0,1785.8,3881.9Zm0.4-1.9v-0.8a0.7,0.7,0,0,0-.2-0.5l-0.5-.2a0.8,0.8,0,0,0-.7.3,2.9,2.9,0,0,0-.4,1.1h1.6Z" transform="translate(-1715.1 -3817.5)"/><path class="cls-1" d="M1790.9,3884v-0.7l-0.6.7-0.8.2a1.3,1.3,0,0,1-1.1-.5,2.3,2.3,0,0,1-.4-1.4,5.4,5.4,0,0,1,0-.6V3881l0.3-1.2,0.3-.9a2.5,2.5,0,0,1,.7-1,1.6,1.6,0,0,1,1-.3l0.7,0.2a1.3,1.3,0,0,1,.4.7l0.6-2.9h1.5l-1.8,8.5h-1.3Zm0.2-5.3-0.5.2-0.3.5a9.7,9.7,0,0,0-.4,1.5,7.4,7.4,0,0,0-.2,1.4,1,1,0,0,0,.1.6l0.4,0.2,0.5-.2,0.3-.5,0.2-.6,0.2-.8,0.2-.9a4.6,4.6,0,0,0,.1-0.6,0.9,0.9,0,0,0-.1-0.6Z" transform="translate(-1715.1 -3817.5)"/><path class="cls-1" d="M1793.6,3884l1.3-6.3h1.5l-1.3,6.3h-1.5Zm1.5-7.2,0.3-1.3h1.5l-0.3,1.3h-1.5Z" transform="translate(-1715.1 -3817.5)"/><path class="cls-1" d="M1796.7,3882.2a5.4,5.4,0,0,1,.1-0.7l0.2-.9a10.7,10.7,0,0,1,.3-1.4l0.4-.8a1.9,1.9,0,0,1,.8-0.7l1.1-.2a2.2,2.2,0,0,1,1.6.5,1.9,1.9,0,0,1,.5,1.5,6.2,6.2,0,0,1,0,.7v0.9a9.7,9.7,0,0,1-.3,1.3l-0.4.9a1.8,1.8,0,0,1-.8.7l-1.1.2a2.2,2.2,0,0,1-1.6-.5A2,2,0,0,1,1796.7,3882.2Zm2.8-3.6-0.5.2a2.3,2.3,0,0,0-.4.9l-0.4,1.6a6.6,6.6,0,0,0-.1,1.1,0.9,0.9,0,0,0,.2.6l0.5,0.2,0.6-.2a2.3,2.3,0,0,0,.4-0.9l0.4-1.6a6.5,6.5,0,0,0,.1-1.1,0.9,0.9,0,0,0-.2-0.6Z" transform="translate(-1715.1 -3817.5)"/><path class="cls-1" d="M1806,3884h-1.6l3.6-8.5h2l0.2,8.5h-1.5v-2.2h-1.8Zm1.3-3.4h1.3v-4.1Z" transform="translate(-1715.1 -3817.5)"/><path class="cls-1" d="M1812.2,3884h-1.5l1.3-6.3h1.4v0.5l0.8-.5,0.8-.2,0.8,0.2a1,1,0,0,1,.4.6l0.8-.6,0.8-.2a1.3,1.3,0,0,1,.9.3,1.2,1.2,0,0,1,.3.9v0.8l-1,4.6h-1.5l0.9-4.4v-0.5a0.5,0.5,0,0,0-.1-0.4h-0.4a0.7,0.7,0,0,0-.6.3,2.2,2.2,0,0,0-.4.9l-0.9,4.3h-1.4l0.9-4.4v-0.5a0.5,0.5,0,0,0-.1-0.4H1814a0.7,0.7,0,0,0-.6.3,2.2,2.2,0,0,0-.4.9Z" transform="translate(-1715.1 -3817.5)"/><path class="cls-1" d="M1822.4,3875.5l-0.6,2.5,0.5-.5,0.6-.2a1.3,1.3,0,0,1,1.1.5,2.3,2.3,0,0,1,.4,1.4,5.3,5.3,0,0,1,0,.6v0.8l-0.3,1.2-0.3.9a2.5,2.5,0,0,1-.7,1,1.6,1.6,0,0,1-1,.3l-0.7-.2a1.3,1.3,0,0,1-.4-0.7v0.7h-1.5l1.8-8.5h1.5Zm-0.9,7.4,0.5-.2,0.3-.5a9.7,9.7,0,0,0,.4-1.5,7.4,7.4,0,0,0,.2-1.4,1,1,0,0,0-.1-0.6l-0.4-.2-0.5.2-0.3.5-0.2.6-0.2.8-0.2.9a4.2,4.2,0,0,0-.1.6,0.9,0.9,0,0,0,.1.6Z" transform="translate(-1715.1 -3817.5)"/><path class="cls-1" d="M1824.8,3884l1.3-6.3h1.5l-1.3,6.3h-1.5Zm1.5-7.2,0.3-1.3h1.5l-0.3,1.3h-1.5Z" transform="translate(-1715.1 -3817.5)"/><path class="cls-1" d="M1830.9,3881.9h1.4a2.7,2.7,0,0,1-.7,1.7,2.2,2.2,0,0,1-1.6.6,2.2,2.2,0,0,1-1.5-.5,1.8,1.8,0,0,1-.5-1.4q0-.2,0-0.5v-0.6q0.1-.8.2-1.4a5.8,5.8,0,0,1,.3-1,2.4,2.4,0,0,1,.9-1.1,2.6,2.6,0,0,1,1.4-.3,2.1,2.1,0,0,1,1.5.4,1.7,1.7,0,0,1,.5,1.3,5.8,5.8,0,0,1-.1.8l-0.2,1h-3v0.8a4.1,4.1,0,0,0,0,.5,0.9,0.9,0,0,0,.2.6l0.5,0.2a0.7,0.7,0,0,0,.6-0.3A2,2,0,0,0,1830.9,3881.9Zm0.4-1.9v-0.8a0.7,0.7,0,0,0-.2-0.5l-0.5-.2a0.8,0.8,0,0,0-.7.3,2.9,2.9,0,0,0-.4,1.1h1.6Z" transform="translate(-1715.1 -3817.5)"/><path class="cls-1" d="M1834.5,3884H1833l1.3-6.3h1.4v0.5l0.8-.6,0.8-.2a1.3,1.3,0,0,1,.9.3,1.2,1.2,0,0,1,.3.9v0.8l-1,4.6h-1.5l0.9-4.4v-0.5a0.5,0.5,0,0,0-.1-0.4h-0.4a0.7,0.7,0,0,0-.6.3,2.2,2.2,0,0,0-.4.9Z" transform="translate(-1715.1 -3817.5)"/><path class="cls-1" d="M1841.9,3875.8l-0.4,1.8h0.7l-0.2,1h-0.7l-0.8,3.8h0a0.3,0.3,0,0,0,.1.3h0.5l-0.2,1.1h-0.7a1.4,1.4,0,0,1-.9-0.3,0.9,0.9,0,0,1-.3-0.7v-0.8l0.8-3.7h-0.6l0.2-1h0.6l0.4-1.8h1.5Z" transform="translate(-1715.1 -3817.5)"/><path class="cls-1" d="M1845.1,3881.9h1.4a2.7,2.7,0,0,1-.7,1.7,2.2,2.2,0,0,1-1.6.6,2.2,2.2,0,0,1-1.5-.5,1.8,1.8,0,0,1-.5-1.4q0-.2,0-0.5v-0.6q0.1-.8.2-1.4a5.8,5.8,0,0,1,.3-1,2.4,2.4,0,0,1,.9-1.1,2.6,2.6,0,0,1,1.4-.3,2.1,2.1,0,0,1,1.5.4,1.7,1.7,0,0,1,.5,1.3,5.8,5.8,0,0,1-.1.8l-0.2,1h-3v0.8a4.1,4.1,0,0,0,0,.5,0.9,0.9,0,0,0,.2.6l0.5,0.2a0.7,0.7,0,0,0,.6-0.3A2,2,0,0,0,1845.1,3881.9Zm0.4-1.9v-0.8a0.7,0.7,0,0,0-.2-0.5l-0.5-.2a0.8,0.8,0,0,0-.7.3,2.9,2.9,0,0,0-.4,1.1h1.6Z" transform="translate(-1715.1 -3817.5)"/></svg>