<?xml version="1.0" encoding="utf-8"?>
<!-- Generator: Adobe Illustrator 19.0.0, SVG Export Plug-In . SVG Version: 6.00 Build 0)  -->
<svg version="1.1" id="Capa_1" xmlns="http://www.w3.org/2000/svg" xmlns:xlink="http://www.w3.org/1999/xlink" x="0px" y="0px"
	 viewBox="0 0 306.7 80" style="enable-background:new 0 0 306.7 80;" xml:space="preserve">
<style type="text/css">
	.st0{fill:#194092;}
	.st1{fill:#878787;}
</style>
<g id="XMLID_61_">
	<g id="XMLID_2_">
		<path id="XMLID_3_" class="st0" d="M73.6,77.4H13.1c-3.9,0-7.1-3.2-7.1-7.1V9.7c0-3.9,3.2-7.1,7.1-7.1h60.5c3.9,0,7.1,3.2,7.1,7.1
			v60.5C80.7,74.2,77.5,77.4,73.6,77.4z"/>
		<g id="XMLID_4_">
			<polygon id="XMLID_5_" class="st1" points="16.3,7.1 35.6,7.1 50.8,72.9 33.7,72.9 			"/>
			<polygon id="XMLID_6_" class="st1" points="63.3,7.1 49,56.9 52,70.5 70.4,7.1 			"/>
		</g>
	</g>
	<g id="XMLID_7_">
		<g id="XMLID_8_">
			<path id="XMLID_126_" d="M109.4,30.8l4.6,1.5c-0.7,2.6-1.9,4.5-3.5,5.7c-1.6,1.2-3.7,1.9-6.2,1.9c-3.1,0-5.7-1.1-7.7-3.2
				c-2-2.1-3-5-3-8.7c0-3.9,1-6.9,3-9.1c2-2.2,4.7-3.2,7.9-3.2c2.9,0,5.2,0.8,7,2.5c1.1,1,1.9,2.4,2.4,4.3l-4.7,1.1
				c-0.3-1.2-0.9-2.2-1.7-2.9c-0.9-0.7-1.9-1.1-3.2-1.1c-1.7,0-3.1,0.6-4.2,1.9s-1.6,3.3-1.6,6.1c0,3,0.5,5.1,1.6,6.3
				c1.1,1.3,2.5,1.9,4.2,1.9c1.3,0,2.3-0.4,3.2-1.2C108.3,33.7,109,32.5,109.4,30.8z"/>
			<path id="XMLID_128_" d="M138.8,36.5l-2.7,3.5c-1.3-0.6-2.6-1.5-3.8-2.7c-0.9,0.9-2,1.5-3,1.9c-1.1,0.4-2.3,0.6-3.8,0.6
				c-2.9,0-5.1-0.8-6.6-2.5c-1.1-1.3-1.7-2.7-1.7-4.4c0-1.5,0.4-2.9,1.3-4.1c0.9-1.2,2.2-2.2,4-3.1c-0.8-0.9-1.4-1.9-1.8-2.7
				c-0.4-0.9-0.6-1.7-0.6-2.4c0-1.4,0.6-2.6,1.7-3.6c1.1-1,2.8-1.5,4.9-1.5c2,0,3.6,0.5,4.7,1.6c1.1,1,1.7,2.3,1.7,3.8
				c0,0.9-0.3,1.8-0.8,2.7c-0.6,0.9-1.7,1.8-3.4,2.9l3.3,4.3c0.4-0.7,0.7-1.6,1-2.7l4.1,0.9c-0.4,1.4-0.8,2.5-1.1,3.2
				c-0.3,0.7-0.6,1.2-1,1.7c0.5,0.5,1.1,1,1.9,1.5S138.4,36.3,138.8,36.5z M124.8,28.7c-1,0.5-1.8,1.2-2.3,1.9
				c-0.5,0.7-0.8,1.5-0.8,2.3c0,1,0.3,1.8,1,2.4c0.6,0.6,1.5,0.9,2.5,0.9c0.7,0,1.4-0.1,2-0.4c0.6-0.3,1.4-0.7,2.1-1.4L124.8,28.7z
				 M126.5,23.8l1.2-0.9c0.9-0.7,1.3-1.4,1.3-2.1c0-0.6-0.2-1.1-0.6-1.5s-1-0.6-1.7-0.6c-0.7,0-1.3,0.2-1.7,0.5
				c-0.4,0.4-0.6,0.8-0.6,1.2c0,0.6,0.3,1.2,1,2L126.5,23.8z"/>
			<path id="XMLID_132_" d="M147.7,39.4L139.3,16h5.1l5.9,17.3l5.7-17.3h5l-8.4,23.4H147.7z"/>
			<path id="XMLID_134_" d="M171.5,34l4.5,0.8c-0.6,1.6-1.5,2.9-2.7,3.7c-1.2,0.9-2.8,1.3-4.7,1.3c-3,0-5.1-1-6.6-2.9
				c-1.1-1.5-1.7-3.5-1.7-5.9c0-2.8,0.7-5,2.2-6.6c1.5-1.6,3.3-2.4,5.6-2.4c2.5,0,4.5,0.8,6,2.5c1.5,1.7,2.2,4.2,2.1,7.7H165
				c0,1.3,0.4,2.4,1.1,3.1c0.7,0.7,1.6,1.1,2.6,1.1c0.7,0,1.3-0.2,1.8-0.6S171.3,34.8,171.5,34z M171.8,29.4c0-1.3-0.4-2.3-1-3
				c-0.6-0.7-1.4-1-2.3-1c-1,0-1.8,0.4-2.4,1.1s-1,1.7-0.9,2.9H171.8z"/>
			<path id="XMLID_137_" d="M184.2,39.4h-4.5v-17h4.2v2.4c0.7-1.1,1.4-1.9,1.9-2.3s1.2-0.5,1.9-0.5c1,0,2,0.3,3,0.8l-1.4,3.9
				c-0.8-0.5-1.5-0.7-2.1-0.7c-0.6,0-1.2,0.2-1.6,0.5c-0.4,0.3-0.8,1-1,1.9c-0.3,0.9-0.4,2.8-0.4,5.7V39.4z"/>
			<path id="XMLID_139_" d="M196,27.6l-4.1-0.7c0.5-1.6,1.2-2.9,2.4-3.6c1.1-0.8,2.8-1.2,5-1.2c2,0,3.5,0.2,4.5,0.7
				c1,0.5,1.7,1.1,2.1,1.8c0.4,0.7,0.6,2.1,0.6,4l0,5.2c0,1.5,0.1,2.6,0.2,3.3c0.1,0.7,0.4,1.5,0.8,2.3h-4.4
				c-0.1-0.3-0.3-0.7-0.4-1.3c-0.1-0.3-0.1-0.4-0.2-0.5c-0.8,0.7-1.6,1.3-2.5,1.7s-1.8,0.6-2.8,0.6c-1.7,0-3.1-0.5-4.1-1.4
				s-1.5-2.1-1.5-3.6c0-1,0.2-1.8,0.7-2.6c0.5-0.8,1.1-1.3,1.9-1.7c0.8-0.4,2-0.7,3.6-1c2.1-0.4,3.6-0.8,4.4-1.1v-0.4
				c0-0.9-0.2-1.5-0.6-1.8c-0.4-0.4-1.2-0.6-2.4-0.6c-0.8,0-1.4,0.2-1.9,0.5C196.6,26.3,196.3,26.8,196,27.6z M202,31.2
				c-0.6,0.2-1.5,0.4-2.7,0.7c-1.2,0.3-2.1,0.5-2.4,0.8c-0.6,0.4-0.9,0.9-0.9,1.6c0,0.6,0.2,1.2,0.7,1.6s1.1,0.7,1.8,0.7
				c0.8,0,1.6-0.3,2.3-0.8c0.5-0.4,0.9-0.9,1.1-1.5c0.1-0.4,0.2-1.1,0.2-2.2V31.2z"/>
			<path id="XMLID_142_" d="M218.8,31.8l4.6-0.4c0.3,1.5,0.8,2.7,1.7,3.4s2,1.1,3.4,1.1c1.5,0,2.7-0.3,3.4-1s1.2-1.4,1.2-2.3
				c0-0.6-0.2-1-0.5-1.4c-0.3-0.4-0.9-0.7-1.7-1c-0.6-0.2-1.8-0.5-3.8-1c-2.5-0.6-4.3-1.4-5.3-2.3c-1.4-1.3-2.2-2.9-2.2-4.7
				c0-1.2,0.3-2.3,1-3.3s1.7-1.8,2.9-2.4c1.3-0.5,2.8-0.8,4.6-0.8c2.9,0,5.2,0.6,6.6,1.9c1.5,1.3,2.3,3,2.3,5.2l-4.7,0.2
				c-0.2-1.2-0.6-2.1-1.3-2.6c-0.7-0.5-1.7-0.8-3-0.8c-1.4,0-2.5,0.3-3.2,0.8c-0.5,0.4-0.8,0.8-0.8,1.5c0,0.6,0.2,1,0.7,1.4
				c0.6,0.5,2,1,4.3,1.6c2.3,0.5,4,1.1,5.1,1.7c1.1,0.6,2,1.4,2.6,2.4c0.6,1,0.9,2.3,0.9,3.7c0,1.3-0.4,2.6-1.1,3.8
				c-0.7,1.2-1.8,2-3.2,2.6s-3.1,0.9-5.1,0.9c-3,0-5.2-0.7-6.8-2.1C220,36.4,219.1,34.4,218.8,31.8z"/>
			<path id="XMLID_144_" d="M241.8,39.4v-4.5h4.5v4.5H241.8z"/>
			<path id="XMLID_146_" d="M250.9,39.4V16h10c2.5,0,4.3,0.2,5.5,0.6c1.1,0.4,2,1.2,2.7,2.2c0.7,1.1,1,2.3,1,3.7
				c0,1.8-0.5,3.2-1.6,4.4c-1,1.1-2.6,1.9-4.6,2.2c1,0.6,1.9,1.3,2.5,2c0.7,0.7,1.6,2,2.7,3.8l2.9,4.6h-5.7l-3.4-5.1
				c-1.2-1.8-2-3-2.5-3.4c-0.4-0.5-0.9-0.8-1.4-1s-1.3-0.3-2.4-0.3h-1v9.8H250.9z M255.6,25.9h3.5c2.3,0,3.7-0.1,4.3-0.3
				c0.6-0.2,1-0.5,1.3-1c0.3-0.5,0.5-1.1,0.5-1.8c0-0.8-0.2-1.4-0.6-1.9c-0.4-0.5-1-0.8-1.8-0.9c-0.4-0.1-1.5-0.1-3.5-0.1h-3.7V25.9
				z"/>
			<path id="XMLID_149_" d="M274.5,39.4v-4.5h4.5v4.5H274.5z"/>
			<path id="XMLID_151_" d="M283.8,39.4V16.1h4.7v19.3h11.8v3.9H283.8z"/>
		</g>
		<g id="XMLID_9_">
			<path id="XMLID_76_" d="M104.3,56.9l1.9,0.3c-0.6,1.7-1.5,3-2.7,3.8s-2.5,1.3-3.9,1.3c-1.8,0-3.2-0.5-4.2-1.6
				c-1-1.1-1.6-2.6-1.6-4.7c0-2.6,0.8-4.8,2.4-6.5c1.4-1.5,3.2-2.3,5.3-2.3c1.5,0,2.8,0.4,3.8,1.2c1,0.8,1.5,1.9,1.7,3.3l-1.8,0.2
				c-0.2-1.1-0.6-1.8-1.2-2.4c-0.6-0.5-1.4-0.8-2.3-0.8c-1.8,0-3.2,0.8-4.3,2.4c-1,1.4-1.4,3-1.4,4.9c0,1.5,0.4,2.6,1.1,3.4
				c0.7,0.8,1.7,1.2,2.9,1.2c1,0,1.9-0.3,2.7-1C103.3,59.1,103.9,58.1,104.3,56.9z"/>
			<path id="XMLID_78_" d="M107.7,58.1c0-2.1,0.6-3.8,1.8-5.1c1-1.1,2.3-1.7,3.9-1.7c1.3,0,2.3,0.4,3.1,1.2s1.2,1.9,1.2,3.2
				c0,1.2-0.2,2.3-0.7,3.4c-0.5,1-1.2,1.8-2.1,2.4s-1.9,0.8-2.9,0.8c-0.8,0-1.6-0.2-2.2-0.5c-0.7-0.4-1.2-0.8-1.5-1.5
				S107.7,58.9,107.7,58.1z M109.5,57.9c0,1,0.2,1.8,0.7,2.3s1.1,0.8,1.8,0.8c0.4,0,0.8-0.1,1.1-0.2s0.7-0.4,1.1-0.7
				c0.3-0.3,0.6-0.7,0.8-1.1c0.2-0.4,0.4-0.8,0.6-1.3c0.2-0.7,0.3-1.3,0.3-1.9c0-1-0.2-1.7-0.7-2.2c-0.5-0.5-1.1-0.8-1.8-0.8
				c-0.6,0-1.1,0.1-1.5,0.4s-0.9,0.7-1.3,1.2c-0.4,0.5-0.7,1.1-0.8,1.8S109.5,57.3,109.5,57.9z"/>
			<path id="XMLID_81_" d="M118.8,62.1l2.2-10.6h1.6l-0.4,1.8c0.7-0.7,1.4-1.3,2-1.6c0.6-0.3,1.2-0.5,1.9-0.5c0.9,0,1.5,0.2,2,0.7
				c0.5,0.5,0.7,1.1,0.7,1.9c0,0.4-0.1,1-0.3,1.9l-1.3,6.4h-1.8l1.4-6.7c0.1-0.7,0.2-1.1,0.2-1.4c0-0.4-0.1-0.6-0.4-0.9
				c-0.2-0.2-0.6-0.3-1.1-0.3c-0.9,0-1.7,0.3-2.5,1s-1.3,1.8-1.6,3.4l-1,4.9H118.8z"/>
			<path id="XMLID_83_" d="M134.3,60.6l-0.3,1.5c-0.4,0.1-0.9,0.2-1.3,0.2c-0.7,0-1.3-0.2-1.7-0.5c-0.3-0.3-0.5-0.6-0.5-1.1
				c0-0.2,0.1-0.8,0.3-1.6l1.3-6.1h-1.4l0.3-1.4h1.4l0.5-2.6l2.1-1.2l-0.8,3.8h1.8l-0.3,1.4h-1.8l-1.2,5.8c-0.2,0.7-0.2,1.2-0.2,1.3
				c0,0.2,0.1,0.4,0.2,0.5c0.1,0.1,0.3,0.2,0.6,0.2C133.7,60.7,134,60.7,134.3,60.6z"/>
			<path id="XMLID_85_" d="M135.8,62.1l2.2-10.6h1.6l-0.4,2.2c0.5-0.8,1.1-1.4,1.6-1.8c0.5-0.4,1.1-0.6,1.6-0.6
				c0.4,0,0.8,0.1,1.3,0.4l-0.7,1.7c-0.3-0.2-0.7-0.3-1-0.3c-0.6,0-1.3,0.4-1.9,1.1s-1.2,2-1.6,3.8l-0.9,4.2H135.8z"/>
			<path id="XMLID_87_" d="M149.7,60.8c-0.6,0.5-1.2,0.9-1.8,1.2c-0.6,0.2-1.2,0.4-1.9,0.4c-1,0-1.8-0.3-2.4-0.9
				c-0.6-0.6-0.9-1.3-0.9-2.2c0-0.6,0.1-1.1,0.4-1.6c0.3-0.5,0.6-0.8,1.1-1.1c0.4-0.3,1-0.5,1.6-0.6c0.4-0.1,1.2-0.1,2.3-0.2
				c1.1,0,1.9-0.2,2.4-0.4c0.1-0.5,0.2-0.9,0.2-1.2c0-0.4-0.2-0.7-0.5-1c-0.4-0.3-1-0.5-1.8-0.5c-0.8,0-1.4,0.2-1.9,0.5
				c-0.5,0.3-0.8,0.8-1.1,1.4l-1.8-0.2c0.4-1,1-1.9,1.8-2.4c0.8-0.6,1.8-0.8,3.1-0.8c1.3,0,2.3,0.3,3.1,0.9c0.6,0.5,0.9,1.1,0.9,1.8
				c0,0.6-0.1,1.2-0.2,2l-0.6,2.6c-0.2,0.8-0.3,1.5-0.3,2c0,0.3,0.1,0.8,0.2,1.4h-1.8C149.8,61.7,149.8,61.3,149.7,60.8z
				 M150.4,56.7c-0.3,0.1-0.5,0.2-0.8,0.2c-0.3,0.1-0.8,0.1-1.5,0.2c-1,0.1-1.8,0.2-2.2,0.4c-0.4,0.1-0.8,0.4-1,0.7
				c-0.2,0.3-0.3,0.7-0.3,1c0,0.5,0.2,0.9,0.5,1.2s0.8,0.5,1.5,0.5c0.6,0,1.2-0.2,1.7-0.5c0.6-0.3,1-0.8,1.3-1.3
				C150,58.6,150.2,57.8,150.4,56.7z"/>
			<path id="XMLID_90_" d="M158.1,60.6l-0.3,1.5c-0.4,0.1-0.9,0.2-1.3,0.2c-0.7,0-1.3-0.2-1.7-0.5c-0.3-0.3-0.5-0.6-0.5-1.1
				c0-0.2,0.1-0.8,0.3-1.6l1.3-6.1h-1.4l0.3-1.4h1.4l0.5-2.6l2.1-1.2l-0.8,3.8h1.8l-0.3,1.4h-1.8l-1.2,5.8c-0.2,0.7-0.2,1.2-0.2,1.3
				c0,0.2,0.1,0.4,0.2,0.5c0.1,0.1,0.3,0.2,0.6,0.2C157.5,60.7,157.8,60.7,158.1,60.6z"/>
			<path id="XMLID_92_" d="M159.5,62.1l2.2-10.6h1.8l-2.2,10.6H159.5z M162.2,49.5l0.4-2h1.8l-0.4,2H162.2z"/>
			<path id="XMLID_95_" d="M164.3,58.5l1.8-0.1c0,0.5,0.1,1,0.2,1.3c0.2,0.4,0.5,0.7,0.9,0.9s0.9,0.3,1.5,0.3c0.8,0,1.4-0.2,1.8-0.5
				s0.6-0.7,0.6-1.1c0-0.3-0.1-0.6-0.4-0.9c-0.2-0.3-0.8-0.6-1.8-1c-1-0.4-1.6-0.7-1.8-0.9c-0.4-0.3-0.8-0.6-1-1
				c-0.2-0.4-0.3-0.8-0.3-1.3c0-0.8,0.3-1.6,1-2.2s1.6-0.9,2.8-0.9c1.3,0,2.3,0.3,3,0.9c0.7,0.6,1.1,1.4,1.1,2.4l-1.8,0.1
				c0-0.6-0.3-1.1-0.7-1.5s-1-0.6-1.8-0.6c-0.6,0-1.1,0.1-1.5,0.4c-0.3,0.3-0.5,0.6-0.5,0.9s0.1,0.6,0.4,0.9
				c0.2,0.2,0.7,0.4,1.5,0.8c1.4,0.6,2.3,1.1,2.6,1.4c0.6,0.6,0.9,1.2,0.9,2c0,0.5-0.2,1-0.5,1.5c-0.3,0.5-0.8,0.9-1.5,1.2
				c-0.7,0.3-1.4,0.5-2.3,0.5c-1.2,0-2.3-0.3-3.1-0.9C164.7,60.8,164.2,59.8,164.3,58.5z"/>
			<path id="XMLID_97_" d="M178.5,60.6l-0.3,1.5c-0.4,0.1-0.9,0.2-1.3,0.2c-0.7,0-1.3-0.2-1.7-0.5c-0.3-0.3-0.5-0.6-0.5-1.1
				c0-0.2,0.1-0.8,0.3-1.6l1.3-6.1h-1.4l0.3-1.4h1.4l0.5-2.6l2.1-1.2l-0.8,3.8h1.8l-0.3,1.4h-1.8l-1.2,5.8c-0.2,0.7-0.2,1.2-0.2,1.3
				c0,0.2,0.1,0.4,0.2,0.5c0.1,0.1,0.3,0.2,0.6,0.2C177.9,60.7,178.2,60.7,178.5,60.6z"/>
			<path id="XMLID_99_" d="M187.1,60.8c-0.6,0.5-1.2,0.9-1.8,1.2c-0.6,0.2-1.2,0.4-1.9,0.4c-1,0-1.8-0.3-2.4-0.9
				c-0.6-0.6-0.9-1.3-0.9-2.2c0-0.6,0.1-1.1,0.4-1.6c0.3-0.5,0.6-0.8,1.1-1.1c0.4-0.3,1-0.5,1.6-0.6c0.4-0.1,1.2-0.1,2.3-0.2
				c1.1,0,1.9-0.2,2.4-0.4c0.1-0.5,0.2-0.9,0.2-1.2c0-0.4-0.2-0.7-0.5-1c-0.4-0.3-1-0.5-1.8-0.5c-0.8,0-1.4,0.2-1.9,0.5
				c-0.5,0.3-0.8,0.8-1.1,1.4l-1.8-0.2c0.4-1,1-1.9,1.8-2.4c0.8-0.6,1.8-0.8,3.1-0.8c1.3,0,2.3,0.3,3.1,0.9c0.6,0.5,0.9,1.1,0.9,1.8
				c0,0.6-0.1,1.2-0.2,2l-0.6,2.6c-0.2,0.8-0.3,1.5-0.3,2c0,0.3,0.1,0.8,0.2,1.4h-1.8C187.2,61.7,187.2,61.3,187.1,60.8z
				 M187.8,56.7c-0.3,0.1-0.5,0.2-0.8,0.2c-0.3,0.1-0.8,0.1-1.5,0.2c-1,0.1-1.8,0.2-2.2,0.4c-0.4,0.1-0.8,0.4-1,0.7
				c-0.2,0.3-0.3,0.7-0.3,1c0,0.5,0.2,0.9,0.5,1.2s0.8,0.5,1.5,0.5c0.6,0,1.2-0.2,1.7-0.5c0.6-0.3,1-0.8,1.3-1.3
				C187.4,58.6,187.6,57.8,187.8,56.7z"/>
			<path id="XMLID_102_" d="M191.5,58.5l1.8-0.1c0,0.5,0.1,1,0.2,1.3c0.2,0.4,0.5,0.7,0.9,0.9s0.9,0.3,1.5,0.3
				c0.8,0,1.4-0.2,1.8-0.5s0.6-0.7,0.6-1.1c0-0.3-0.1-0.6-0.4-0.9c-0.2-0.3-0.8-0.6-1.8-1c-1-0.4-1.6-0.7-1.8-0.9
				c-0.4-0.3-0.8-0.6-1-1c-0.2-0.4-0.3-0.8-0.3-1.3c0-0.8,0.3-1.6,1-2.2s1.6-0.9,2.8-0.9c1.3,0,2.3,0.3,3,0.9
				c0.7,0.6,1.1,1.4,1.1,2.4l-1.8,0.1c0-0.6-0.3-1.1-0.7-1.5s-1-0.6-1.8-0.6c-0.6,0-1.1,0.1-1.5,0.4c-0.3,0.3-0.5,0.6-0.5,0.9
				s0.1,0.6,0.4,0.9c0.2,0.2,0.7,0.4,1.5,0.8c1.4,0.6,2.3,1.1,2.6,1.4c0.6,0.6,0.9,1.2,0.9,2c0,0.5-0.2,1-0.5,1.5
				c-0.3,0.5-0.8,0.9-1.5,1.2c-0.7,0.3-1.4,0.5-2.3,0.5c-1.2,0-2.3-0.3-3.1-0.9C191.9,60.8,191.5,59.8,191.5,58.5z"/>
			<path id="XMLID_104_" d="M214.9,56.3l0.3-1.7h6.4l-1.2,5.9c-0.8,0.5-1.7,0.9-2.8,1.2c-1,0.3-2,0.5-3,0.5c-2.1,0-3.7-0.6-4.8-1.9
				c-0.9-1.1-1.3-2.5-1.3-4.2c0-1.8,0.4-3.3,1.2-4.8c0.8-1.4,1.8-2.5,2.9-3.2c1.2-0.7,2.5-1,3.9-1c1,0,2,0.2,2.8,0.6
				c0.8,0.4,1.5,0.9,1.9,1.5c0.4,0.6,0.8,1.4,0.9,2.5l-1.9,0.2c-0.2-1-0.6-1.8-1.3-2.3c-0.6-0.5-1.5-0.8-2.5-0.8c-1.1,0-2,0.3-3,0.9
				c-0.9,0.6-1.6,1.4-2.2,2.6s-0.8,2.5-0.8,4c0,1.5,0.4,2.6,1.1,3.3c0.7,0.8,1.7,1.1,3,1.1c1.3,0,2.6-0.4,4.1-1.3l0.7-3.1H214.9z"/>
			<path id="XMLID_106_" d="M230.9,58.5l1.8,0.2c-0.3,0.9-0.8,1.7-1.7,2.5c-0.9,0.8-2,1.2-3.2,1.2c-0.8,0-1.5-0.2-2.2-0.5
				c-0.7-0.4-1.2-0.9-1.5-1.6c-0.3-0.7-0.5-1.5-0.5-2.4c0-1.2,0.3-2.3,0.8-3.4c0.5-1.1,1.2-1.9,2.1-2.4c0.9-0.5,1.8-0.8,2.8-0.8
				c1.3,0,2.3,0.4,3,1.2c0.8,0.8,1.1,1.9,1.1,3.2c0,0.5,0,1-0.1,1.6h-7.8c0,0.2,0,0.4,0,0.6c0,1,0.2,1.7,0.7,2.3s1,0.8,1.7,0.8
				c0.6,0,1.2-0.2,1.8-0.6S230.5,59.2,230.9,58.5z M225.6,55.9h5.9c0-0.2,0-0.3,0-0.4c0-0.9-0.2-1.6-0.7-2.1s-1-0.7-1.7-0.7
				c-0.8,0-1.5,0.3-2.1,0.8C226.4,54,225.9,54.8,225.6,55.9z"/>
			<path id="XMLID_109_" d="M234.4,62.1l2.2-10.6h1.6l-0.4,1.8c0.7-0.7,1.4-1.3,2-1.6c0.6-0.3,1.2-0.5,1.9-0.5c0.9,0,1.5,0.2,2,0.7
				c0.5,0.5,0.7,1.1,0.7,1.9c0,0.4-0.1,1-0.3,1.9l-1.3,6.4h-1.8l1.4-6.7c0.1-0.7,0.2-1.1,0.2-1.4c0-0.4-0.1-0.6-0.4-0.9
				c-0.2-0.2-0.6-0.3-1.1-0.3c-0.9,0-1.7,0.3-2.5,1s-1.3,1.8-1.6,3.4l-1,4.9H234.4z"/>
			<path id="XMLID_111_" d="M253.5,58.5l1.8,0.2c-0.3,0.9-0.8,1.7-1.7,2.5c-0.9,0.8-2,1.2-3.2,1.2c-0.8,0-1.5-0.2-2.2-0.5
				c-0.7-0.4-1.2-0.9-1.5-1.6c-0.3-0.7-0.5-1.5-0.5-2.4c0-1.2,0.3-2.3,0.8-3.4c0.5-1.1,1.2-1.9,2.1-2.4c0.9-0.5,1.8-0.8,2.8-0.8
				c1.3,0,2.3,0.4,3,1.2c0.8,0.8,1.1,1.9,1.1,3.2c0,0.5,0,1-0.1,1.6H248c0,0.2,0,0.4,0,0.6c0,1,0.2,1.7,0.7,2.3s1,0.8,1.7,0.8
				c0.6,0,1.2-0.2,1.8-0.6S253.2,59.2,253.5,58.5z M248.3,55.9h5.9c0-0.2,0-0.3,0-0.4c0-0.9-0.2-1.6-0.7-2.1s-1-0.7-1.7-0.7
				c-0.8,0-1.5,0.3-2.1,0.8C249.1,54,248.6,54.8,248.3,55.9z"/>
			<path id="XMLID_114_" d="M257.1,62.1l2.2-10.6h1.6l-0.4,2.2c0.5-0.8,1.1-1.4,1.6-1.8c0.5-0.4,1.1-0.6,1.6-0.6
				c0.4,0,0.8,0.1,1.3,0.4l-0.7,1.7c-0.3-0.2-0.7-0.3-1-0.3c-0.6,0-1.3,0.4-1.9,1.1s-1.2,2-1.6,3.8l-0.9,4.2H257.1z"/>
			<path id="XMLID_116_" d="M271,60.8c-0.6,0.5-1.2,0.9-1.8,1.2c-0.6,0.2-1.2,0.4-1.9,0.4c-1,0-1.8-0.3-2.4-0.9
				c-0.6-0.6-0.9-1.3-0.9-2.2c0-0.6,0.1-1.1,0.4-1.6c0.3-0.5,0.6-0.8,1.1-1.1c0.4-0.3,1-0.5,1.6-0.6c0.4-0.1,1.2-0.1,2.3-0.2
				c1.1,0,1.9-0.2,2.4-0.4c0.1-0.5,0.2-0.9,0.2-1.2c0-0.4-0.2-0.7-0.5-1c-0.4-0.3-1-0.5-1.8-0.5c-0.8,0-1.4,0.2-1.9,0.5
				c-0.5,0.3-0.8,0.8-1.1,1.4l-1.8-0.2c0.4-1,1-1.9,1.8-2.4c0.8-0.6,1.8-0.8,3.1-0.8c1.3,0,2.3,0.3,3.1,0.9c0.6,0.5,0.9,1.1,0.9,1.8
				c0,0.6-0.1,1.2-0.2,2l-0.6,2.6c-0.2,0.8-0.3,1.5-0.3,2c0,0.3,0.1,0.8,0.2,1.4h-1.8C271.2,61.7,271.1,61.3,271,60.8z M271.7,56.7
				c-0.3,0.1-0.5,0.2-0.8,0.2c-0.3,0.1-0.8,0.1-1.5,0.2c-1,0.1-1.8,0.2-2.2,0.4c-0.4,0.1-0.8,0.4-1,0.7c-0.2,0.3-0.3,0.7-0.3,1
				c0,0.5,0.2,0.9,0.5,1.2s0.8,0.5,1.5,0.5c0.6,0,1.2-0.2,1.7-0.5c0.6-0.3,1-0.8,1.3-1.3C271.3,58.6,271.5,57.8,271.7,56.7z"/>
			<path id="XMLID_119_" d="M275.1,62.1l3-14.6h1.8l-3,14.6H275.1z"/>
			<path id="XMLID_121_" d="M287.6,58.5l1.8,0.2c-0.3,0.9-0.8,1.7-1.7,2.5c-0.9,0.8-2,1.2-3.2,1.2c-0.8,0-1.5-0.2-2.2-0.5
				c-0.7-0.4-1.2-0.9-1.5-1.6c-0.3-0.7-0.5-1.5-0.5-2.4c0-1.2,0.3-2.3,0.8-3.4c0.5-1.1,1.2-1.9,2.1-2.4c0.9-0.5,1.8-0.8,2.8-0.8
				c1.3,0,2.3,0.4,3,1.2c0.8,0.8,1.1,1.9,1.1,3.2c0,0.5,0,1-0.1,1.6H282c0,0.2,0,0.4,0,0.6c0,1,0.2,1.7,0.7,2.3s1,0.8,1.7,0.8
				c0.6,0,1.2-0.2,1.8-0.6S287.2,59.2,287.6,58.5z M282.3,55.9h5.9c0-0.2,0-0.3,0-0.4c0-0.9-0.2-1.6-0.7-2.1s-1-0.7-1.7-0.7
				c-0.8,0-1.5,0.3-2.1,0.8C283.1,54,282.6,54.8,282.3,55.9z"/>
			<path id="XMLID_124_" d="M291.3,58.5l1.8-0.1c0,0.5,0.1,1,0.2,1.3c0.2,0.4,0.5,0.7,0.9,0.9s0.9,0.3,1.5,0.3
				c0.8,0,1.4-0.2,1.8-0.5s0.6-0.7,0.6-1.1c0-0.3-0.1-0.6-0.4-0.9c-0.2-0.3-0.8-0.6-1.8-1c-1-0.4-1.6-0.7-1.8-0.9
				c-0.4-0.3-0.8-0.6-1-1c-0.2-0.4-0.3-0.8-0.3-1.3c0-0.8,0.3-1.6,1-2.2s1.6-0.9,2.8-0.9c1.3,0,2.3,0.3,3,0.9
				c0.7,0.6,1.1,1.4,1.1,2.4l-1.8,0.1c0-0.6-0.3-1.1-0.7-1.5s-1-0.6-1.8-0.6c-0.6,0-1.1,0.1-1.5,0.4c-0.3,0.3-0.5,0.6-0.5,0.9
				s0.1,0.6,0.4,0.9c0.2,0.2,0.7,0.4,1.5,0.8c1.4,0.6,2.3,1.1,2.6,1.4c0.6,0.6,0.9,1.2,0.9,2c0,0.5-0.2,1-0.5,1.5
				c-0.3,0.5-0.8,0.9-1.5,1.2c-0.7,0.3-1.4,0.5-2.3,0.5c-1.2,0-2.3-0.3-3.1-0.9C291.7,60.8,291.3,59.8,291.3,58.5z"/>
		</g>
	</g>
</g>
<g id="XMLID_75_">
</g>
<g id="XMLID_153_">
</g>
<g id="XMLID_154_">
</g>
<g id="XMLID_155_">
</g>
<g id="XMLID_156_">
</g>
<g id="XMLID_157_">
</g>
</svg>
