<?xml version="1.0" encoding="utf-8"?>
<!-- Generator: Adobe Illustrator 19.0.0, SVG Export Plug-In . SVG Version: 6.00 Build 0)  -->
<svg version="1.1" id="Capa_1" xmlns="http://www.w3.org/2000/svg" xmlns:xlink="http://www.w3.org/1999/xlink" x="0px" y="0px"
	 viewBox="-127 362.3 704.9 236.7" style="enable-background:new -127 362.3 704.9 236.7;" xml:space="preserve">
<style type="text/css">
	.st0{fill:#F0C41B;}
	.st1{fill:#F39C20;}
	.st2{fill:#2A4B9B;}
	.st3{fill:#2A4B9B;stroke:#2A4B9B;stroke-width:3;stroke-miterlimit:10;}
	.st4{fill:#F39C20;stroke:#706F6F;stroke-miterlimit:10;}
</style>
<g id="XMLID_87_">
</g>
<g id="XMLID_97_">
</g>
<g id="XMLID_98_">
</g>
<g id="XMLID_99_">
</g>
<g id="XMLID_100_">
</g>
<g>
	<g id="XMLID_12_">
		<g id="XMLID_2_">
			<path id="XMLID_7_" class="st0" d="M126,484.7c0.4-0.4,0.7-0.9,0.7-1.4V439c0-0.7-0.5-1.4-1.1-1.8s-1.3-0.6-2.1-0.6
				c-1.5-0.2-2.9,0.9-3.1,2.4v44.3c0,0.5,0.3,1.1,0.7,1.4c-2.2,0.5-3.9,2.3-4.1,4.6c1,3.6,4.7,5.7,8.3,4.7c2.3-0.6,4.1-2.4,4.7-4.7
				C129.9,487,128.3,485.1,126,484.7z"/>
			<path id="XMLID_5_" class="st1" d="M119.1,496.5c-0.2-0.8,0.1-1.7,0.7-2.3h7.7c0.6,0.6,0.9,1.5,0.7,2.3l5.2,19.4
				c0.2,0.8-0.1,1.7-0.7,2.3h-18.1c-0.6-0.6-0.9-1.4-0.7-2.3L119.1,496.5z"/>
		</g>
		<g id="XMLID_1_">
			<path id="XMLID_6_" class="st2" d="M-111.5,416.6l85.7-43.1c7.3-5.1,17-5.1,24.3,0l120.1,43.1c5.1,3.3,6.6,10,3.3,15.1
				c-0.8,1.3-2,2.4-3.3,3.3L73,458.6l-40.1,20.8c-7.3,5.1-17,5.1-24.3,0l-74.5-27.5l-45.6-16.8c-5.1-3.3-6.6-10.1-3.3-15.2
				C-113.9,418.6-112.8,417.5-111.5,416.6z"/>
			<path id="XMLID_8_" class="st2" d="M38,483.3c-10.3,7.2-24.1,7.2-34.4,0l-69.5-25.7v54.9c1.8-0.4,3.6-0.7,5.4-0.8
				c3.3-0.2,6.5,0,9.8,0.5v-38.3c0.6-1.7,2.5-2.6,4.3-2c0.9,0.3,1.6,1.1,2,2v39.5c0.7,0.1,1.4,0.3,2,0.5
				C-25.2,518.1-9.5,527,3,539.6c19.2-17.4,44.2-27.1,70.1-27.1V465L38,483.3z"/>
			<g id="XMLID_3_">
				<path id="XMLID_88_" class="st3" d="M-39.2,549.1h-17.1v9.2h15.7c1.2,0,2,0.3,2.6,0.8s0.9,1.2,0.9,2.1c0,0.9-0.3,1.5-0.8,2.1
					c-0.5,0.6-1.4,0.8-2.6,0.8h-15.8v10.6h17.7c1.2,0,2.1,0.3,2.7,0.8c0.6,0.6,0.9,1.3,0.9,2.2s-0.3,1.6-0.9,2.2s-1.5,0.8-2.7,0.8
					h-20.7c-1.7,0-2.8-0.4-3.6-1.1c-0.8-0.7-1.1-1.9-1.1-3.5V548c0-1.1,0.2-2,0.5-2.7s0.8-1.2,1.5-1.5s1.6-0.5,2.6-0.5h20
					c1.2,0,2.1,0.3,2.7,0.8s0.9,1.2,0.9,2.1c0,0.9-0.3,1.6-0.9,2.1S-38,549.1-39.2,549.1z"/>
				<path id="XMLID_90_" class="st3" d="M-6.7,549.1h-14.9v9.6h12.5c1.2,0,2,0.3,2.6,0.8s0.9,1.2,0.9,2.1c0,0.9-0.3,1.6-0.9,2.1
					s-1.4,0.8-2.6,0.8h-12.5v12.3c0,1.6-0.4,2.7-1.1,3.5c-0.7,0.8-1.6,1.1-2.7,1.1s-2-0.4-2.7-1.1c-0.7-0.7-1.1-1.9-1.1-3.5V548
					c0-1.1,0.2-2,0.5-2.7c0.3-0.7,0.8-1.2,1.5-1.5c0.7-0.3,1.6-0.5,2.6-0.5h17.9c1.2,0,2.1,0.3,2.7,0.8s0.9,1.2,0.9,2.1
					c0,0.9-0.3,1.6-0.9,2.1S-5.5,549.1-6.7,549.1z"/>
				<path id="XMLID_92_" class="st3" d="M27.2,549.1H10.1v9.2h15.7c1.2,0,2,0.3,2.6,0.8s0.9,1.2,0.9,2.1c0,0.9-0.3,1.5-0.8,2.1
					c-0.5,0.6-1.4,0.8-2.6,0.8H10.2v10.6h17.7c1.2,0,2.1,0.3,2.7,0.8c0.6,0.6,0.9,1.3,0.9,2.2s-0.3,1.6-0.9,2.2
					c-0.6,0.6-1.5,0.8-2.7,0.8H7.3c-1.7,0-2.8-0.4-3.6-1.1c-0.8-0.7-1.1-1.9-1.1-3.5V548c0-1.1,0.2-2,0.5-2.7s0.8-1.2,1.5-1.5
					s1.6-0.5,2.6-0.5h20c1.2,0,2.1,0.3,2.7,0.8c0.6,0.5,0.9,1.2,0.9,2.1c0,0.9-0.3,1.6-0.9,2.1S28.4,549.1,27.2,549.1z"/>
				<path id="XMLID_94_" class="st3" d="M61.3,576.4l-1.8-4.7H44.3l-1.8,4.8c-0.7,1.9-1.3,3.1-1.8,3.8s-1.3,1-2.4,1
					c-1,0-1.8-0.3-2.5-1s-1.1-1.5-1.1-2.4c0-0.5,0.1-1,0.3-1.6c0.2-0.6,0.5-1.3,0.8-2.3l9.6-24.3c0.3-0.7,0.6-1.5,1-2.5
					s0.8-1.8,1.2-2.4c0.4-0.6,1-1.2,1.7-1.6c0.7-0.4,1.6-0.6,2.6-0.6c1.1,0,1.9,0.2,2.6,0.6c0.7,0.4,1.3,0.9,1.7,1.5
					c0.4,0.6,0.8,1.3,1.1,2s0.7,1.7,1.1,2.9l9.8,24.1c0.8,1.8,1.1,3.2,1.1,4c0,0.9-0.4,1.7-1.1,2.4c-0.7,0.7-1.6,1.1-2.6,1.1
					c-0.6,0-1.1-0.1-1.5-0.3c-0.4-0.2-0.8-0.5-1.1-0.9s-0.6-0.9-0.9-1.7C61.9,577.7,61.6,577,61.3,576.4z M46.3,566h11.2l-5.6-15.4
					L46.3,566z"/>
			</g>
		</g>
	</g>
	<g id="XMLID_14_">
		<g id="XMLID_4_">
			
				<image style="overflow:visible;enable-background:new    ;" width="2125" height="317" id="XMLID_649_" xlink:href="E3F18479.png"  transform="matrix(0.2386 0 0 0.231 65.9064 462.7811)">
			</image>
			<g id="XMLID_385_">
				<g id="XMLID_561_">
					<path id="XMLID_603_" class="st4" d="M101.1,491.4v8.7H96c-0.7,0-1.2,0.2-1.5,0.5c-0.3,0.3-0.4,0.8-0.4,1.5
						c0,0.8,0.1,1.4,0.4,1.6c0.3,0.3,0.9,0.4,1.8,0.4h5.3v11.1h-6.2c-2.9,0-5.1-1-6.7-3.1c-1.5-2-2.3-5-2.3-8.8v-15.2
						c0-3.7,0.7-6.6,2.2-8.7s3.5-3.1,6.2-3.1h6.9v11.2h-5c-1.4,0-2,0.6-2,1.9c0,0.8,0.2,1.3,0.5,1.6s0.9,0.4,1.7,0.4H101.1z"/>
					<path id="XMLID_601_" class="st4" d="M114.1,487.4v27.7h-7.9v-38.9h10.3c4.5,0,8,1.5,10.6,4.5c3,3.6,4.6,8.5,4.6,14.6
						c0,5.9-1.3,10.7-3.9,14.4s-5.9,5.6-10,5.6c-0.5,0-1.3,0-2.4-0.1v-11.4h1.3c4.6,0,6.9-2.8,6.9-8.5c0-5.3-2.3-7.9-6.8-7.9H114.1z
						"/>
					<path id="XMLID_599_" class="st4" d="M154,476.2v25.2c0,4.4-0.9,8-2.7,10.7c-1.8,2.7-4.2,4-7.2,4s-5.3-1.3-6.9-3.9
						c-1.6-2.6-2.4-6.3-2.4-11.1v-24.8h7.9v24.8c0,2.4,0.6,3.6,1.7,3.6s1.7-1.2,1.7-3.6v-24.8h7.9V476.2z"/>
					<path id="XMLID_597_" class="st4" d="M176.7,496.1l8.3,0.3c-0.5,6.3-2,11.1-4.4,14.5s-5.6,5.1-9.5,5.1c-4,0-7.3-1.9-9.9-5.8
						c-2.7-3.9-4-8.7-4-14.5c0-5.8,1.4-10.7,4.1-14.6c2.7-4,6.1-5.9,10-5.9s7.2,1.9,9.8,5.8c1.8,2.7,3.1,6.4,3.9,11.2l-8.5,0.8
						c-0.9-4.3-2.7-6.4-5.4-6.4c-1.7,0-3.1,0.9-4.2,2.6c-1.1,1.7-1.6,3.9-1.6,6.5c0,2.5,0.5,4.6,1.6,6.3s2.4,2.5,4.1,2.5
						s3-0.7,4-2.2C176,501,176.6,498.9,176.7,496.1z"/>
					<path id="XMLID_595_" class="st4" d="M198.4,495.6v10.3h-2.3v9.3h-7.9v-24.7c0-4.8,0.9-8.5,2.7-11.2c1.8-2.6,4.3-4,7.5-4
						c3.1,0,5.4,1.2,6.9,3.6s2.2,6.1,2.2,11.1v25.1h-7.9v-24.4c0-1.5-0.1-2.6-0.4-3.2c-0.2-0.6-0.7-0.9-1.3-0.9
						c-1.2,0-1.8,1.3-1.8,4v4.8h2.3V495.6z"/>
					<path id="XMLID_593_" class="st4" d="M223.9,487.4v27.7H216v-27.7h-6.1v-11.2h20v11.2C229.9,487.4,223.9,487.4,223.9,487.4z"/>
					<path id="XMLID_591_" class="st4" d="M240.7,476.2v38.9h-7.9v-38.9H240.7z"/>
					<path id="XMLID_588_" class="st4" d="M258.6,475.3c3.8,0,7,2,9.7,6s4,8.8,4,14.4c0,5.7-1.4,10.5-4.1,14.5c-2.7,4-6,6-9.9,6
						s-7.1-2-9.9-6c-2.7-4-4.1-8.8-4.1-14.4c0-5.7,1.4-10.5,4.1-14.5C251.3,477.3,254.7,475.3,258.6,475.3z M258.4,486.7
						c-1.6,0-3,0.9-4.1,2.6s-1.7,3.9-1.7,6.3c0,2.4,0.6,4.6,1.7,6.3s2.5,2.6,4.1,2.6s3-0.9,4.2-2.6c1.1-1.7,1.7-3.9,1.7-6.3
						c0-2.5-0.6-4.6-1.7-6.3C261.4,487.6,260,486.7,258.4,486.7z"/>
					<path id="XMLID_586_" class="st4" d="M275.5,515.1v-25.2c0-4.4,0.9-8,2.7-10.6c1.8-2.7,4.2-4,7.2-4s5.3,1.3,6.9,3.9
						c1.6,2.6,2.4,6.3,2.4,11.1v24.8h-7.9v-24.8c0-2.4-0.6-3.6-1.7-3.6s-1.7,1.2-1.7,3.6v24.8H275.5z"/>
					<path id="XMLID_584_" class="st4" d="M319.5,494.6V505h-2.6v10.1H309V491c0-4.5,1-8.3,2.9-11.3s4.3-4.5,7.2-4.5
						c3.2,0,5.9,2,8,6.1l-6.5,6.9c-0.4-1.5-1-2.2-1.9-2.2c-1.2,0-1.8,1.2-1.8,3.7v4.8L319.5,494.6L319.5,494.6z"/>
					<path id="XMLID_581_" class="st4" d="M341.3,475.3c3.8,0,7,2,9.7,6s4,8.8,4,14.4c0,5.7-1.4,10.5-4.1,14.5c-2.7,4-6,6-9.9,6
						s-7.1-2-9.9-6c-2.7-4-4.1-8.8-4.1-14.4c0-5.7,1.4-10.5,4.1-14.5C333.9,477.3,337.3,475.3,341.3,475.3z M341,486.7
						c-1.6,0-3,0.9-4.1,2.6s-1.7,3.9-1.7,6.3c0,2.4,0.6,4.6,1.7,6.3s2.5,2.6,4.1,2.6s3-0.9,4.2-2.6s1.7-3.9,1.7-6.3
						c0-2.5-0.6-4.6-1.7-6.3S342.7,486.7,341,486.7z"/>
					<path id="XMLID_579_" class="st4" d="M366.6,486.7v28.4h-7.9v-38.9h10.1c3.1,0,5.5,1.1,7.2,3.4c1.9,2.5,2.8,5.7,2.8,9.5
						c0,3.9-1.2,7.2-3.5,9.9l4.6,16h-8.3l-3.8-12.5v-10h0.6c1.7,0,2.5-1,2.5-3.1c0-1.8-1-2.8-2.9-2.8h-1.4V486.7z"/>
					<path id="XMLID_577_" class="st4" d="M406.7,491.4v8.7h-5.2c-0.7,0-1.2,0.2-1.5,0.5c-0.3,0.3-0.4,0.8-0.4,1.5
						c0,0.8,0.1,1.4,0.4,1.6c0.3,0.3,0.9,0.4,1.8,0.4h5.3v11.1H401c-2.9,0-5.1-1-6.7-3.1c-1.5-2-2.3-5-2.3-8.8v-15.2
						c0-3.7,0.7-6.6,2.2-8.7s3.5-3.1,6.2-3.1h6.9v11.2h-5c-1.4,0-2,0.6-2,1.9c0,0.8,0.2,1.3,0.5,1.6s0.9,0.4,1.7,0.4H406.7z"/>
					<path id="XMLID_575_" class="st4" d="M430.8,476.2l-11.6,41.1l-11.5-41.1h9.1l2.4,12.1l2.7-12.1H430.8z"/>
					<path id="XMLID_573_" class="st4" d="M446.7,491.4v8.7h-5.2c-0.7,0-1.2,0.2-1.5,0.5c-0.3,0.3-0.4,0.8-0.4,1.5
						c0,0.8,0.1,1.4,0.4,1.6c0.3,0.3,0.9,0.4,1.8,0.4h5.3v11.1H441c-2.9,0-5.1-1-6.7-3.1c-1.5-2-2.3-5-2.3-8.8v-15.2
						c0-3.7,0.7-6.6,2.2-8.7s3.5-3.1,6.2-3.1h6.9v11.2h-5c-1.4,0-2,0.6-2,1.9c0,0.8,0.2,1.3,0.5,1.6s0.9,0.4,1.7,0.4H446.7z"/>
					<path id="XMLID_571_" class="st4" d="M459.6,486.7v28.4h-7.9v-38.9h10.1c3.1,0,5.5,1.1,7.2,3.4c1.9,2.5,2.8,5.7,2.8,9.5
						c0,3.9-1.2,7.2-3.5,9.9l4.6,16h-8.3l-3.8-12.5v-10h0.6c1.7,0,2.5-1,2.5-3.1c0-1.8-1-2.8-2.9-2.8h-1.4V486.7z"/>
					<path id="XMLID_569_" class="st4" d="M494.3,476.2l-7.5,17.3v21.6h-7.9v-21.6l-7.6-17.3h8l3.4,8l3.7-8
						C486.4,476.2,494.3,476.2,494.3,476.2z"/>
					<path id="XMLID_566_" class="st4" d="M508.2,475.3c3.8,0,7,2,9.7,6s4,8.8,4,14.4c0,5.7-1.4,10.5-4.1,14.5c-2.7,4-6,6-9.9,6
						s-7.1-2-9.9-6c-2.7-4-4.1-8.8-4.1-14.4c0-5.7,1.4-10.5,4.1-14.5C500.8,477.3,504.2,475.3,508.2,475.3z M507.9,486.7
						c-1.6,0-3,0.9-4.1,2.6s-1.7,3.9-1.7,6.3c0,2.4,0.6,4.6,1.7,6.3c1.1,1.7,2.5,2.6,4.1,2.6s3-0.9,4.2-2.6c1.1-1.7,1.7-3.9,1.7-6.3
						c0-2.5-0.6-4.6-1.7-6.3S509.6,486.7,507.9,486.7z"/>
					<path id="XMLID_564_" class="st4" d="M525.1,515.1v-25.2c0-4.4,0.9-8,2.7-10.6c1.8-2.7,4.2-4,7.2-4s5.3,1.3,6.9,3.9
						c1.6,2.6,2.4,6.3,2.4,11.1v24.8h-7.9v-24.8c0-2.4-0.6-3.6-1.7-3.6c-1.1,0-1.7,1.2-1.7,3.6v24.8H525.1z"/>
					<path id="XMLID_562_" class="st4" d="M563.2,491.4v8.7H558c-0.7,0-1.2,0.2-1.5,0.5c-0.3,0.3-0.4,0.8-0.4,1.5
						c0,0.8,0.1,1.4,0.4,1.6c0.3,0.3,0.9,0.4,1.8,0.4h5.3v11.1h-6.2c-2.9,0-5.1-1-6.7-3.1c-1.5-2-2.3-5-2.3-8.8v-15.2
						c0-3.7,0.7-6.6,2.2-8.7s3.5-3.1,6.2-3.1h6.9v11.2h-5c-1.4,0-2,0.6-2,1.9c0,0.8,0.2,1.3,0.5,1.6s0.9,0.4,1.7,0.4H563.2z"/>
				</g>
			</g>
		</g>
		<g id="XMLID_11_">
			<path id="XMLID_23_" class="st2" d="M422.6,553.7V564h-2.3v9.3h-7.9v-24.7c0-4.8,0.9-8.5,2.7-11.2c1.8-2.6,4.3-4,7.5-4
				c3.1,0,5.4,1.2,6.9,3.6s2.2,6.1,2.2,11.1v25.2h-7.9v-24.4c0-1.5-0.1-2.6-0.4-3.2c-0.2-0.6-0.7-0.9-1.3-0.9c-1.2,0-1.8,1.3-1.8,4
				v4.8L422.6,553.7L422.6,553.7z"/>
			<path id="XMLID_32_" class="st2" d="M436,545.2h7.3v16c0,1.6,0.5,2.4,1.4,2.4s1.4-0.8,1.4-2.4v-16h7.3V561c0,3.7-0.8,6.8-2.5,9.3
				s-3.7,3.8-6.1,3.8c-2.8,0-5-1.5-6.7-4.4c-1.3-2.3-2-5.5-2-9.6v-14.9H436z"/>
			<path id="XMLID_60_" class="st2" d="M469.6,545.2v11.2c-1,0-1.7,0.3-2.1,0.8c-0.4,0.6-0.6,1.7-0.7,3.3c-0.3,5.5-1.8,9.4-4.4,11.6
				c-1.4,1.2-3.3,1.8-5.8,1.8h-1v-11.3h0.3c1.2,0,2-0.4,2.5-1.1s0.8-2,0.9-3.7c0.1-2.9,0.3-4.9,0.6-6.1c0.3-1.2,0.8-2.3,1.6-3.5
				c1.4-2,3.4-3,5.9-3H469.6z"/>
			<path id="XMLID_62_" class="st2" d="M478.5,534.4v10.9h3.3v11.3h-3.3c0,2.3,0.2,3.8,0.7,4.7s1.4,1.3,2.7,1.3v11.2
				c-0.4,0-0.7,0-0.8,0c-1.6,0-3.2-0.6-4.7-1.7s-2.6-2.6-3.5-4.6c-1.1-2.4-1.7-5.7-1.7-9.7v-23.3L478.5,534.4L478.5,534.4z"/>
			<path id="XMLID_64_" class="st2" d="M495.9,544.6V556c-0.5-0.4-1-0.6-1.4-0.6c-1.3,0-2,1.5-2,4.4v13.5h-7.3v-15.5
				c0-4.1,0.8-7.4,2.3-9.8s3.6-3.7,6.1-3.7C494.3,544.3,495,544.4,495.9,544.6z"/>
			<path id="XMLID_66_" class="st2" d="M508.9,562.6v11c-0.6,0.2-1.1,0.2-1.6,0.2c-2.9,0-5.3-1.4-7.3-4.2c-1.9-2.8-2.9-6.3-2.9-10.6
				c0-4.1,1-7.6,2.9-10.5c2-2.9,4.4-4.3,7.2-4.3c3.1,0,5.6,1.3,7.4,4c1.8,2.7,2.7,6.4,2.7,11v14.1H510v-13.2c0-1.5-0.2-2.7-0.7-3.6
				s-1.2-1.3-2-1.3s-1.4,0.4-2,1.2s-0.8,1.8-0.8,2.9c0,1.2,0.3,2.1,0.8,2.9c0.5,0.8,1.1,1.1,1.9,1.1
				C507.7,563.3,508.3,563.1,508.9,562.6z"/>
			<path id="XMLID_68_" class="st2" d="M528.8,534.4v38.9h-7.3v-38.9H528.8z"/>
			<path id="XMLID_70_" class="st2" d="M540.3,544.8v28.5H533v-28.4h7.3V544.8z M536.7,532.2c1,0,1.8,0.5,2.6,1.5
				c0.7,1,1.1,2.2,1.1,3.6c0,1.5-0.3,2.7-1,3.6c-0.7,0.9-1.6,1.4-2.6,1.4c-1.1,0-1.9-0.5-2.6-1.4c-0.7-0.9-1-2.2-1-3.6
				c0-1.4,0.4-2.6,1.1-3.6C534.8,532.7,535.7,532.2,536.7,532.2z"/>
			<path id="XMLID_73_" class="st2" d="M555.3,562.6v11c-0.6,0.2-1.1,0.2-1.6,0.2c-2.9,0-5.3-1.4-7.3-4.2c-1.9-2.8-2.9-6.3-2.9-10.6
				c0-4.1,1-7.6,2.9-10.5c2-2.9,4.4-4.3,7.2-4.3c3.1,0,5.6,1.3,7.4,4c1.8,2.7,2.7,6.4,2.7,11v14.1h-7.3v-13.2c0-1.5-0.2-2.7-0.7-3.6
				s-1.2-1.3-2-1.3s-1.4,0.4-2,1.2s-0.8,1.8-0.8,2.9c0,1.2,0.3,2.1,0.8,2.9c0.5,0.8,1.1,1.1,1.9,1.1
				C554.2,563.3,554.8,563.1,555.3,562.6z"/>
		</g>
	</g>
	<g id="XMLID_101_">
	</g>
</g>
</svg>
