<?xml version="1.0" encoding="utf-8"?>
<!-- Generator: Adobe Illustrator 19.0.0, SVG Export Plug-In . SVG Version: 6.00 Build 0)  -->
<svg version="1.1" id="Capa_1" xmlns="http://www.w3.org/2000/svg" xmlns:xlink="http://www.w3.org/1999/xlink" x="0px" y="0px"
	 viewBox="0 0 772.1 260.2" style="enable-background:new 0 0 772.1 260.2;" xml:space="preserve">
<style type="text/css">
	.st0{fill:#DA0000;}
</style>
<g>
	<path class="st0" d="M385.9,260.2c-120.5,0-241,0-361.5,0C9.8,260.2,0,250.3,0,235.7C0,165.5,0,95.3,0,25C0,9.8,9.3,0.3,24.6,0
		c4.8-0.1,9.5,0,14.3,0C271.9,0,505,0,738.1,0c4.8,0,9.6-0.1,14.3,0.5c11,1.3,19.5,10.9,19.7,21.9c0.1,2.5,0,5,0,7.5
		c0,68.5,0,137,0,205.4c0,15.4-9.6,24.9-25,24.9C626.7,260.2,506.3,260.2,385.9,260.2z M343,92.6c-1.3-1.5-1.3-3.3-3.9-6.5
		c-5-7.7-14.5-13.1-21-13.8c-11.2-2.3-22.1-2.8-33.2-3.3c-17.4-0.7-34.8-0.6-51.7,4.9c-11.7,3.8-19.4,12.5-20.2,24.9
		c-0.4,6.4-1,12.7-0.9,19.1c0.1,11.4,0.1,22.7,1.1,34c0.9,10.5,7.6,17.7,17,21.7c8.7,3.7,18.1,5.3,27.5,5.5
		c13.8,0.3,27.7,0.7,41.5-0.1c8.7-0.5,13.8-0.4,22-3.3c4.1-1.5,10.9-5.4,13.1-7.3c2.4-1.9,8.9-9.1,8.9-9.1l0,10.6
		c-0.1,4.7,0.8,7.3,5.4,7.3c10.6,0,21.2,0,31.9,0c2.8-0.2,3.8-2.5,3.8-5v-49.5c0.1-1.1,1-3,1.9-3.2c7.6-1.7,14.8-1,20.8,4.8
		c7.6,7.3,15.3,14.4,22.9,21.6c8.9,8.4,18,16.5,26.7,25.2c4.6,4.6,8.9,5.8,17,5.6l45.3,0.2c-1-1.1-1.5-1.8-2.1-2.3
		c-5.5-5.3-11.1-10.6-16.6-16c-19.3-18.8-38.5-37.7-59.7-54.5c-2.6-2.1-1.9-4.3-0.5-6.2c1.5-2.1,3.6-3.7,5.4-5.6
		c20-20.5,40.1-41.1,60.1-61.6c0.8-0.8,1.4-1.8,2.6-3.4h-37.3c-12.7,0-15.6,0.4-21.3,6.4c-14.1,14.7-26.8,30.8-42.3,44
		c-7.5,6.5-13.2,5.7-16.7,4.9c-5.7-1.4-6.4-5.5-7-11.6V31.5c-0.3-2.4,0.1-5.1-5.4-5.1l-29.4,0.1c-5.4-0.1-5.2,1.6-5.3,4.7
		 M161.8,38.5c-6.1-0.1-8,1.8-8.1,7.9c-0.1,5.3,0.2,10.6,0.2,15.9c0,21.7,0,43.3-0.3,65c-0.1,6.1-3.4,9.9-9.4,11.2
		c-3.7,0.8-7.5,1.2-11.2,1.4c-8,0.3-16,0.4-24,0.3c-5.2-0.1-10.5,0.1-15.5-1C86.8,137.6,81,135.6,81,124c0,0,0.5-5-2.3-7.1
		c-3.1-2.4-8.1-1.9-8.1-1.9H32.1l0,21.4c-0.1,16.7,8.6,27.5,26,32c15.6,4,17.9,4.8,33.8,5.1l71.5,0c14.5,0.2,20-4.4,23.8-6.1
		c6.4-4.3,9.8-7.9,12.7-12.4c4.3-6.7,6.6-16.9,6.6-23.1l0-88.1c-0.6-3.8-5.8-5.2-9.4-5.2 M655.6,85.2c3.5,4,6.4,7.1,9,10.6
		c6.1,8.3,7,20.8-7.6,25c-4.7,1.3-9.3,2.9-13.9,4.3c-17.1,5.1-33,12.9-48.1,22.3c-1.6,1-2.9,2.3-4.4,3.5c0.2,0.4,0.2,0.4,0.4,0.8
		c1.4-0.2,2.9-0.5,4.3-0.7c11.4-1.8,22.8-4.3,34.2-5.2c23.1-1.7,46.1,0.1,68.6,5.7c10.3,2.6,20.4,5.8,30.4,9.1
		c4.3,1.4,8.5,3.7,10.3,8.3c0.8,2,0.8,4.3,1.2,6.5c7.4-2.4,11.3-11.2,7.6-17.8c-1.6-2.9-3.9-5.5-5.7-8.3c-0.5-0.8-1.1-2.2-0.7-2.8
		c3.8-6.3,0.8-10.9-3.4-15.3C718.1,110.5,694,97,667.1,88.1C663.6,86.9,660.1,86.3,655.6,85.2z M717.7,70.5c0.2-0.3,0.2-0.3,0.3-0.7
		c-0.9-0.8-1.7-1.8-2.7-2.3c-5.4-2.5-10.7-5.1-16.3-7.3C675,51.1,650,46.6,624.3,45.8c-12.7-0.4-25.5,0.3-38.2,1.4
		c-15.6,1.4-30.9,4.7-45.9,9.6c-21.4,7-41.9,15.6-60.5,28.6c-0.6,0.4-1.2,0.9-2.3,1.9c1.2-0.1,1.5-0.1,1.8-0.2
		c9.6-4.4,19-9.3,28.8-13.2c30.1-12,61.2-15.2,93.3-10.8c25.3,3.5,49.3,10.9,72.4,21.6c4.9,2.2,9.8,4.4,14.7,6.6
		c-1-2.1-2.5-3.6-3.8-5.3c-1.3-1.7-2.6-3.5-3.7-5.3c-3.6-6.2-1.8-10.8,5.3-11.8c5.6-0.8,11.4-0.6,17.1-0.4
		C708.2,68.8,712.9,69.8,717.7,70.5z M504.8,108.5c0.2,0.2,0.4,0.5,0.5,0.7c0.2,0,0.4,0.1,0.6,0c0.9-0.3,1.8-0.7,2.7-1.1
		c24.7-11.8,50.7-16.2,77.9-12.8c19.7,2.4,38.1,8.8,55.2,18.6c4.4,2.5,5.8,1.5,7.8-2.4c0.8-1.5,1.2-3.3,1.2-5
		c0.3-8.2-4-14.6-8.6-20.8c-3.1-4.1-7.2-6.3-12.3-6.9c-16-2-32-2.3-47.9-0.5c-24.4,2.8-47.3,10.2-68,23.5
		C510.7,104,507.8,106.3,504.8,108.5z M641.1,121.6c0.1-0.9,0.1-0.9,0.2-1.8c-19.1-8.9-39.3-9.9-60-8.3c-13.5,1-44.5,11.3-47.7,16
		c2-0.5,3.6-0.9,5.3-1.4c5-1.4,9.9-3.1,14.9-4.3c12.6-2.9,24.9-2.3,36.8,3c6.3,2.8,7.8,6.3,6.5,13.1c-0.2,0.8-0.3,1.7-0.6,3.6
		C610.5,131.3,625.1,124.7,641.1,121.6z M33.2,205.2c-8.2,0.1-9.6,1.8-9,10.1c0.3,5.1,1.8,6.7,7,6.9c3.8,0.1,7.6,0,11.4,0
		c4.3,0,8.6,0,12.8,0c1.1,5.5,0.8,6-4.1,6c-6.4,0-12.8,0-19.2,0c-0.3,0-0.6-0.2-0.9-0.2c-0.3-0.9-0.6-1.8-1-2.9
		c-1.6,0.2-3.1,0.5-4.6,0.6c-2.9,0.1-3,1.9-2.6,4c0.6,2.9,2.7,4.2,7.5,4.3c8.6,0.1,17.1,0,25.7,0c1.2,0,2.4-0.3,3.5-0.5
		c2.4-0.4,3.7-1.9,3.8-4.2c0.5-10.5,0.5-13-10.8-13c-6.8,0-13.6,0-20.6,0c-1-5.4-0.9-5.6,3.8-5.6c5.1,0,10.2,0.1,15.3,0
		c2.4-0.1,4.3,0.3,4.5,3.2c1.2-0.2,3.7-0.7,3.7-0.7s3.4-1.3,3.4-1.7c-0.1-1.5-0.6-3.2-1.6-4.3c-0.8-0.9-2.5-1.4-3.8-1.4
		 M279.3,224.1c0.1-0.2,0.2-0.4,0.3-0.7c0.6,0,1.3-0.1,1.9-0.1c7.7-0.7,8.4-1.5,8.4-9c0-0.1,0-0.2,0-0.3c0-7-1.5-8.6-8.5-8.8
		c-9.4-0.2-18.8,0-28.3,0c-2.3,0-3.3,0.7-3.2,3.2c0.3,7.7,0.4,15.4,0.6,23c0,0.8,0.4,2.2,0.8,2.2c2.4,0.2,4.8,0.4,7-0.2
		c0.6-0.1,0.8-2.8,0.8-4.4c0.1-6,0.8-6.7,6.7-5.7c1.6,0.3,3.1,1.6,4.3,2.4c2.8,1.9,5.6,3.8,8.2,6c4.6,3.7,9.5,1.7,14.5,1.6
		c-2.2-1.8-4.4-3.3-6.7-4.7C284,227.1,281.7,225.6,279.3,224.1z M465.9,211.3c0.2-0.5,0.2-0.5,0.4-1.1c2.3,0,4.7,0.1,7,0
		c2.6-0.2,4.5,0.3,4.5,4c2.4-0.7,4.6-1,6.2-2.1c0.5-0.3,0.2-3.1-0.6-4.1c-0.8-1.2-2.5-2.2-3.9-2.3c-5.1-0.3-10.2-0.5-15.2-0.1
		c-5,0.3-6.5,2.5-5.5,7.3c0.3,1.3,1.2,2.4,1.9,3.8c-2.6,1.3-5.4,2.5-8.1,3.9c-2.5,1.2-3.1,3.5-2.9,6c0.2,2.5,0.4,6,3.1,6.2
		c8.3,0.5,16.7,0.2,25.1,0.1c0.6,0,1.2-0.5,1.7-1c2-1.8,3.8-1.4,5.8,0.1c4.1,3.3,8.7,1.6,13.2,1c-3.3-2.2-6.6-4.4-10.1-6.8
		c2.7-1.8,5.1-3.5,7.5-5.2c-4.1-3.9-4.1-3.9-8.1-1.5c-1,0.6-2.1,1.2-3,1.9c-1.4,1.2-2.5,1-4,0c-4.3-2.9-8.7-5.6-13.1-8.4
		C467.1,212.6,466.5,211.9,465.9,211.3z M666.3,216c1.6-0.2,2.7-0.3,3.9-0.4c4.8-0.5,6.1-2.5,3.9-6.7c-0.8-1.5-3.1-3.1-4.7-3.2
		c-9.5-0.3-19-0.4-28.5-0.2c-5,0.1-6.3,1.9-6.4,7.1c0,4.4,0.2,8.9,0.3,13.3c0.2,6.2,1.8,7.8,8,7.9c6.5,0.1,13,0.1,19.5,0
		c2.7,0,5.4,0,8.1-0.5c3.8-0.7,6.1-5.8,4.3-9.2c-0.2-0.3-0.6-0.7-0.9-0.8c-2.5-0.4-5-0.7-7.6-1c-0.1,1.4-0.3,2.3-0.2,3.2
		c0.2,1.8-0.5,2.7-2.3,2.6c-6,0-11.9,0-17.9-0.2c-0.7,0-2-1.5-2-2.4c-0.2-4.1-0.1-8.2-0.2-12.3c0-1.7,0.6-2.4,2.3-2.3
		c5.8,0,11.7-0.1,17.5,0.1c0.8,0,1.8,1.3,2.4,2.2C666.2,213.9,666.1,214.9,666.3,216z M165.3,216c2.1-0.2,4.2-0.4,6.3-0.7
		c0.7-0.1,1.6-0.8,1.8-1.4c1.2-3.6-1.3-8.1-5.1-8.2c-9.8-0.3-19.7-0.3-29.5,0c-4.2,0.1-5.3,1.9-5.4,6.2c-0.1,4.5,0,9.1,0.1,13.7
		c0.1,6.8,1.6,8.3,8.5,8.4c7,0.1,14.1,0.1,21.1,0c2.1,0,4.3-0.1,6.4-0.6c3.4-0.7,5.6-6.5,3.7-9.3c-0.2-0.3-0.7-0.6-1-0.6
		c-2.4-0.4-4.8-0.7-7.3-1.1l-0.2,2.4c0,0-0.6,3.6-3.4,3.6c-5.4-0.2-10.8-0.1-16.3,0c-2.2,0-3.1-0.7-2.8-3.4l-0.1-10.7
		c-0.2-2.4,0.7-3.2,2.8-3.2c4.4,0.1,8.9,0,13.3,0C163.9,210.9,163.9,210.9,165.3,216z M591.3,221.5c4.9,0,9.4-0.1,13.8,0
		c1.9,0,2.7-0.5,2.8-2.5c0-2-0.8-2.7-2.7-2.7c-3.7,0.1-7.4-0.1-11,0.1c-2.4,0.1-3.2-0.7-3.2-3.2c0-2.5,1.1-2.8,3.1-2.8
		c7.5,0.1,14.9,0,22.4,0c1.7,0,3.2,0.1,3.2-2.4c0-2.4-1.2-2.9-3.2-2.9c-10.5,0-21,0.1-31.5,0c-3,0-3.3,1.4-3,4.7
		c0.7,6.7,0.6,13.5,0.2,20.3c-0.2,3,0.7,3.8,3.2,3.8c10.4-0.1,20.8,0,31.2,0c4,0,4.8-1.5,2.7-5.6c-1.6-0.1-3.2-0.2-4.8-0.2
		c-6.8,0-13.6-0.1-20.5,0c-2.2,0-3.2-0.8-3-3.1C591.2,224,591.2,223,591.3,221.5z M89.8,227.8l0-6.4h16.6v-5.1H89.9v-5.9h28.3
		l-0.1-5.3l-34.3,0c-1.6,0-2.9,1.3-2.9,2.9c0.1,7.6,0.4,15.2,0.1,22.7c-0.1,1.8,0.6,3.2,3,3.2h35.2l0-6 M700.8,216
		c0-2.6-0.2-4.8,0-7.1c0.3-3.1-1.1-4.1-3.9-3.8c-0.7,0.1-1.3,0.1-2,0c-2.8-0.3-3.5,1-3.4,3.6c0.3,6.4,0.4,12.8,0.6,19.1
		c0.2,6.8-1,5.8,6.1,6c2.2,0.1,2.8-0.8,2.7-2.9c-0.1-3,0-6,0-9.2h25.8c0,2.2,0,4.1,0,6.1c0.1,6.7-0.8,6,6.2,6c2.7,0,2.6-0.4,2.5-5.3
		l0-20.3c0-2.8,0-3.3-2.3-3.3l-4,0c-2.5,0-2.5,0.3-2.5,3.1c0,0,0,5.1,0,7.7H700.8z M211.5,233.9
		C211.5,233.8,211.5,233.8,211.5,233.9c4.8-0.1,9.5,0.1,14.3-0.1c4.8-0.2,6.3-2.1,6.3-6.8c0-5.5-0.1-11-0.1-16.6
		c0-5.3,0-5.1-5.3-5.3c-3.1-0.1-3.9,1-3.8,3.9c0.3,5.4,0.2,10.8,0.4,16.2c0.1,2.5-1,3.1-4,2.8c-5.3-0.6-10.7-0.4-16.1,0
		c-2.7,0.2-3.7-0.4-3.7-2.8c0.1-5.7-0.1-11.5,0-17.2c0-2.2-0.9-3-3-2.9c-0.9,0.1-1.8,0.1-2.7,0c-2.6-0.3-3.4,0.9-3.3,3.4
		c0.2,5.9,0.2,11.9,0.4,17.8c0.1,5.6,1.8,7.3,7.5,7.4C202.7,234,207.1,233.9,211.5,233.9z M347.1,205.2c-6.3,0-12.6,0-18.8,0
		c-1.9,0-2.8,0.6-2.7,2.7c0,1.9,0.4,3.1,2.7,3.1c3.7-0.1,7.4,0.1,11,0c2.4-0.1,3.2,0.8,3.1,3.1c-0.1,3.1,0,13.4,0.1,16.5
		c0,1.5-0.4,3.5,2.1,3.5l4.4,0.1c2.2,0,2.2-1.2,2.2-3.9v-16.5c-0.1-2.2,0.7-2.9,2.8-2.8c3.7,0.1,7.4,0,11,0c2.1,0,3.2-0.4,3.1-2.9
		c0-2.4-1-2.9-3.1-2.9C359,205.2,353,205.2,347.1,205.2z M546.4,210.9l0.1,3.2c-0.2,5.6,0,11.3,0,16.9c0,2.1,0.7,3,2.8,2.9
		c1-0.1,2-0.1,2.9,0c2.7,0.3,3.6-0.8,3.5-3.5c-0.2-6.3-0.1-12.5-0.1-19.6c4.4,0,8.9,0,13.4,0c1.8,0,3.1-0.2,3.1-2.6
		c0-2.7-0.1-3.3-3.3-3.3l-36,0c-3.1,0-3.3,0.9-3.3,3c0,2.1,1.3,2.9,3.4,2.9 M369.9,206.1c0.8,0.7,1.5,1.4,2.3,2.1
		c3.6,2.9,8.7,7.3,12.5,9.9c2.5,1.6,3,3.3,3,6.5c0,3.6,0,6,0,6c0,3.3-0.1,3.4,2.6,3.3l4.4,0c2.6,0,2.6,0,2.6-2.9l0-6.5
		c0-3.9,0.7-4.2,2.6-5.8c4.3-3.4,8.5-7,12.8-10.6c0.8-0.7,1.5-1.4,2.2-2.1c-4.6-0.8-8.9-2.2-12.5,1.8c-2.3,2.5-4.9,4.7-7.7,6.7
		c0,0-0.5,0.3-1.7,0.3c-1.1,0-1.7-0.3-1.7-0.3c-2.6-1.9-4.8-4-7-6.4C380.1,203.6,375.1,205.5,369.9,206.1z M315.7,219.7
		c0-3.9-0.1-7.8,0-11.7c0-2.2,0.2-2.9-2.1-2.9h-5.1c-2.7,0-2.1,0.7-2.1,3.3l0,19.5c-0.1,6.6-0.8,6,7.2,6.1c1.9,0,2.2-1.3,2.2-3.1"/>
	<path class="st0" d="M313.2,133c-2.1,0-3.3,0.6-3.3,2.9c0,1.5-0.4,3-0.7,4.5c-1.5,6.7-5.2,9.9-12.4,10.1c-10.8,0.2-21.7,0.2-32.5,0
		c-2.7-0.1-5.5-1-8.1-1.9c-4.8-1.6-6.7-5.5-7.5-10.1c-2-10.7-1.9-21.3,1.1-31.8c1.2-4.2,3.6-6.9,8-8.1c10.3-2.8,20.6-3.7,31.2-2.6
		c3.5,0.4,7.1,0.8,10.6,1.4c4.2,0.7,6.8,3.3,8,7.4c2.7,8.9,2.8,9,12.2,8.8c5.5-0.1,11-0.5,16.5-0.6c5.7-0.1,6.9,1.2,6.9,6.8
		c0,2.9-0.1,5.8,0,8.8c0,2.8-1.3,3.9-4,3.8"/>
	<path class="st0" d="M734,134.1c1.9,4,3.3,7.2,4.8,10.4C733.6,141.8,732.7,140.1,734,134.1z"/>
	<path class="st0" d="M270.2,217.5c-2.8,0-5.6,0-8.4,0c-3.3,0-2.2-2.5-2.4-4.2c-0.2-1.7-0.2-3.3,2.3-3.3c5.5,0.1,11,0,16.5,0
		c2.8,0,3.3,1.6,3.3,4c0,2.6-1.1,3.5-3.5,3.4C275.3,217.4,272.7,217.5,270.2,217.5C270.2,217.5,270.2,217.5,270.2,217.5z"/>
	<path class="st0" d="M476.5,226.9c-1.5,0.4-3,0.9-4.5,1c-3.8,0.1-7.6,0.1-11.4,0c-1,0-2.7-0.9-2.7-1.3c0.2-1.3,0.5-3.1,1.5-3.8
		c1.7-1.3,3.8-2,5.8-2.8c0.7-0.3,1.8-0.3,2.4,0c3,1.8,6,3.8,9,5.7C476.6,226.1,476.6,226.5,476.5,226.9z"/>
	<rect x="351.1" y="213.7" class="st0" width="9.5" height="20.3"/>
	<rect x="722.1" y="200.9" class="st0" width="16.2" height="4.2"/>
</g>
</svg>
