<?xml version="1.0" encoding="utf-8"?>
<!-- Generator: Adobe Illustrator 22.0.1, SVG Export Plug-In . SVG Version: 6.00 Build 0)  -->
<svg version="1.1" id="icons" xmlns="http://www.w3.org/2000/svg" xmlns:xlink="http://www.w3.org/1999/xlink" x="0px" y="0px"
	 width="1400px" height="1081px" viewBox="0 0 1400 1081" enable-background="new 0 0 1400 1081" xml:space="preserve">
<rect id="background" x="0" fill="#FFFFFF" width="1400" height="1081"/>
<ellipse id="label_37_" transform="matrix(0.7071 -0.7071 0.7071 0.7071 -262.0224 1085.7953)" fill="#F5F6F7" cx="1179.7" cy="859.2" rx="122.8" ry="122.8"/>
<g id="laptop-404_5_">
	<g id="tech-laptop_2_">
		<g>
			<polygon fill="#DBDBDB" points="1111.2,909.9 1248.1,909.9 1258.3,899.8 1258.3,894.7 1197.4,894.7 1192.3,899.8 1167,899.8 
				1161.9,894.7 1101.1,894.7 1101.1,899.8 			"/>
			<path fill="#FFFFFF" d="M1111.2,897.2v-81.1c0-4.2,3.4-7.6,7.6-7.6h121.7c4.2,0,7.6,3.4,7.6,7.6v81.1"/>
			<path fill="none" stroke="#244860" stroke-width="4.9123" stroke-miterlimit="10" d="M1111.2,892.2v-76.1c0-4.2,3.4-7.6,7.6-7.6
				h121.7c4.2,0,7.6,3.4,7.6,7.6v76.1"/>
			<rect x="1118.8" y="816.1" fill="#B9DC48" width="121.7" height="71"/>
			<polygon fill="none" stroke="#244860" stroke-width="4.9123" stroke-miterlimit="10" points="1111.2,909.9 1248.1,909.9 
				1258.3,899.8 1258.3,894.7 1197.4,894.7 1192.3,899.8 1167,899.8 1161.9,894.7 1101.1,894.7 1101.1,899.8 			"/>
		</g>
		
			<ellipse transform="matrix(0.1891 -0.982 0.982 0.1891 120.7434 1848.5863)" fill="#FFFFFF" cx="1179.7" cy="851.2" rx="30.7" ry="30.7"/>
	</g>
	<g>
		<path fill="#244860" d="M1168.4,853.5h2.2v3h-2.2v4.2h-3.9v-4.2h-7.8l-0.2-2.3l8-12.7h3.9V853.5z M1160.1,853.5h4.5v-7l-0.1,0
			l-0.4,0.9L1160.1,853.5z"/>
		<path fill="#244860" d="M1185.9,853.7c0,2.2-0.6,4-1.8,5.3c-1.2,1.3-2.7,1.9-4.7,1.9c-2,0-3.5-0.6-4.7-1.9
			c-1.2-1.3-1.8-3.1-1.8-5.3v-5.3c0-2.2,0.6-4,1.8-5.3c1.2-1.3,2.8-1.9,4.7-1.9c2,0,3.5,0.6,4.7,1.9c1.2,1.3,1.8,3.1,1.8,5.3V853.7z
			 M1182,848c0-1.2-0.2-2.2-0.7-2.9c-0.5-0.7-1.1-1-2-1c-0.8,0-1.5,0.3-2,1c-0.5,0.7-0.7,1.6-0.7,2.9v6.1c0,1.3,0.2,2.2,0.7,2.9
			c0.5,0.7,1.1,1,2,1c0.8,0,1.5-0.3,1.9-1c0.5-0.7,0.7-1.6,0.7-2.9V848z"/>
		<path fill="#244860" d="M1200,853.5h2.2v3h-2.2v4.2h-3.9v-4.2h-7.8l-0.2-2.3l8-12.7h3.9V853.5z M1191.6,853.5h4.5v-7l-0.1,0
			l-0.4,0.9L1191.6,853.5z"/>
	</g>
</g>
<ellipse id="label_46_" transform="matrix(0.9987 -5.043475e-02 5.043475e-02 0.9987 -42.2379 44.4855)" fill="#F5F6F7" cx="860.4" cy="859.2" rx="122.8" ry="122.8"/>
<g id="system-monitoring_5_">
	<g>
		
			<path fill="#DBDBDB" stroke="#244860" stroke-width="4.9123" stroke-linecap="round" stroke-linejoin="round" stroke-miterlimit="10" d="
			M929.1,881.7v14.2c0,2.6-2.1,4.7-4.7,4.7H796.3c-2.6,0-4.7-2.1-4.7-4.7v-14.2"/>
		
			<path fill="#FFFFFF" stroke="#244860" stroke-width="4.9123" stroke-linecap="round" stroke-linejoin="round" stroke-miterlimit="10" d="
			M791.6,881.7v-78.3c0-2.6,2.1-4.7,4.7-4.7h128.1c2.6,0,4.7,2.1,4.7,4.7v78.3"/>
		
			<rect x="843.8" y="900.7" fill="#DBDBDB" stroke="#244860" stroke-width="4.9123" stroke-linecap="round" stroke-linejoin="round" stroke-miterlimit="10" width="33.2" height="19"/>
		
			<line fill="none" stroke="#244860" stroke-width="4.9123" stroke-linecap="round" stroke-linejoin="round" stroke-miterlimit="10" x1="929.1" y1="881.7" x2="791.6" y2="881.7"/>
		
			<line fill="none" stroke="#244860" stroke-width="4.9123" stroke-linecap="round" stroke-linejoin="round" stroke-miterlimit="10" x1="886.4" y1="919.7" x2="834.3" y2="919.7"/>
		<path fill="#244860" d="M862.7,890.6c0,1.3-1.1,2.4-2.4,2.4c-1.3,0-2.4-1.1-2.4-2.4c0-1.3,1.1-2.4,2.4-2.4
			C861.7,888.2,862.7,889.3,862.7,890.6z"/>
	</g>
	<g>
		
			<line fill="none" stroke="#244860" stroke-width="4.9123" stroke-linejoin="round" stroke-miterlimit="10" x1="824" y1="806.6" x2="824" y2="874.7"/>
		
			<line fill="none" stroke="#244860" stroke-width="4.9123" stroke-linejoin="round" stroke-miterlimit="10" x1="818.9" y1="869.5" x2="901.9" y2="869.5"/>
		<rect x="851.7" y="831.5" fill="#B9DC48" width="6.9" height="31.1"/>
		<rect x="834.4" y="845.3" fill="#B9DC48" width="6.9" height="17.3"/>
		<rect x="869" y="845.3" fill="#B9DC48" width="6.9" height="17.3"/>
		<rect x="886.3" y="828" fill="#B9DC48" width="6.9" height="34.6"/>
		
			<polyline fill="none" stroke="#4FC1E9" stroke-width="4.9123" stroke-linecap="round" stroke-linejoin="round" stroke-miterlimit="10" points="
			833.1,839.4 857.3,818.9 871,832.6 892,811.4 		"/>
	</g>
</g>
<ellipse id="label_23_" transform="matrix(0.7071 -0.7071 0.7071 0.7071 -449.063 634.2394)" fill="#F5F6F7" cx="541.1" cy="859.2" rx="122.8" ry="122.8"/>
<g id="memory">
	
		<rect x="472.3" y="822.3" fill="#FFFFFF" stroke="#244860" stroke-width="4.9123" stroke-linecap="round" stroke-linejoin="round" stroke-miterlimit="10" width="137.5" height="54"/>
	
		<rect x="482.1" y="876.4" fill="#DBDBDB" stroke="#244860" stroke-width="4.9123" stroke-linecap="round" stroke-linejoin="round" stroke-miterlimit="10" width="117.9" height="19.6"/>
	
		<rect x="487" y="832.2" fill="#B9DC48" stroke="#244860" stroke-width="4.9123" stroke-linecap="round" stroke-linejoin="round" stroke-miterlimit="10" width="19.6" height="34.4"/>
	
		<rect x="516.5" y="832.2" fill="#B9DC48" stroke="#244860" stroke-width="4.9123" stroke-linecap="round" stroke-linejoin="round" stroke-miterlimit="10" width="19.6" height="34.4"/>
	
		<rect x="546" y="832.2" fill="#B9DC48" stroke="#244860" stroke-width="4.9123" stroke-linecap="round" stroke-linejoin="round" stroke-miterlimit="10" width="19.6" height="34.4"/>
	
		<rect x="575.4" y="832.2" fill="#B9DC48" stroke="#244860" stroke-width="4.9123" stroke-linecap="round" stroke-linejoin="round" stroke-miterlimit="10" width="19.6" height="34.4"/>
	
		<line fill="none" stroke="#244860" stroke-width="4.9123" stroke-linecap="round" stroke-linejoin="round" stroke-miterlimit="10" x1="501.8" y1="893.6" x2="501.8" y2="883.7"/>
	
		<line fill="none" stroke="#244860" stroke-width="4.9123" stroke-linecap="round" stroke-linejoin="round" stroke-miterlimit="10" x1="491.9" y1="893.6" x2="491.9" y2="883.7"/>
	
		<line fill="none" stroke="#244860" stroke-width="4.9123" stroke-linecap="round" stroke-linejoin="round" stroke-miterlimit="10" x1="511.6" y1="893.6" x2="511.6" y2="883.7"/>
	
		<line fill="none" stroke="#244860" stroke-width="4.9123" stroke-linecap="round" stroke-linejoin="round" stroke-miterlimit="10" x1="521.4" y1="893.6" x2="521.4" y2="883.7"/>
	
		<line fill="none" stroke="#244860" stroke-width="4.9123" stroke-linecap="round" stroke-linejoin="round" stroke-miterlimit="10" x1="531.2" y1="893.6" x2="531.2" y2="883.7"/>
	
		<line fill="none" stroke="#244860" stroke-width="4.9123" stroke-linecap="round" stroke-linejoin="round" stroke-miterlimit="10" x1="541.1" y1="893.6" x2="541.1" y2="883.7"/>
	
		<line fill="none" stroke="#244860" stroke-width="4.9123" stroke-linecap="round" stroke-linejoin="round" stroke-miterlimit="10" x1="550.9" y1="893.6" x2="550.9" y2="883.7"/>
	
		<line fill="none" stroke="#244860" stroke-width="4.9123" stroke-linecap="round" stroke-linejoin="round" stroke-miterlimit="10" x1="560.7" y1="893.6" x2="560.7" y2="883.7"/>
	
		<line fill="none" stroke="#244860" stroke-width="4.9123" stroke-linecap="round" stroke-linejoin="round" stroke-miterlimit="10" x1="570.5" y1="893.6" x2="570.5" y2="883.7"/>
	
		<line fill="none" stroke="#244860" stroke-width="4.9123" stroke-linecap="round" stroke-linejoin="round" stroke-miterlimit="10" x1="580.4" y1="893.6" x2="580.4" y2="883.7"/>
	
		<line fill="none" stroke="#244860" stroke-width="4.9123" stroke-linecap="round" stroke-linejoin="round" stroke-miterlimit="10" x1="590.2" y1="893.6" x2="590.2" y2="883.7"/>
</g>
<ellipse id="label_1_" transform="matrix(0.7071 -0.7071 0.7071 0.7071 -542.5833 408.4615)" fill="#F5F6F7" cx="221.8" cy="859.2" rx="122.8" ry="122.8"/>
<g id="global-network-2_5_">
	<circle fill="none" stroke="#244860" stroke-width="4.9123" stroke-miterlimit="10" cx="221.8" cy="859.2" r="61.4"/>
	<path fill="none" stroke="#244860" stroke-width="4.9123" stroke-miterlimit="10" d="M253.7,859.2c0,33.9-14.3,61.4-31.9,61.4
		c-17.6,0-31.9-27.5-31.9-61.4c0-33.9,14.3-61.4,31.9-61.4C239.4,797.8,253.7,825.3,253.7,859.2z"/>
	<line fill="none" stroke="#244860" stroke-width="4.9123" stroke-miterlimit="10" x1="221.8" y1="797.8" x2="221.8" y2="920.6"/>
	<line fill="none" stroke="#244860" stroke-width="4.9123" stroke-miterlimit="10" x1="160.4" y1="859.2" x2="283.2" y2="859.2"/>
	<path fill="none" stroke="#244860" stroke-width="4.9123" stroke-miterlimit="10" d="M221.8,832.2c19.3,0,36.6-4.5,47.8-11.5
		c-11.3-14-28.5-22.9-47.8-22.9c-19.3,0-36.6,8.9-47.8,22.9C185.2,827.7,202.4,832.2,221.8,832.2z"/>
	<path fill="none" stroke="#244860" stroke-width="4.9123" stroke-miterlimit="10" d="M221.8,886.2c-19.3,0-36.6,4.5-47.8,11.5
		c11.3,14,28.5,22.9,47.8,22.9c19.3,0,36.6-9,47.8-22.9C258.3,890.7,241.1,886.2,221.8,886.2z"/>
	<ellipse fill="#4FC1E9" stroke="#244860" stroke-width="4.9123" stroke-miterlimit="10" cx="248.5" cy="828.3" rx="9.1" ry="9.1"/>
	<path fill="#FC6E51" stroke="#244860" stroke-width="4.9123" stroke-miterlimit="10" d="M257.6,889.7c0,5-4.1,9.1-9.1,9.1
		c-5,0-9.1-4.1-9.1-9.1c0-5,4.1-9.1,9.1-9.1C253.5,880.6,257.6,884.7,257.6,889.7z"/>
	<path fill="#B9DC48" stroke="#244860" stroke-width="4.9123" stroke-miterlimit="10" d="M199,859.2c0,5-4.1,9.1-9.1,9.1
		c-5,0-9.1-4.1-9.1-9.1c0-5,4.1-9.1,9.1-9.1C194.9,850.1,199,854.2,199,859.2z"/>
</g>
<circle id="label_30_" fill="#F5F6F7" cx="1179.7" cy="539.9" r="122.8"/>
<g id="network-folder_5_">
	<g>
		
			<path fill="#DBDBDB" stroke="#244860" stroke-width="4.9123" stroke-linecap="round" stroke-linejoin="round" stroke-miterlimit="10" d="
			M1236.7,502.1v-12.7c0-2.5-2-4.6-4.6-4.6h-50.2c-2.5,0-4.6-2-4.6-4.6v-4.6c0-2.5-2-4.6-4.6-4.6h-32c-2.5,0-4.6,2-4.6,4.6v4.6
			c0,2.5-2,4.6-4.6,4.6h-4.6c-2.5,0-4.6,2-4.6,4.6v12.7"/>
		
			<path fill="#FFFFFF" stroke="#244860" stroke-width="4.9123" stroke-linecap="round" stroke-linejoin="round" stroke-miterlimit="10" d="
			M1232.2,576.2h-105c-2.5,0-4.6-2-4.6-4.6v-68.5c0-2.5,2-4.6,4.6-4.6h105c2.5,0,4.6,2,4.6,4.6v68.5
			C1236.7,574.1,1234.7,576.2,1232.2,576.2z"/>
	</g>
	<g>
		
			<line fill="none" stroke="#244860" stroke-width="4.9123" stroke-linecap="round" stroke-linejoin="round" x1="1179.7" y1="578.1" x2="1179.7" y2="589.2"/>
		
			<line fill="none" stroke="#244860" stroke-width="4.9123" stroke-linecap="round" stroke-linejoin="round" x1="1189" y1="600.4" x2="1228.8" y2="600.4"/>
		
			<line fill="none" stroke="#244860" stroke-width="4.9123" stroke-linecap="round" stroke-linejoin="round" x1="1130.5" y1="600.4" x2="1170.3" y2="600.4"/>
		
			<path fill="#B9DC48" stroke="#244860" stroke-width="4.9123" stroke-linecap="round" stroke-linejoin="round" stroke-miterlimit="10" d="
			M1189.1,599.3c0,5.2-4.2,9.4-9.4,9.4c-5.2,0-9.4-4.2-9.4-9.4c0-5.2,4.2-9.4,9.4-9.4C1184.9,589.9,1189.1,594.1,1189.1,599.3z"/>
	</g>
	<g>
		<path fill="#244860" d="M1149,479.7c0,1.6-1.3,2.8-2.8,2.8c-1.6,0-2.8-1.3-2.8-2.8c0-1.6,1.3-2.8,2.8-2.8
			C1147.7,476.9,1149,478.2,1149,479.7z"/>
		<path fill="#244860" d="M1158.4,479.7c0,1.6-1.3,2.8-2.8,2.8c-1.6,0-2.8-1.3-2.8-2.8c0-1.6,1.3-2.8,2.8-2.8
			C1157.1,476.9,1158.4,478.2,1158.4,479.7z"/>
		<path fill="#244860" d="M1167.9,479.7c0,1.6-1.3,2.8-2.8,2.8c-1.6,0-2.8-1.3-2.8-2.8c0-1.6,1.3-2.8,2.8-2.8
			C1166.6,476.9,1167.9,478.2,1167.9,479.7z"/>
	</g>
	<line fill="none" stroke="#244860" stroke-width="4.9123" stroke-miterlimit="10" x1="1194.3" y1="517.8" x2="1225.6" y2="517.8"/>
	<line fill="none" stroke="#244860" stroke-width="4.9123" stroke-miterlimit="10" x1="1194.3" y1="510.5" x2="1225.6" y2="510.5"/>
</g>
<circle id="label_26_" fill="#F5F6F7" cx="860.4" cy="539.9" r="122.8"/>
<g id="power-switch_5_">
	<circle fill="#B9DC48" cx="860.4" cy="539.9" r="68.8"/>
	<path fill="#FFFFFF" d="M911.6,539.9c0,28.3-22.9,51.2-51.2,51.2c-28.3,0-51.2-22.9-51.2-51.2c0-28.3,22.9-51.2,51.2-51.2
		C888.6,488.7,911.6,511.6,911.6,539.9z"/>
	<circle fill="#DBDBDB" cx="860.4" cy="539.9" r="24.6"/>
	<g>
		<path fill="none" stroke="#244860" stroke-width="4.9123" stroke-linejoin="round" stroke-miterlimit="10" d="M850.1,507
			c-13.6,4.3-23.4,17.1-23.4,32.1c0,18.6,15.1,33.7,33.7,33.7c18.6,0,33.7-15.1,33.7-33.7c0-15-9.8-27.7-23.4-32.1"/>
		
			<line fill="none" stroke="#244860" stroke-width="4.9123" stroke-linejoin="round" stroke-miterlimit="10" x1="860.4" y1="505" x2="860.4" y2="535.1"/>
	</g>
	<circle fill="#244860" cx="920.5" cy="539.9" r="3.1"/>
	<circle fill="#244860" cx="800.2" cy="539.9" r="3.1"/>
</g>
<circle id="label_24_" fill="#F5F6F7" cx="541.1" cy="539.9" r="122.8"/>
<g id="network-server_4_">
	<g>
		
			<path fill="#FFFFFF" stroke="#244860" stroke-width="4.9123" stroke-linecap="round" stroke-linejoin="round" stroke-miterlimit="10" d="
			M482.3,563.1c0,8.5,6.9,15.3,15.3,15.3h86.8c8.5,0,15.3-6.9,15.3-15.3v-76.6c0-8.5-6.9-15.3-15.3-15.3h-86.8
			c-8.5,0-15.3,6.9-15.3,15.3V563.1z"/>
		<path fill="#B9DC48" d="M572.2,487.8c0,2.8,2.3,5.1,5.1,5.1c2.8,0,5.1-2.3,5.1-5.1c0-2.8-2.3-5.1-5.1-5.1
			C574.5,482.7,572.2,485,572.2,487.8z"/>
		<path fill="#4FC1E9" d="M572.2,523.6c0,2.8,2.3,5.1,5.1,5.1c2.8,0,5.1-2.3,5.1-5.1c0-2.8-2.3-5.1-5.1-5.1
			C574.5,518.4,572.2,520.7,572.2,523.6z"/>
		<path fill="#FC6E51" d="M572.2,559.3c0,2.8,2.3,5.1,5.1,5.1c2.8,0,5.1-2.3,5.1-5.1c0-2.8-2.3-5.1-5.1-5.1
			C574.5,554.2,572.2,556.5,572.2,559.3z"/>
		
			<line fill="none" stroke="#244860" stroke-width="4.9123" stroke-linecap="round" stroke-linejoin="round" stroke-miterlimit="10" x1="597.3" y1="542.6" x2="484.9" y2="542.6"/>
		
			<line fill="none" stroke="#244860" stroke-width="4.9123" stroke-linecap="round" stroke-linejoin="round" stroke-miterlimit="10" x1="597.3" y1="505.5" x2="484.9" y2="505.5"/>
		<g>
			<path fill="#244860" d="M529.5,487.8c0,1.4,1.1,2.6,2.6,2.6c1.4,0,2.6-1.1,2.6-2.6c0-1.4-1.1-2.6-2.6-2.6
				C530.6,485.2,529.5,486.4,529.5,487.8z"/>
			<path fill="#244860" d="M509.3,487.8c0,1.4,1.1,2.6,2.6,2.6c1.4,0,2.6-1.1,2.6-2.6c0-1.4-1.1-2.6-2.6-2.6
				C510.4,485.2,509.3,486.4,509.3,487.8z"/>
			<path fill="#244860" d="M499.2,487.8c0,1.4,1.1,2.6,2.6,2.6c1.4,0,2.6-1.1,2.6-2.6c0-1.4-1.1-2.6-2.6-2.6
				C500.3,485.2,499.2,486.4,499.2,487.8z"/>
			<path fill="#244860" d="M529.5,523.6c0,1.4,1.1,2.6,2.6,2.6c1.4,0,2.6-1.1,2.6-2.6c0-1.4-1.1-2.6-2.6-2.6
				C530.6,521,529.5,522.1,529.5,523.6z"/>
			<path fill="#244860" d="M509.3,523.6c0,1.4,1.1,2.6,2.6,2.6c1.4,0,2.6-1.1,2.6-2.6c0-1.4-1.1-2.6-2.6-2.6
				C510.4,521,509.3,522.1,509.3,523.6z"/>
			<path fill="#244860" d="M499.2,523.6c0,1.4,1.1,2.6,2.6,2.6c1.4,0,2.6-1.1,2.6-2.6c0-1.4-1.1-2.6-2.6-2.6
				C500.3,521,499.2,522.1,499.2,523.6z"/>
			<path fill="#244860" d="M529.5,559.3c0,1.4,1.1,2.5,2.6,2.5c1.4,0,2.6-1.1,2.6-2.5c0-1.4-1.1-2.6-2.6-2.6
				C530.6,556.8,529.5,557.9,529.5,559.3z"/>
			<path fill="#244860" d="M519.4,487.8c0,1.4,1.1,2.6,2.6,2.6c1.4,0,2.6-1.1,2.6-2.6c0-1.4-1.1-2.6-2.6-2.6
				C520.5,485.2,519.4,486.4,519.4,487.8z"/>
			<path fill="#244860" d="M519.4,523.6c0,1.4,1.1,2.6,2.6,2.6c1.4,0,2.6-1.1,2.6-2.6c0-1.4-1.1-2.6-2.6-2.6
				C520.5,521,519.4,522.1,519.4,523.6z"/>
			<path fill="#244860" d="M519.4,559.3c0,1.4,1.1,2.5,2.6,2.5c1.4,0,2.6-1.1,2.6-2.5c0-1.4-1.1-2.6-2.6-2.6
				C520.5,556.8,519.4,557.9,519.4,559.3z"/>
			<path fill="#244860" d="M509.3,559.3c0,1.4,1.1,2.5,2.6,2.5c1.4,0,2.6-1.1,2.6-2.5c0-1.4-1.1-2.6-2.6-2.6
				C510.4,556.8,509.3,557.9,509.3,559.3z"/>
			<path fill="#244860" d="M499.2,559.3c0,1.4,1.1,2.5,2.6,2.5c1.4,0,2.6-1.1,2.6-2.5c0-1.4-1.1-2.6-2.6-2.6
				C500.3,556.8,499.2,557.9,499.2,559.3z"/>
		</g>
	</g>
	<g>
		
			<line fill="none" stroke="#244860" stroke-width="4.9123" stroke-linecap="round" stroke-linejoin="round" x1="541.1" y1="579.7" x2="541.1" y2="590.2"/>
		
			<line fill="none" stroke="#244860" stroke-width="4.9123" stroke-linecap="round" stroke-linejoin="round" x1="549.9" y1="600.9" x2="590" y2="600.9"/>
		
			<line fill="none" stroke="#244860" stroke-width="4.9123" stroke-linecap="round" stroke-linejoin="round" x1="492.1" y1="600.9" x2="532.2" y2="600.9"/>
		
			<path fill="#DBDBDB" stroke="#244860" stroke-width="4.9123" stroke-linecap="round" stroke-linejoin="round" stroke-miterlimit="10" d="
			M550,599.7c0,4.9-4,8.9-8.9,8.9c-4.9,0-8.9-4-8.9-8.9c0-4.9,4-8.9,8.9-8.9C546,590.8,550,594.8,550,599.7z"/>
	</g>
</g>
<circle id="label_40_" fill="#F5F6F7" cx="221.8" cy="539.9" r="122.8"/>
<g id="safety-shield_5_">
	
		<path fill="#FFFFFF" stroke="#244860" stroke-width="4.9123" stroke-linecap="round" stroke-linejoin="round" stroke-miterlimit="10" d="
		M275.3,491.5c-35.7,0-53.5-20.4-53.5-20.4s-17.8,20.4-53.5,20.4v46.1c0,19.1,8.9,37.1,24.1,48.6l29.4,22.4l29.4-22.4
		c15.2-11.6,24.1-29.5,24.1-48.6V491.5z"/>
	
		<path fill="#B9DC48" stroke="#244860" stroke-width="4.9123" stroke-linecap="round" stroke-linejoin="round" stroke-miterlimit="10" d="
		M221.8,484.7c8.1,6.1,22.5,14.4,43.3,16.5v36.5c0,15.8-7.5,30.9-20.1,40.5l-23.2,17.7l-23.2-17.7c-12.6-9.6-20.1-24.7-20.1-40.5
		v-36.5C199.2,499,213.7,490.8,221.8,484.7"/>
	
		<polyline fill="none" stroke="#244860" stroke-width="4.9123" stroke-linecap="round" stroke-linejoin="round" stroke-miterlimit="10" points="
		201.4,541.9 215,557.7 242.1,517 	"/>
</g>
<ellipse id="label_22_" transform="matrix(0.7071 -0.7071 0.7071 0.7071 189.5336 898.7547)" fill="#F5F6F7" cx="1179.7" cy="220.6" rx="122.8" ry="122.8"/>
<g id="processor_4_">
	
		<rect x="1130.5" y="171.5" fill="#DBDBDB" stroke="#244860" stroke-width="4.9123" stroke-linecap="round" stroke-linejoin="round" stroke-miterlimit="10" width="98.3" height="98.3"/>
	
		<rect x="1150.2" y="191.1" fill="#FFFFFF" stroke="#244860" stroke-width="4.9123" stroke-linecap="round" stroke-linejoin="round" stroke-miterlimit="10" width="59" height="58.9"/>
	<g>
		
			<line fill="none" stroke="#244860" stroke-width="4.9123" stroke-linecap="round" stroke-linejoin="round" stroke-miterlimit="10" x1="1145.3" y1="169" x2="1145.3" y2="154.3"/>
		
			<line fill="none" stroke="#244860" stroke-width="4.9123" stroke-linecap="round" stroke-linejoin="round" stroke-miterlimit="10" x1="1135.4" y1="169" x2="1135.4" y2="154.3"/>
		
			<line fill="none" stroke="#244860" stroke-width="4.9123" stroke-linecap="round" stroke-linejoin="round" stroke-miterlimit="10" x1="1155.1" y1="169" x2="1155.1" y2="154.3"/>
		
			<line fill="none" stroke="#244860" stroke-width="4.9123" stroke-linecap="round" stroke-linejoin="round" stroke-miterlimit="10" x1="1164.9" y1="169" x2="1164.9" y2="154.3"/>
		
			<line fill="none" stroke="#244860" stroke-width="4.9123" stroke-linecap="round" stroke-linejoin="round" stroke-miterlimit="10" x1="1174.7" y1="169" x2="1174.7" y2="154.3"/>
		
			<line fill="none" stroke="#244860" stroke-width="4.9123" stroke-linecap="round" stroke-linejoin="round" stroke-miterlimit="10" x1="1184.6" y1="169" x2="1184.6" y2="154.3"/>
		
			<line fill="none" stroke="#244860" stroke-width="4.9123" stroke-linecap="round" stroke-linejoin="round" stroke-miterlimit="10" x1="1194.4" y1="169" x2="1194.4" y2="154.3"/>
		
			<line fill="none" stroke="#244860" stroke-width="4.9123" stroke-linecap="round" stroke-linejoin="round" stroke-miterlimit="10" x1="1204.2" y1="169" x2="1204.2" y2="154.3"/>
		
			<line fill="none" stroke="#244860" stroke-width="4.9123" stroke-linecap="round" stroke-linejoin="round" stroke-miterlimit="10" x1="1214" y1="169" x2="1214" y2="154.3"/>
		
			<line fill="none" stroke="#244860" stroke-width="4.9123" stroke-linecap="round" stroke-linejoin="round" stroke-miterlimit="10" x1="1223.9" y1="169" x2="1223.9" y2="154.3"/>
		
			<line fill="none" stroke="#244860" stroke-width="4.9123" stroke-linecap="round" stroke-linejoin="round" stroke-miterlimit="10" x1="1145.3" y1="286.9" x2="1145.3" y2="272.2"/>
		
			<line fill="none" stroke="#244860" stroke-width="4.9123" stroke-linecap="round" stroke-linejoin="round" stroke-miterlimit="10" x1="1135.4" y1="286.9" x2="1135.4" y2="272.2"/>
		
			<line fill="none" stroke="#244860" stroke-width="4.9123" stroke-linecap="round" stroke-linejoin="round" stroke-miterlimit="10" x1="1155.1" y1="286.9" x2="1155.1" y2="272.2"/>
		
			<line fill="none" stroke="#244860" stroke-width="4.9123" stroke-linecap="round" stroke-linejoin="round" stroke-miterlimit="10" x1="1164.9" y1="286.9" x2="1164.9" y2="272.2"/>
		
			<line fill="none" stroke="#244860" stroke-width="4.9123" stroke-linecap="round" stroke-linejoin="round" stroke-miterlimit="10" x1="1174.7" y1="286.9" x2="1174.7" y2="272.2"/>
		
			<line fill="none" stroke="#244860" stroke-width="4.9123" stroke-linecap="round" stroke-linejoin="round" stroke-miterlimit="10" x1="1184.6" y1="286.9" x2="1184.6" y2="272.2"/>
		
			<line fill="none" stroke="#244860" stroke-width="4.9123" stroke-linecap="round" stroke-linejoin="round" stroke-miterlimit="10" x1="1194.4" y1="286.9" x2="1194.4" y2="272.2"/>
		
			<line fill="none" stroke="#244860" stroke-width="4.9123" stroke-linecap="round" stroke-linejoin="round" stroke-miterlimit="10" x1="1204.2" y1="286.9" x2="1204.2" y2="272.2"/>
		
			<line fill="none" stroke="#244860" stroke-width="4.9123" stroke-linecap="round" stroke-linejoin="round" stroke-miterlimit="10" x1="1214" y1="286.9" x2="1214" y2="272.2"/>
		
			<line fill="none" stroke="#244860" stroke-width="4.9123" stroke-linecap="round" stroke-linejoin="round" stroke-miterlimit="10" x1="1223.9" y1="286.9" x2="1223.9" y2="272.2"/>
		
			<line fill="none" stroke="#244860" stroke-width="4.9123" stroke-linecap="round" stroke-linejoin="round" stroke-miterlimit="10" x1="1128.1" y1="264.8" x2="1113.3" y2="264.8"/>
		
			<line fill="none" stroke="#244860" stroke-width="4.9123" stroke-linecap="round" stroke-linejoin="round" stroke-miterlimit="10" x1="1128.1" y1="255" x2="1113.3" y2="255"/>
		
			<line fill="none" stroke="#244860" stroke-width="4.9123" stroke-linecap="round" stroke-linejoin="round" stroke-miterlimit="10" x1="1128.1" y1="245.2" x2="1113.3" y2="245.2"/>
		
			<line fill="none" stroke="#244860" stroke-width="4.9123" stroke-linecap="round" stroke-linejoin="round" stroke-miterlimit="10" x1="1128.1" y1="235.3" x2="1113.3" y2="235.3"/>
		
			<line fill="none" stroke="#244860" stroke-width="4.9123" stroke-linecap="round" stroke-linejoin="round" stroke-miterlimit="10" x1="1128.1" y1="225.5" x2="1113.3" y2="225.5"/>
		
			<line fill="none" stroke="#244860" stroke-width="4.9123" stroke-linecap="round" stroke-linejoin="round" stroke-miterlimit="10" x1="1128.1" y1="215.7" x2="1113.3" y2="215.7"/>
		
			<line fill="none" stroke="#244860" stroke-width="4.9123" stroke-linecap="round" stroke-linejoin="round" stroke-miterlimit="10" x1="1128.1" y1="205.9" x2="1113.3" y2="205.9"/>
		
			<line fill="none" stroke="#244860" stroke-width="4.9123" stroke-linecap="round" stroke-linejoin="round" stroke-miterlimit="10" x1="1128.1" y1="196" x2="1113.3" y2="196"/>
		
			<line fill="none" stroke="#244860" stroke-width="4.9123" stroke-linecap="round" stroke-linejoin="round" stroke-miterlimit="10" x1="1128.1" y1="186.2" x2="1113.3" y2="186.2"/>
		
			<line fill="none" stroke="#244860" stroke-width="4.9123" stroke-linecap="round" stroke-linejoin="round" stroke-miterlimit="10" x1="1128.1" y1="176.4" x2="1113.3" y2="176.4"/>
		
			<line fill="none" stroke="#244860" stroke-width="4.9123" stroke-linecap="round" stroke-linejoin="round" stroke-miterlimit="10" x1="1246" y1="255" x2="1231.2" y2="255"/>
		
			<line fill="none" stroke="#244860" stroke-width="4.9123" stroke-linecap="round" stroke-linejoin="round" stroke-miterlimit="10" x1="1246" y1="264.8" x2="1231.2" y2="264.8"/>
		
			<line fill="none" stroke="#244860" stroke-width="4.9123" stroke-linecap="round" stroke-linejoin="round" stroke-miterlimit="10" x1="1246" y1="245.2" x2="1231.2" y2="245.2"/>
		
			<line fill="none" stroke="#244860" stroke-width="4.9123" stroke-linecap="round" stroke-linejoin="round" stroke-miterlimit="10" x1="1246" y1="235.3" x2="1231.2" y2="235.3"/>
		
			<line fill="none" stroke="#244860" stroke-width="4.9123" stroke-linecap="round" stroke-linejoin="round" stroke-miterlimit="10" x1="1246" y1="225.5" x2="1231.2" y2="225.5"/>
		
			<line fill="none" stroke="#244860" stroke-width="4.9123" stroke-linecap="round" stroke-linejoin="round" stroke-miterlimit="10" x1="1246" y1="215.7" x2="1231.2" y2="215.7"/>
		
			<line fill="none" stroke="#244860" stroke-width="4.9123" stroke-linecap="round" stroke-linejoin="round" stroke-miterlimit="10" x1="1246" y1="205.9" x2="1231.2" y2="205.9"/>
		
			<line fill="none" stroke="#244860" stroke-width="4.9123" stroke-linecap="round" stroke-linejoin="round" stroke-miterlimit="10" x1="1246" y1="196" x2="1231.2" y2="196"/>
		
			<line fill="none" stroke="#244860" stroke-width="4.9123" stroke-linecap="round" stroke-linejoin="round" stroke-miterlimit="10" x1="1246" y1="186.2" x2="1231.2" y2="186.2"/>
		
			<line fill="none" stroke="#244860" stroke-width="4.9123" stroke-linecap="round" stroke-linejoin="round" stroke-miterlimit="10" x1="1246" y1="176.4" x2="1231.2" y2="176.4"/>
	</g>
	<rect x="1160" y="200.9" fill="#B9DC48" width="39.3" height="39.3"/>
	<text transform="matrix(1 0 0 1 1162.4678 229.5909)" fill="#FFFFFF" font-family="'Lato-Bold'" font-size="27.0175px">64</text>
</g>
<ellipse id="label_29_" transform="matrix(0.7071 -0.7071 0.7071 0.7071 96.0133 672.9768)" fill="#F5F6F7" cx="860.4" cy="220.6" rx="122.8" ry="122.8"/>
<g id="backup-disk_4_">
	<path fill="#DBDBDB" d="M807.3,240v-72.4c0-7.3,6-13.3,13.3-13.3h79.6c7.3,0,13.3,6,13.3,13.3v106.1c0,7.3-6,13.3-13.3,13.3h-47.7"
		/>
	<path fill="#FFFFFF" d="M852.5,286.9h-31.9c-7.3,0-13.3-6-13.3-13.3V240"/>
	<path fill="none" stroke="#244860" stroke-width="4.9123" d="M913.4,273.6c0,7.3-6,13.3-13.3,13.3h-79.6c-7.3,0-13.3-6-13.3-13.3
		V167.5c0-7.3,6-13.3,13.3-13.3h79.6c7.3,0,13.3,6,13.3,13.3V273.6z"/>
	<path fill="#B9DC48" stroke="#244860" stroke-width="4.9123" d="M838.5,239.5c-8.5-6.5-14-16.8-14-28.4c0-19.8,16-35.8,35.8-35.8
		c19.8,0,35.8,16,35.8,35.8c0,19.8-16,35.8-35.8,35.8c-3.2,0-6.2-0.4-9.2-1.2"/>
	
		<line fill="none" stroke="#244860" stroke-width="4.9123" stroke-linecap="round" stroke-linejoin="round" stroke-miterlimit="10" x1="819.2" y1="164.9" x2="819.2" y2="164.9"/>
	
		<line fill="none" stroke="#244860" stroke-width="4.9123" stroke-linecap="round" stroke-linejoin="round" stroke-miterlimit="10" x1="901.5" y1="164.9" x2="901.5" y2="164.9"/>
	
		<line fill="none" stroke="#244860" stroke-width="4.9123" stroke-linecap="round" stroke-linejoin="round" stroke-miterlimit="10" x1="819.2" y1="276.3" x2="819.2" y2="276.3"/>
	
		<line fill="none" stroke="#244860" stroke-width="4.9123" stroke-linecap="round" stroke-linejoin="round" stroke-miterlimit="10" x1="901.5" y1="276.3" x2="901.5" y2="276.3"/>
	
		<polyline fill="#4FC1E9" stroke="#244860" stroke-width="4.9123" stroke-linecap="round" stroke-linejoin="round" stroke-miterlimit="10" points="
		838.6,270.5 859.5,228.1 820.9,252.9 	"/>
	
		<line fill="none" stroke="#244860" stroke-width="4.9123" stroke-linecap="round" stroke-linejoin="round" stroke-miterlimit="10" x1="808.7" y1="241.8" x2="852.5" y2="286.9"/>
	
		<line fill="none" stroke="#244860" stroke-width="4.9123" stroke-linecap="round" stroke-linejoin="round" stroke-miterlimit="10" x1="879" y1="255.5" x2="902.9" y2="255.5"/>
	
		<line fill="none" stroke="#244860" stroke-width="4.9123" stroke-linecap="round" stroke-linejoin="round" stroke-miterlimit="10" x1="879" y1="266.1" x2="902.9" y2="266.1"/>
	<path fill="#FFFFFF" stroke="#244860" stroke-width="4.9123" d="M868.3,211.1c0,4.4-3.6,8-8,8c-4.4,0-8-3.6-8-8c0-4.4,3.6-8,8-8
		C864.8,203.1,868.3,206.7,868.3,211.1z"/>
</g>
<ellipse id="label_36_" transform="matrix(0.7071 -0.7071 0.7071 0.7071 2.493 447.1988)" fill="#F5F6F7" cx="541.1" cy="220.6" rx="122.8" ry="122.8"/>
<g id="ssl-certificated_4_">
	<path fill="#DBDBDB" d="M500.9,209.1v-17.2c0-22.1,18-40.1,40.1-40.1c22.1,0,40.1,18,40.1,40.1v17.2h-12.6l1.2-3.3l0-14.7
		c0-15.8-12.9-28.7-28.7-28.7c-15.8,0-28.7,12.9-28.7,28.7v14.7l1.2,3.3L500.9,209.1z"/>
	<g>
		
			<path fill="#FFFFFF" stroke="#244860" stroke-width="4.9123" stroke-linecap="round" stroke-linejoin="round" stroke-miterlimit="10" d="
			M599.2,220.6v57.3c0,6.3-5.1,11.5-11.5,11.5h-93.3c-6.3,0-11.5-5.1-11.5-11.5v-57.3c0-6.3,5.1-11.5,11.5-11.5h93.3
			C594.1,209.1,599.2,214.3,599.2,220.6z"/>
		
			<path fill="none" stroke="#244860" stroke-width="4.9123" stroke-linecap="round" stroke-linejoin="round" stroke-miterlimit="10" d="
			M500.9,209.1v-17.2c0-22.2,18-40.1,40.1-40.1l0,0c22.2,0,40.1,18,40.1,40.1v17.2"/>
		
			<path fill="none" stroke="#244860" stroke-width="4.9123" stroke-linecap="round" stroke-linejoin="round" stroke-miterlimit="10" d="
			M512.4,205.9v-14.7c0-15.8,12.8-28.7,28.7-28.7l0,0c15.8,0,28.7,12.8,28.7,28.7v14.7"/>
	</g>
	
		<ellipse transform="matrix(0.2298 -0.9732 0.9732 0.2298 173.0093 719.4922)" fill="#B9DC48" cx="541.1" cy="250.4" rx="30.7" ry="30.7"/>
	<g>
		<path fill="#244860" d="M520.7,257.6c0-1.2-0.4-2.2-1.3-2.9c-0.8-0.7-2.3-1.4-4.4-2.1c-3.6-1.1-6.4-2.4-8.3-3.9
			c-1.9-1.5-2.8-3.5-2.8-6.1c0-2.6,1.1-4.7,3.2-6.3c2.1-1.6,4.8-2.5,8.1-2.5c3.5,0,6.3,0.9,8.4,2.6c2.1,1.8,3.1,4.1,3.1,6.9l0,0.1
			h-6.1c0-1.6-0.5-2.8-1.4-3.6c-0.9-0.8-2.3-1.3-4-1.3c-1.6,0-2.8,0.4-3.6,1.1c-0.8,0.7-1.3,1.7-1.3,2.9c0,1.1,0.5,1.9,1.4,2.6
			c0.9,0.7,2.5,1.4,4.8,2.2c3.5,1,6.1,2.3,7.9,3.8c1.8,1.6,2.7,3.7,2.7,6.2c0,2.7-1.1,4.8-3.2,6.4c-2.1,1.6-4.9,2.3-8.3,2.3
			c-3.4,0-6.3-0.8-8.7-2.5c-2.4-1.7-3.6-4.2-3.5-7.5l0-0.1h6.1c0,1.9,0.5,3.2,1.6,4.1c1.1,0.9,2.6,1.3,4.4,1.3c1.7,0,3-0.4,3.9-1.1
			C520.3,259.7,520.7,258.8,520.7,257.6z"/>
		<path fill="#244860" d="M548.1,257.6c0-1.2-0.4-2.2-1.3-2.9c-0.8-0.7-2.3-1.4-4.4-2.1c-3.6-1.1-6.4-2.4-8.3-3.9
			c-1.9-1.5-2.8-3.5-2.8-6.1c0-2.6,1.1-4.7,3.2-6.3c2.1-1.6,4.8-2.5,8.1-2.5c3.5,0,6.3,0.9,8.4,2.6c2.1,1.8,3.1,4.1,3.1,6.9l0,0.1
			h-6.1c0-1.6-0.5-2.8-1.4-3.6c-0.9-0.8-2.3-1.3-4-1.3c-1.6,0-2.8,0.4-3.6,1.1c-0.8,0.7-1.3,1.7-1.3,2.9c0,1.1,0.5,1.9,1.4,2.6
			c0.9,0.7,2.5,1.4,4.8,2.2c3.5,1,6.1,2.3,7.9,3.8c1.8,1.6,2.7,3.7,2.7,6.2c0,2.7-1.1,4.8-3.2,6.4c-2.1,1.6-4.9,2.3-8.3,2.3
			c-3.4,0-6.3-0.8-8.7-2.5c-2.4-1.7-3.6-4.2-3.5-7.5l0-0.1h6.1c0,1.9,0.5,3.2,1.6,4.1c1.1,0.9,2.6,1.3,4.4,1.3c1.7,0,3-0.4,3.9-1.1
			C547.6,259.7,548.1,258.8,548.1,257.6z"/>
		<path fill="#244860" d="M565.3,261h14.1v4.8H559v-31.4h6.3V261z"/>
	</g>
</g>
<ellipse id="label_12_" transform="matrix(0.7071 -0.7071 0.7071 0.7071 -91.0273 221.4209)" fill="#F5F6F7" cx="221.8" cy="220.6" rx="122.8" ry="122.8"/>
<g id="screen-domain_4_">
	<g>
		
			<path fill="#DBDBDB" stroke="#244860" stroke-width="4.9123" stroke-linecap="round" stroke-linejoin="round" stroke-miterlimit="10" d="
			M293,239v14.7c0,2.7-2.2,4.9-4.9,4.9H155.4c-2.7,0-4.9-2.2-4.9-4.9V239"/>
		
			<path fill="#FFFFFF" stroke="#244860" stroke-width="4.9123" stroke-linecap="round" stroke-linejoin="round" stroke-miterlimit="10" d="
			M150.5,239v-71.2c0-2.7,2.2-4.9,4.9-4.9h132.6c2.7,0,4.9,2.2,4.9,4.9V239"/>
		
			<rect x="204.6" y="258.7" fill="#D4D4D4" stroke="#244860" stroke-width="4.9123" stroke-linecap="round" stroke-linejoin="round" stroke-miterlimit="10" width="34.4" height="19.6"/>
		
			<line fill="none" stroke="#244860" stroke-width="4.9123" stroke-linecap="round" stroke-linejoin="round" stroke-miterlimit="10" x1="293" y1="239" x2="150.5" y2="239"/>
		
			<line fill="none" stroke="#244860" stroke-width="4.9123" stroke-linecap="round" stroke-linejoin="round" stroke-miterlimit="10" x1="248.8" y1="278.3" x2="194.7" y2="278.3"/>
		<path fill="#244860" d="M224.2,248.2c0,1.4-1.1,2.5-2.5,2.5c-1.4,0-2.5-1.1-2.5-2.5s1.1-2.5,2.5-2.5
			C223.1,245.8,224.2,246.9,224.2,248.2z"/>
	</g>
	<g>
		<path fill="#B9DC48" d="M192.3,203.7c0,8.1-6.6,14.7-14.7,14.7s-14.7-6.6-14.7-14.7c0-8.1,6.6-14.7,14.7-14.7
			S192.3,195.5,192.3,203.7z"/>
		<polyline fill="none" stroke="#244860" stroke-width="4.9123" points="185.6,198.5 175.3,208.9 169.5,204.6 		"/>
	</g>
	<g>
		<path fill="#244860" d="M217.2,206.2L217.2,206.2l2-9.8h4.1l-4,15.6h-3.5l-2.9-9h-0.1l-2.9,9h-3.5l-4-15.6h4.1l1.9,9.7h0.1
			l2.9-9.7h2.8L217.2,206.2z"/>
		<path fill="#244860" d="M240.3,206.2L240.3,206.2l2-9.8h4.1l-4,15.6h-3.5l-2.9-9H236l-2.9,9h-3.5l-4-15.6h4.1l1.9,9.7h0.1l2.9-9.7
			h2.8L240.3,206.2z"/>
		<path fill="#244860" d="M263.5,206.2L263.5,206.2l2-9.8h4.1l-4,15.6h-3.5l-2.9-9h-0.1l-2.9,9h-3.5l-4-15.6h4.1l1.9,9.7h0.1
			l2.9-9.7h2.8L263.5,206.2z"/>
		<path fill="#244860" d="M276,212h-4.2v-3.7h4.2V212z"/>
	</g>
</g>
</svg>
