<?xml version="1.0" encoding="utf-8"?>
<!-- Generator: Adobe Illustrator 19.0.1, SVG Export Plug-In . SVG Version: 6.00 Build 0)  -->
<svg version="1.1" id="Layer_1" xmlns="http://www.w3.org/2000/svg" xmlns:xlink="http://www.w3.org/1999/xlink" x="0px" y="0px"
	 viewBox="0 0 95.2 95.2" style="enable-background:new 0 0 95.2 95.2;" xml:space="preserve">
<style type="text/css">
	.st0{fill:#57C2E7;stroke:#57C2E7;stroke-width:0.2;}
</style>
<g>
	<path id="XMLID_219_" class="st0" d="M55.3,23.8c0,4.8,0,7.2,0,7.2h-3.1v-1.7h1.1v-5.1c0,0-0.3-1.7-4.3-1.7h-0.9v-0.9
		c0.9,0,1.7-0.5,1.7-1.1v-1.8C51.4,18.9,55.3,20,55.3,23.8z"/>
	<path id="XMLID_215_" class="st0" d="M48.1,21.6v0.9h-0.9c-4,0-4.3,1.7-4.3,1.7v5.1H44V31h-3.1c0,0,0-2.4,0-7.2
		c0-3.8,3.9-4.9,5.6-5.2v1.8c0,0.3,0.2,0.6,0.5,0.8C47.2,21.4,47.6,21.6,48.1,21.6z"/>
	<path id="XMLID_214_" class="st0" d="M46.4,8.8c0-0.6,0.7-1.1,1.7-1.1c0.5,0,0.9,0.1,1.2,0.3c0.2,0.1,0.3,0.2,0.4,0.4h-1.2
		c-0.3,0-0.6,0.1-0.7,0.3c-0.2,0.2-0.3,0.4-0.3,0.7c0,0.5,0.5,1,1.1,1h1.4v2.5h-0.6c-1.1,0-2.1-0.5-2.7-1.3v0V8.8z"/>
	<path id="XMLID_242_" class="st0" d="M48.8,12.8h32.5c1.9,0,3.5-1.6,3.5-3.5v0c0-1.9-1.6-3.5-3.5-3.5H48.8c-1.9,0-3.5,1.6-3.5,3.5
		v0C45.3,11.2,46.8,12.8,48.8,12.8z"/>
	<path id="XMLID_212_" class="st0" d="M34,22.4c0,0-0.2-1.1-2.9-1.1h-0.6v-0.6c0.3,0,0.6-0.1,0.8-0.2c0.2-0.1,0.3-0.3,0.3-0.5v-1.2
		c1.1,0.2,3.8,0.9,3.8,3.5c0,3.2,0,4.8,0,4.8h-2.1v-1.2H34V22.4z"/>
	<path id="XMLID_209_" class="st0" d="M29.3,19.9c0,0.4,0.5,0.8,1.1,0.8v0.6h-0.6c-2.7,0-2.9,1.1-2.9,1.1v3.5h0.8V27h-2.1
		c0,0,0-1.6,0-4.8c0-2.5,2.7-3.3,3.8-3.5V19.9z"/>
	<polygon id="XMLID_206_" class="st0" points="26.8,35 20.4,30.4 32.5,30.4 37.2,35 	"/>
	<path id="XMLID_203_" class="st0" d="M16.6,65.5c-4.9,0-8.8,4.5-8.8,10.1v0.5c0,5.6,4,10.1,8.8,10.1h61.9c4.9,0,8.8-4.5,8.8-10.1
		v-0.5c0-5.6-3.9-10.1-8.8-10.1H16.6z M91.3,75.5v0.6c0,7.3-4.3,13.3-9.7,13.3H13.7C8.3,89.4,4,83.5,4,76.2v-0.6
		c0-7.3,4.3-13.3,9.7-13.3h67.9C86.9,62.3,91.3,68.2,91.3,75.5z"/>
	<path id="XMLID_193_" class="st0" d="M30.9,75.8v1.5h-1.5l-1,2.4l1,0.9l-2.2,2.2l-1.1-1l-2.4,0.9v1.3h-1.5h-1.6v-1.3l-2.4-0.9
		l-1.1,1l-2.2-2.2l1-0.9l-1-2.4h-1.5v-1.5v0v-1.5h1.5l1-2.4l-1-0.9l2.2-2.2l1.1,1l2.4-0.9v-1.3h1.6h1.5v1.3l2.4,0.9l1.1-1l2.2,2.2
		l-1,0.9l1,2.4h1.5V75.8L30.9,75.8z M27.8,75.8c0-3-2.5-5.4-5.6-5.4c-3.1,0-5.6,2.4-5.6,5.4c0,3,2.5,5.4,5.6,5.4
		C25.3,81.3,27.8,78.8,27.8,75.8z"/>
	<path id="XMLID_181_" class="st0" d="M57.3,75.8v1.5h-1.5l-1,2.4l1,1l-2.2,2.2l-1.1-1l-2.4,0.9v1.3h-1.5h-1.6v-1.3l-2.4-0.9l-1.1,1
		l-2.2-2.2l1-1l-1-2.4H40v-1.5v0v-1.5h1.5l1-2.4l-1-0.9l2.2-2.2l1.1,1l2.4-0.9v-1.3h1.6h1.5v1.3l2.4,0.9l1.1-1l2.2,2.2l-1,0.9l1,2.4
		h1.5V75.8L57.3,75.8z M54.2,75.8c0-3-2.5-5.4-5.6-5.4c-3.1,0-5.6,2.4-5.6,5.4c0,3,2.5,5.4,5.6,5.4C51.7,81.3,54.2,78.8,54.2,75.8z"
		/>
	<path id="XMLID_178_" class="st0" d="M83.7,75.8v1.5h-1.5l-1,2.4l1,1L80,82.9l-1.1-1l-2.4,0.9v1.3H75h-1.6v-1.3l-2.4-0.9l-1.1,1
		l-2.2-2.2l1-1l-1-2.4h-1.5v-1.5v0v-1.5h1.5l1-2.4l-1-0.9l2.2-2.2l1.1,1l2.4-0.9v-1.3H75h1.5v1.3l2.4,0.9l1.1-1l2.2,2.2l-1,0.9
		l1,2.4h1.5V75.8L83.7,75.8z M80.6,75.8c0-3-2.5-5.4-5.6-5.4c-3.1,0-5.6,2.4-5.6,5.4c0,3,2.5,5.4,5.6,5.4
		C78.1,81.3,80.6,78.8,80.6,75.8z"/>
	<path id="XMLID_202_" class="st0" d="M12.7,9.3h17.7c1,0,1.8,0.8,1.8,1.8v0c0,1-0.8,1.8-1.8,1.8H12.7c-1,0-1.8-0.8-1.8-1.8v0
		C11,10.1,11.7,9.3,12.7,9.3z"/>
	<path id="XMLID_208_" class="st0" d="M30.2,11.5L30.2,11.5c0.8,0,1.5,0.7,1.5,1.5v6.9c0,0.8-0.7,1.5-1.5,1.5h0
		c-0.8,0-1.5-0.7-1.5-1.5v-6.9C28.8,12.1,29.4,11.5,30.2,11.5z"/>
	<path id="XMLID_210_" class="st0" d="M48.1,10.3L48.1,10.3c-0.9,0-1.7,0.7-1.7,1.7v8.9c0,0.9,0.7,1.7,1.7,1.7h0
		c0.9,0,1.7-0.7,1.7-1.7V12C49.7,11,49,10.3,48.1,10.3z"/>
	<rect id="XMLID_211_" x="28.9" y="36.2" class="st0" width="24" height="23.7"/>
</g>
</svg>
