<?xml version="1.0" encoding="utf-8"?>
<!-- Generator: Adobe Illustrator 19.1.0, SVG Export Plug-In . SVG Version: 6.00 Build 0)  -->
<svg version="1.1" xmlns="http://www.w3.org/2000/svg" xmlns:xlink="http://www.w3.org/1999/xlink" x="0px" y="0px"
	 viewBox="0 0 597.7 361" style="enable-background:new 0 0 597.7 361;" xml:space="preserve">
<style type="text/css">
	.st0{fill:#DDDDDD;}
	.st1{opacity:0.102;}
	.st2{fill:#474E5D;}
	.st3{fill:#4A4A4A;}
	.st4{fill:#9EBEC7;}
	.st5{fill:#A5ADBD;}
	.st6{fill:#EEEEEE;}
	.st7{opacity:0.1;}
	.st8{fill:#243638;}
	.st9{fill:#FFFFFF;}
	.st10{fill:none;stroke:#4A4A4A;stroke-miterlimit:10;}
	.st11{fill:#CCCCCC;}
	.st12{display:none;fill:#CCCCCC;}
	.st13{fill:#739136;}
	.st14{fill:#FAC746;}
	.st15{fill:#EB5946;}
	.st16{fill:#FE9F48;}
	.st17{fill:none;stroke:#4A4A4A;stroke-width:0.75;stroke-miterlimit:10;}
	.st18{fill:none;stroke:#4A4A4A;stroke-width:0.5;stroke-miterlimit:10;}
</style>
<g id="iMac_1_">
	<g id="Device_9_">
		<g id="Stand">
			<g>
				<polygon class="st0" points="311.5,352.9 298.3,307.1 209.6,307.1 196.4,352.9 180.3,355 180.3,359.3 327.6,359.3 327.6,355 
									"/>
			</g>
		</g>
		<g id="Shadow_2_" class="st1">
			<g>
				<polygon class="st2" points="298.3,307.1 209.6,307.1 206.8,317 301.2,317 				"/>
			</g>
		</g>
		<g id="iMac_base">
			<g>
				<path class="st3" d="M467.6,0H40.3c-5.5,0-9.9,4.4-9.9,9.9v256.4h447.1V9.9C477.5,4.4,473.1,0,467.6,0z"/>
			</g>
		</g>
		<g id="iMac_bottom_base">
			<g>
				<path class="st0" d="M30.4,266.3v31c0,5.5,4.4,9.9,9.9,9.9h427.3c5.5,0,9.9-4.4,9.9-9.9v-31H30.4z"/>
			</g>
		</g>
		<g id="Apple">
			<g>
				<circle class="st3" cx="254" cy="284.8" r="8.8"/>
			</g>
		</g>
		<g id="Screen">
			<g>
				<rect x="47.8" y="17.3" class="st4" width="412.4" height="231.6"/>
			</g>
		</g>
		<g id="Camera">
			<g>
				<circle class="st5" cx="254.6" cy="8.6" r="2.1"/>
			</g>
		</g>
		<title>browser</title>
		<desc>Created with Sketch.</desc>
		<g>
			<g>
				<g>
					<g>
						<rect x="47.8" y="16" class="st6" width="413.6" height="23.6"/>
					</g>
					<g class="st7">
						<path class="st8" d="M434.8,32c0,1.6-1.3,2.9-2.9,2.9H117.4c-1.6,0-2.9-1.3-2.9-2.9v-8.4c0-1.6,1.3-2.9,2.9-2.9H432
							c1.6,0,2.9,1.3,2.9,2.9V32z"/>
					</g>
					<path class="st3" d="M430.7,27c0,0.5-0.2,1-0.6,1.3h0l-1.8,1.9c-0.2,0.2-0.4,0.4-0.6,0.4c-0.2,0-0.4-0.2-0.6-0.4l-1.8-1.9h0
						c-0.3-0.3-0.6-0.8-0.6-1.3c0-1,0.8-1.7,1.7-1.7c0.5,0,0.9,0.2,1.3,0.6c0.3-0.4,0.8-0.6,1.3-0.6C429.9,25.2,430.7,26,430.7,27
						L430.7,27z"/>
					<polygon class="st3" points="107.1,28.6 105.7,27.2 105.7,25 104.7,25 104.7,26.2 103.3,24.8 99.4,28.6 99.4,28.9 100.4,28.9 
						100.4,31.3 102.8,31.3 102.8,29.8 103.8,29.8 103.8,31.3 106.2,31.3 106.2,28.9 107.1,28.9 					"/>
					<path class="st3" d="M92.4,27.2h-2.4l0.9-0.9c-0.5-0.5-1.1-0.7-1.7-0.7c-0.7,0-1.3,0.3-1.7,0.7c-0.5,0.5-0.7,1.1-0.7,1.7
						c0,0.7,0.3,1.3,0.7,1.7c0.5,0.5,1.1,0.7,1.7,0.7c0.7,0,1.3-0.3,1.7-0.7c0,0,0.1-0.1,0.1-0.1l0.6,0.5c-0.6,0.7-1.5,1.1-2.4,1.1
						c-1.8,0-3.3-1.5-3.3-3.3c0-1.8,1.5-3.2,3.3-3.2c0.9,0,1.7,0.4,2.3,1l1-1V27.2z"/>
					<polygon class="st3" points="78.4,28 74.7,24.3 74.7,26.6 71,26.6 71,29.4 74.7,29.4 74.7,31.7 					"/>
					<polygon class="st3" points="55,28 58.7,31.7 58.7,29.4 62.4,29.4 62.4,26.6 58.7,26.6 58.7,24.3 					"/>
					<path class="st3" d="M123.2,29.2L123.2,29.2c0,0,0.1-0.1,0.1-0.1l0,0l0,0c0.4-0.5,0.5-1,0.5-1.6c0-0.7-0.3-1.4-0.8-1.9
						c-0.5-0.5-1.2-0.8-1.9-0.8c-0.7,0-1.4,0.3-1.9,0.8c-0.5,0.5-0.8,1.2-0.8,1.9c0,0.7,0.3,1.4,0.8,1.9c0.5,0.5,1.2,0.8,1.9,0.8
						c0.6,0,1.2-0.2,1.7-0.6c0,0,0.1-0.1,0.1-0.1l0,0l0,0c0,0,0.1-0.1,0.1-0.1C123.1,29.3,123.2,29.2,123.2,29.2L123.2,29.2z
						 M122.7,28.9c-0.4,0.4-0.9,0.6-1.5,0.6c-0.6,0-1.1-0.2-1.5-0.6c-0.4-0.4-0.6-0.9-0.6-1.5c0-0.6,0.2-1.1,0.6-1.5
						c0.4-0.4,0.9-0.6,1.5-0.6c0.6,0,1.1,0.2,1.5,0.6c0.4,0.4,0.6,0.9,0.6,1.5C123.3,28,123.1,28.5,122.7,28.9z M125,30.6L125,30.6
						L125,30.6l-1-1c0,0,0,0,0,0c0,0,0,0,0,0l0,0l-0.4,0.4l-0.2,0.2c0,0,0,0,0,0c0,0,0,0,0,0l1,1c0,0,0,0,0,0c0,0,0,0,0,0l0.3-0.3
						L125,30.6C125,30.6,125,30.6,125,30.6C125,30.6,125,30.6,125,30.6z M123.6,29.5l-0.2-0.2c0,0,0,0,0,0l0,0l0,0
						c0,0-0.1,0.1-0.1,0.1c0,0-0.1,0.1-0.1,0.1l0,0l0,0c0,0,0,0,0,0l0.2,0.2l0.2-0.2L123.6,29.5z"/>
					<rect x="444.4" y="23.7" class="st3" width="7.4" height="1.5"/>
					<rect x="444.4" y="26.7" class="st3" width="7.4" height="1.5"/>
					<rect x="444.4" y="29.6" class="st3" width="7.4" height="1.5"/>
				</g>
			</g>
			<rect x="47.8" y="39.6" class="st9" width="413.6" height="218"/>
		</g>
	</g>
</g>
<g id="Layer_11">
	<g>
		<line class="st10" x1="124.9" y1="110.3" x2="103.5" y2="110.3"/>
		<g>
			<rect x="371.6" y="193.5" class="st11" width="82.5" height="3.2"/>
			<rect x="363.4" y="201.7" class="st11" width="90.8" height="3.2"/>
			<rect x="363.4" y="209.9" class="st11" width="90.8" height="3.2"/>
			<rect x="363.4" y="218.1" class="st11" width="90.8" height="3.2"/>
			<rect x="371.6" y="225.7" class="st11" width="82.5" height="3.2"/>
			<rect x="363.4" y="233.9" class="st11" width="90.8" height="3.2"/>
			<rect x="363.4" y="242.1" class="st11" width="90.8" height="3.2"/>
			<rect x="363.4" y="250.3" class="st11" width="90.8" height="3.2"/>
		</g>
		<g>
			<rect x="272.9" y="225.7" class="st11" width="82.5" height="3.2"/>
			<rect x="267.1" y="233.9" class="st11" width="88.3" height="3.2"/>
			<rect x="267.1" y="242.1" class="st11" width="88.3" height="3.2"/>
			<rect x="267.1" y="250.3" class="st11" width="88.3" height="3.2"/>
			<rect x="274.2" y="258.5" class="st12" width="82.5" height="3.2"/>
			<rect x="265.9" y="266.8" class="st12" width="90.8" height="3.2"/>
			<rect x="265.9" y="275" class="st12" width="90.8" height="3.2"/>
		</g>
		<g>
			<rect x="267.1" y="177.1" class="st11" width="88.3" height="3.2"/>
			<rect x="267.1" y="185.3" class="st11" width="88.3" height="3.2"/>
			<rect x="267.1" y="193.5" class="st11" width="32.1" height="3.2"/>
			<rect x="272.9" y="201.7" class="st11" width="82.5" height="3.2"/>
			<rect x="267.1" y="209.9" class="st11" width="88.3" height="3.2"/>
			<rect x="267.1" y="218.1" class="st11" width="88.3" height="3.2"/>
		</g>
		<g>
			<rect x="275.2" y="119.6" class="st11" width="80.2" height="3.2"/>
			<rect x="267.1" y="127.8" class="st11" width="88.3" height="3.2"/>
			<rect x="267.1" y="136" class="st11" width="88.3" height="3.2"/>
			<rect x="267.1" y="144.2" class="st11" width="88.3" height="3.2"/>
			<rect x="275.2" y="152.4" class="st11" width="80.2" height="3.2"/>
			<rect x="267.1" y="160.6" class="st11" width="88.3" height="3.2"/>
			<rect x="267.1" y="168.9" class="st11" width="88.3" height="3.2"/>
		</g>
		<rect x="263.1" y="95.4" class="st11" width="96.3" height="14.4"/>
		<g>
			<g>
				<rect x="384.7" y="172.9" class="st11" width="58.8" height="1.6"/>
				<rect x="374.1" y="176.5" class="st11" width="69.3" height="1.6"/>
				<rect x="374.1" y="180.1" class="st11" width="69.3" height="1.6"/>
			</g>
			<g>
				<line class="st10" x1="371.1" y1="168.2" x2="446.5" y2="168.2"/>
				<line class="st10" x1="371.3" y1="168.2" x2="371.3" y2="96.6"/>
				<rect x="377.2" y="133.5" class="st13" width="13.6" height="34.1"/>
				<rect x="394.2" y="126.7" class="st14" width="13.6" height="40.9"/>
				<rect x="411.3" y="116.5" class="st15" width="13.6" height="51.2"/>
				<rect x="428.4" y="106.3" class="st4" width="13.6" height="61.4"/>
			</g>
		</g>
		<g>
			<rect x="170.1" y="216.5" class="st12" width="80.2" height="3.2"/>
			<rect x="162.1" y="224.7" class="st11" width="88.3" height="3.2"/>
			<rect x="162.1" y="232.9" class="st11" width="88.2" height="3.2"/>
			<rect x="162.1" y="241.1" class="st11" width="32.1" height="3.2"/>
			<rect x="170.1" y="249.3" class="st11" width="80.2" height="3.2"/>
			<rect x="162.1" y="257.5" class="st12" width="88.3" height="3.2"/>
			<rect x="162.1" y="265.7" class="st12" width="88.3" height="3.2"/>
		</g>
		<g>
			<rect x="74.9" y="224.7" class="st11" width="80.2" height="3.2"/>
			<rect x="66.9" y="232.9" class="st11" width="88.3" height="3.2"/>
			<rect x="66.9" y="241.1" class="st11" width="88.3" height="3.2"/>
			<rect x="66.9" y="249.3" class="st11" width="88.3" height="3.2"/>
			<rect x="74.9" y="257.5" class="st12" width="80.2" height="3.2"/>
			<rect x="66.9" y="265.7" class="st12" width="88.3" height="3.2"/>
			<rect x="66.9" y="273.9" class="st12" width="88.3" height="3.2"/>
		</g>
		<rect x="62.9" y="198.9" class="st11" width="96.3" height="14.4"/>
		<g>
			<g>
				<g>
					<g>
						<g>
							<path class="st14" d="M159.2,133.5L140,159.9c-14.5-10.6-17.8-30.9-7.2-45.5c6.3-8.7,15.5-13.4,26.3-13.4V133.5z"/>
						</g>
					</g>
					<g>
						<g>
							<path class="st16" d="M159.2,133.5h32.5c0,18-14.6,32.5-32.5,32.5c-7.2,0-13.3-2-19.1-6.2L159.2,133.5z"/>
						</g>
					</g>
					<g>
						<g>
							<path class="st15" d="M159.2,133.5V101c18,0,32.5,14.6,32.5,32.5l0,0H159.2z"/>
						</g>
					</g>
				</g>
				<g>
					<g>
					</g>
					<g>
					</g>
					<g>
					</g>
				</g>
			</g>
			<g>
				<rect x="76.3" y="109.3" class="st11" width="24.9" height="1.6"/>
				<rect x="68" y="112.7" class="st11" width="33.3" height="1.6"/>
				<rect x="68" y="116.1" class="st11" width="33.3" height="1.6"/>
			</g>
			<g>
				<rect x="224.2" y="101.5" class="st11" width="24.9" height="1.6"/>
				<rect x="215.8" y="104.9" class="st11" width="33.3" height="1.6"/>
				<rect x="215.8" y="108.3" class="st11" width="33.3" height="1.6"/>
			</g>
			<g>
				<rect x="224.2" y="171.4" class="st11" width="24.9" height="1.6"/>
				<rect x="215.8" y="174.8" class="st11" width="33.3" height="1.6"/>
				<rect x="215.8" y="178.3" class="st11" width="33.3" height="1.6"/>
			</g>
			<line class="st10" x1="175.5" y1="118.4" x2="191.6" y2="102.3"/>
			<line class="st10" x1="191.6" y1="102.3" x2="212.1" y2="102.3"/>
			<line class="st10" x1="171.4" y1="155.3" x2="188.4" y2="172.2"/>
			<line class="st10" x1="188.4" y1="172.2" x2="212.1" y2="172.2"/>
			<line class="st10" x1="140.4" y1="118.4" x2="124.9" y2="110.3"/>
		</g>
		<rect x="62.9" y="50.5" class="st11" width="385.2" height="28.9"/>
	</g>
</g>
<g id="ipad_1_">
	<g>
		<g id="iPad_base_3_">
			<g>
				<path class="st3" d="M585.3,194.6H392.1c-6.8,0-12.4,5.5-12.4,12.4v141.2c0,6.8,5.5,12.4,12.4,12.4h193.2
					c6.8,0,12.4-5.5,12.4-12.4V207C597.7,200.2,592.2,194.6,585.3,194.6z"/>
			</g>
		</g>
		<g id="Screen_10_">
			<g>
				<rect x="402" y="210.7" class="st14" width="173.4" height="133.8"/>
			</g>
		</g>
		<g id="Homebutton_11_">
			<g>
				<circle class="st9" cx="586.5" cy="277.6" r="5.1"/>
			</g>
		</g>
		<g id="Speaker__x2B__cam_11_">
			<g>
				<path class="st5" d="M392.1,285c-0.7,0-1.2,0.6-1.2,1.2s0.6,1.2,1.2,1.2c0.7,0,1.2-0.6,1.2-1.2S392.8,285,392.1,285z
					 M392.1,266.5c-0.7,0-1.2,0.6-1.2,1.2v12.4c0,0.7,0.6,1.2,1.2,1.2c0.7,0,1.2-0.6,1.2-1.2v-12.4
					C393.4,267,392.8,266.5,392.1,266.5z"/>
			</g>
		</g>
		<g>
			<g>
				<g>
					<g>
						<rect x="402" y="210.7" class="st6" width="173.4" height="13.3"/>
					</g>
					<g class="st7">
						<path class="st8" d="M566.5,219.7c0,0.9-0.5,1.6-1.2,1.6H437.7c-0.6,0-1.2-0.7-1.2-1.6V215c0-0.9,0.5-1.6,1.2-1.6h127.6
							c0.6,0,1.2,0.7,1.2,1.6V219.7z"/>
					</g>
					<path class="st3" d="M563.9,216.9c0,0.3-0.1,0.5-0.3,0.7h0l-1,1.1c-0.1,0.1-0.2,0.2-0.3,0.2c-0.1,0-0.2-0.1-0.3-0.2l-1-1.1h0
						c-0.2-0.2-0.3-0.4-0.3-0.7c0-0.5,0.4-1,0.9-1c0.3,0,0.5,0.1,0.7,0.3c0.2-0.2,0.4-0.3,0.6-0.3
						C563.5,215.9,563.9,216.3,563.9,216.9L563.9,216.9z"/>
					<polygon class="st3" points="432.7,217.8 431.9,217 431.9,215.8 431.4,215.8 431.4,216.5 430.7,215.6 428.7,217.8 428.7,217.9 
						429.2,217.9 429.2,219.3 430.5,219.3 430.5,218.5 431,218.5 431,219.3 432.2,219.3 432.2,217.9 432.7,217.9 					"/>
					<path class="st3" d="M425.1,217h-1.3l0.5-0.5c-0.2-0.3-0.6-0.4-0.9-0.4c-0.3,0-0.7,0.1-0.9,0.4c-0.2,0.3-0.4,0.6-0.4,1
						c0,0.4,0.1,0.7,0.4,1c0.2,0.3,0.6,0.4,0.9,0.4c0.3,0,0.7-0.1,0.9-0.4c0,0,0,0,0.1-0.1l0.3,0.3c-0.3,0.4-0.8,0.6-1.3,0.6
						c-0.9,0-1.7-0.8-1.7-1.8c0-1,0.8-1.8,1.7-1.8c0.5,0,0.9,0.2,1.2,0.5l0.5-0.5V217z"/>
					<polygon class="st3" points="417.8,217.5 415.9,215.4 415.9,216.7 414,216.7 414,218.2 415.9,218.2 415.9,219.5 					"/>
					<polygon class="st3" points="405.8,217.5 407.7,219.5 407.7,218.2 409.6,218.2 409.6,216.7 407.7,216.7 407.7,215.4 					"/>
					<path class="st3" d="M441,218.1L441,218.1C441,218.1,441,218.1,441,218.1L441,218.1L441,218.1c0.2-0.4,0.3-0.7,0.3-1
						c0-0.4-0.1-0.8-0.4-1.1c-0.3-0.3-0.6-0.4-1-0.4c-0.4,0-0.7,0.2-1,0.4c-0.3,0.3-0.4,0.7-0.4,1.1c0,0.4,0.1,0.8,0.4,1.1
						c0.3,0.3,0.6,0.4,1,0.4c0.3,0,0.6-0.1,0.9-0.3c0,0,0,0,0.1-0.1l0,0l0,0C440.9,218.2,440.9,218.2,441,218.1
						C441,218.2,441,218.2,441,218.1L441,218.1z M440.7,218c-0.2,0.2-0.5,0.3-0.8,0.3c-0.3,0-0.6-0.1-0.8-0.3
						c-0.2-0.2-0.3-0.5-0.3-0.8c0-0.3,0.1-0.6,0.3-0.8c0.2-0.2,0.5-0.3,0.8-0.3c0.3,0,0.6,0.1,0.8,0.3c0.2,0.2,0.3,0.5,0.3,0.8
						C441,217.4,440.9,217.7,440.7,218z M441.9,218.9L441.9,218.9L441.9,218.9l-0.5-0.5c0,0,0,0,0,0c0,0,0,0,0,0l0,0l-0.2,0.2
						l-0.1,0.1c0,0,0,0,0,0c0,0,0,0,0,0l0.5,0.5c0,0,0,0,0,0c0,0,0,0,0,0l0.2-0.2L441.9,218.9C441.9,218.9,441.9,218.9,441.9,218.9
						C441.9,218.9,441.9,218.9,441.9,218.9z M441.2,218.3l-0.1-0.1c0,0,0,0,0,0l0,0l0,0c0,0,0,0.1-0.1,0.1c0,0,0,0-0.1,0.1l0,0l0,0
						c0,0,0,0,0,0l0.1,0.1L441.2,218.3L441.2,218.3z"/>
					<rect x="569" y="215.1" class="st3" width="3.8" height="0.8"/>
					<rect x="569" y="216.7" class="st3" width="3.8" height="0.8"/>
					<rect x="569" y="218.4" class="st3" width="3.8" height="0.8"/>
				</g>
			</g>
			<rect x="402" y="224" class="st9" width="173.4" height="122.3"/>
		</g>
	</g>
</g>
<g id="Layer_12">
	<g>
		<g>
			<g>
				<g>
					<g>
						<path class="st14" d="M460,274.6l-10.7,14.7c-8.1-5.9-9.9-17.3-4-25.5c3.5-4.9,8.7-7.5,14.7-7.5V274.6z"/>
					</g>
				</g>
				<g>
					<g>
						<path class="st16" d="M460,274.6h18.2c0,10.1-8.2,18.2-18.2,18.2c-4,0-7.5-1.1-10.7-3.5L460,274.6z"/>
					</g>
				</g>
				<g>
					<g>
						<path class="st15" d="M460,274.6v-18.2c10.1,0,18.2,8.2,18.2,18.2l0,0H460z"/>
					</g>
				</g>
			</g>
			<g>
				<g>
				</g>
				<g>
				</g>
				<g>
				</g>
			</g>
		</g>
		<g>
			<rect x="414.4" y="259.9" class="st11" width="13.8" height="0.9"/>
			<rect x="409.9" y="261.8" class="st11" width="18.4" height="0.9"/>
			<rect x="409.9" y="263.7" class="st11" width="18.4" height="0.9"/>
		</g>
		<g>
			<rect x="496.1" y="255.6" class="st11" width="13.8" height="0.9"/>
			<rect x="491.5" y="257.5" class="st11" width="18.4" height="0.9"/>
			<rect x="491.5" y="259.4" class="st11" width="18.4" height="0.9"/>
		</g>
		<g>
			<rect x="496.1" y="294.3" class="st11" width="13.8" height="0.9"/>
			<rect x="491.5" y="296.2" class="st11" width="18.4" height="0.9"/>
			<rect x="491.5" y="298" class="st11" width="18.4" height="0.9"/>
		</g>
		<line class="st17" x1="469.2" y1="265" x2="478.1" y2="256.1"/>
		<line class="st17" x1="478.1" y1="256.1" x2="489.4" y2="256.1"/>
		<line class="st17" x1="467" y1="285.4" x2="476.3" y2="294.7"/>
		<line class="st17" x1="476.3" y1="294.7" x2="489.4" y2="294.7"/>
		<line class="st17" x1="449.8" y1="265" x2="441.3" y2="260.5"/>
		<line class="st17" x1="441.3" y1="260.5" x2="429.4" y2="260.5"/>
		<rect x="407" y="227.5" class="st11" width="163.4" height="16"/>
		<rect x="407" y="309.4" class="st11" width="53.2" height="8"/>
		<rect x="517.3" y="252.3" class="st11" width="53.2" height="8"/>
		<g>
			<rect x="413.7" y="323.7" class="st11" width="44.3" height="1.8"/>
			<rect x="409.2" y="328.2" class="st11" width="48.7" height="1.8"/>
			<rect x="409.2" y="332.7" class="st11" width="48.7" height="1.8"/>
			<rect x="409.2" y="337.3" class="st11" width="48.7" height="1.8"/>
		</g>
		<g>
			<rect x="523.9" y="265.7" class="st11" width="44.3" height="1.8"/>
			<rect x="519.5" y="270.2" class="st11" width="48.7" height="1.8"/>
			<rect x="519.5" y="274.7" class="st11" width="48.7" height="1.8"/>
			<rect x="519.5" y="279.3" class="st11" width="48.7" height="1.8"/>
			<rect x="523.9" y="283.8" class="st11" width="44.3" height="1.8"/>
		</g>
		<g>
			<rect x="461.8" y="323.7" class="st11" width="48.7" height="1.8"/>
			<rect x="461.8" y="328.2" class="st11" width="48.7" height="1.8"/>
			<rect x="461.8" y="332.7" class="st11" width="17.7" height="1.8"/>
			<rect x="466.2" y="337.3" class="st11" width="44.3" height="1.8"/>
		</g>
		<g>
			<rect x="531.2" y="335" class="st11" width="32.5" height="0.9"/>
			<rect x="525.4" y="337" class="st11" width="38.3" height="0.9"/>
			<rect x="525.4" y="339" class="st11" width="38.3" height="0.9"/>
		</g>
		<g>
			<line class="st10" x1="523.7" y1="332.5" x2="565.3" y2="332.5"/>
			<line class="st10" x1="523.8" y1="332.5" x2="523.8" y2="292.9"/>
			<rect x="527.1" y="313.3" class="st13" width="7.5" height="18.8"/>
			<rect x="536.5" y="309.5" class="st14" width="7.5" height="22.6"/>
			<rect x="545.9" y="303.9" class="st15" width="7.5" height="28.2"/>
			<rect x="555.3" y="298.2" class="st4" width="7.5" height="33.9"/>
		</g>
	</g>
</g>
<g id="iPhone_1_">
	<g id="Device_5_">
		<g id="iPhone_5_base_1_">
			<g>
				<path class="st3" d="M59.4,207.4H12.4c-6.8,0-12.4,5.5-12.4,12.4v128.8c0,6.8,5.5,12.4,12.4,12.4h47.1c6.8,0,12.4-5.5,12.4-12.4
					V219.8C71.8,212.9,66.3,207.4,59.4,207.4z"/>
			</g>
		</g>
		<g id="screen_1_">
			<g>
				<rect x="5" y="229.7" class="st16" width="61.9" height="109"/>
			</g>
		</g>
		<g id="Homebutton_5_">
			<g>
				<circle class="st0" cx="35.9" cy="349.8" r="5.1"/>
			</g>
		</g>
		<g id="Speaker__x2B__cam_5_">
			<g>
				<path class="st5" d="M26.6,218.5c-0.7,0-1.2,0.6-1.2,1.2c0,0.7,0.6,1.2,1.2,1.2s1.2-0.6,1.2-1.2
					C27.9,219.1,27.3,218.5,26.6,218.5z M45.2,218.5H32.8c-0.7,0-1.2,0.6-1.2,1.2c0,0.7,0.6,1.2,1.2,1.2h12.4c0.7,0,1.2-0.6,1.2-1.2
					C46.4,219.1,45.9,218.5,45.2,218.5z"/>
			</g>
		</g>
	</g>
	<g>
		<g>
			<g>
				<g>
					<rect x="5" y="229.7" class="st6" width="61.9" height="8.3"/>
				</g>
				<g class="st7">
					<path class="st8" d="M55.9,235.3c0,0.6-0.2,1-0.4,1H12.9c-0.2,0-0.4-0.5-0.4-1v-2.9c0-0.6,0.2-1,0.4-1h42.6
						c0.2,0,0.4,0.5,0.4,1V235.3z"/>
				</g>
				<polygon class="st3" points="7.3,233.9 8.5,235.2 8.5,234.4 9.7,234.4 9.7,233.4 8.5,233.4 8.5,232.6 				"/>
				<path class="st3" d="M16.3,234.3L16.3,234.3C16.3,234.3,16.3,234.3,16.3,234.3L16.3,234.3L16.3,234.3c0.2-0.2,0.2-0.4,0.2-0.6
					c0-0.3-0.1-0.5-0.3-0.7c-0.2-0.2-0.4-0.3-0.6-0.3c-0.2,0-0.5,0.1-0.6,0.3c-0.2,0.2-0.3,0.4-0.3,0.7c0,0.3,0.1,0.5,0.3,0.7
					c0.2,0.2,0.4,0.3,0.6,0.3c0.2,0,0.4-0.1,0.5-0.2C16.2,234.4,16.2,234.4,16.3,234.3L16.3,234.3L16.3,234.3
					C16.2,234.4,16.2,234.4,16.3,234.3C16.3,234.3,16.3,234.3,16.3,234.3L16.3,234.3z M16.1,234.2c-0.1,0.1-0.3,0.2-0.5,0.2
					c-0.2,0-0.4-0.1-0.5-0.2c-0.1-0.1-0.2-0.3-0.2-0.5c0-0.2,0.1-0.4,0.2-0.5c0.1-0.1,0.3-0.2,0.5-0.2c0.2,0,0.4,0.1,0.5,0.2
					c0.1,0.1,0.2,0.3,0.2,0.5C16.3,233.9,16.2,234.1,16.1,234.2z M16.8,234.8L16.8,234.8L16.8,234.8l-0.3-0.3c0,0,0,0,0,0s0,0,0,0
					l0,0l-0.1,0.1l-0.1,0.1c0,0,0,0,0,0c0,0,0,0,0,0l0.3,0.3c0,0,0,0,0,0c0,0,0,0,0,0l0.1-0.1L16.8,234.8
					C16.9,234.8,16.9,234.8,16.8,234.8C16.9,234.8,16.9,234.8,16.8,234.8z M16.4,234.4L16.4,234.4C16.4,234.4,16.4,234.4,16.4,234.4
					L16.4,234.4L16.4,234.4c-0.1,0-0.1,0-0.1,0c0,0,0,0,0,0l0,0l0,0c0,0,0,0,0,0l0.1,0.1L16.4,234.4L16.4,234.4z"/>
				<rect x="59.9" y="232.4" class="st3" width="2.4" height="0.5"/>
				<rect x="59.9" y="233.4" class="st3" width="2.4" height="0.5"/>
				<rect x="59.9" y="234.5" class="st3" width="2.4" height="0.5"/>
			</g>
		</g>
		<rect x="5" y="238" class="st9" width="61.9" height="100.7"/>
	</g>
</g>
<g id="Layer_13">
	<g>
		<g>
			<g>
				<g>
					<g>
						<path class="st14" d="M36.1,278.9l-10.7,14.7c-8.1-5.9-9.9-17.3-4-25.5c3.5-4.9,8.7-7.5,14.7-7.5V278.9z"/>
					</g>
				</g>
				<g>
					<g>
						<path class="st16" d="M36.1,278.9h18.2c0,10.1-8.2,18.2-18.2,18.2c-4,0-7.5-1.1-10.7-3.5L36.1,278.9z"/>
					</g>
				</g>
				<g>
					<g>
						<path class="st15" d="M36.1,278.9v-18.2c10.1,0,18.2,8.2,18.2,18.2l0,0H36.1z"/>
					</g>
				</g>
			</g>
			<g>
				<g>
				</g>
				<g>
				</g>
				<g>
				</g>
			</g>
		</g>
		<g>
			<rect x="11.5" y="303.3" class="st11" width="13.8" height="0.9"/>
			<rect x="6.9" y="305.1" class="st11" width="18.4" height="0.9"/>
			<rect x="6.9" y="307" class="st11" width="18.4" height="0.9"/>
		</g>
		<g>
			<rect x="31.3" y="303.3" class="st11" width="13.8" height="0.9"/>
			<rect x="26.7" y="305.1" class="st11" width="18.4" height="0.9"/>
			<rect x="26.7" y="307" class="st11" width="18.4" height="0.9"/>
		</g>
		<g>
			<rect x="51.1" y="303.3" class="st11" width="13.8" height="0.9"/>
			<rect x="46.6" y="305.1" class="st11" width="18.4" height="0.9"/>
			<rect x="46.6" y="307" class="st11" width="18.4" height="0.9"/>
		</g>
		<rect x="11.7" y="240.8" class="st11" width="50" height="6"/>
		<rect x="16.7" y="249.4" class="st11" width="40" height="6"/>
		<rect x="9.1" y="311.7" class="st11" width="53.2" height="8"/>
		<g>
			<rect x="15.7" y="326" class="st11" width="44.3" height="1.8"/>
			<rect x="11.3" y="330.5" class="st11" width="48.7" height="1.8"/>
			<rect x="11.3" y="335" class="st11" width="48.7" height="1.8"/>
		</g>
	</g>
	<g>
		<line class="st18" x1="20.2" y1="286" x2="15.1" y2="291.2"/>
		<line class="st18" x1="15.1" y1="291.2" x2="15.1" y2="301.4"/>
		<line class="st18" x1="35.7" y1="291.2" x2="35.7" y2="301.4"/>
		<line class="st18" x1="45.6" y1="275.2" x2="56.8" y2="286.4"/>
		<line class="st18" x1="56.8" y1="286.4" x2="56.8" y2="301.4"/>
	</g>
</g>
</svg>
