<?xml version="1.0" encoding="utf-8"?>
<!-- Generator: Adobe Illustrator 16.0.0, SVG Export Plug-In . SVG Version: 6.00 Build 0)  -->
<!DOCTYPE svg PUBLIC "-//W3C//DTD SVG 1.1//EN" "http://www.w3.org/Graphics/SVG/1.1/DTD/svg11.dtd">
<svg version="1.1" id="Layer_1" xmlns="http://www.w3.org/2000/svg" xmlns:xlink="http://www.w3.org/1999/xlink" x="0px" y="0px"
	 width="362px" height="362px" viewBox="0 0 362 362" enable-background="new 0 0 362 362" xml:space="preserve">
<g>
	<g>
		<path fill="#E6E7E8" d="M155.504,257.386c0,0,1.355-2.063,3.024-4.61c1.661-2.56,3.021-7.32,3.021-10.655v-20.08h54.584v20.077
			c0,3.335,1.35,8.099,3.023,10.656l3.015,4.609L155.504,257.386L155.504,257.386z"/>
		<g>
			<path fill="#34424B" stroke="#34424B" stroke-miterlimit="10" d="M225.279,259.064h-72.896l4.735-7.213
				c1.487-2.289,2.746-6.748,2.746-9.734v-21.758h57.947v21.758c0,3.003,1.26,7.458,2.746,9.734L225.279,259.064z M158.62,255.704
				h60.44l-1.313-2.011c-1.849-2.822-3.297-7.909-3.297-11.576v-18.395h-51.219v18.395c0,3.648-1.445,8.732-3.293,11.572
				L158.62,255.704z"/>
		</g>
		<rect x="161.55" y="222.04" opacity="0.2" fill="#231F20" enable-background="new    " width="54.584" height="17.671"/>
		<path fill="#FFFFFF" d="M295.921,227.688H81.236c-3.326,0-6.027-2.699-6.027-6.033V104.997c0-3.333,2.701-6.036,6.027-6.036
			h214.685c3.335,0,6.039,2.703,6.039,6.036v116.655C301.96,224.988,299.256,227.688,295.921,227.688z"/>
		<g>
			<path fill="#34424B" stroke="#34424B" stroke-miterlimit="10" d="M295.921,229.369H81.236c-4.252,0-7.71-3.461-7.71-7.717
				V104.997c0-4.256,3.458-7.718,7.71-7.718h214.685c4.259,0,7.72,3.462,7.72,7.718v116.655
				C303.641,225.908,300.18,229.369,295.921,229.369z M81.236,100.643c-2.396,0-4.345,1.954-4.345,4.354v116.655
				c0,2.397,1.948,4.352,4.345,4.352h214.685c2.402,0,4.354-1.951,4.354-4.352V104.997c0-2.4-1.951-4.354-4.354-4.354H81.236z"/>
		</g>
		<rect x="87.272" y="111.034" fill="#FFFFFF" width="202.623" height="92.278"/>
		<g>
			<path fill="#34424B" stroke="#34424B" stroke-miterlimit="10" d="M291.577,204.997H85.591v-95.646h205.986V204.997z
				 M88.955,201.633h199.257v-88.916H88.955V201.633z"/>
		</g>
		<polygon fill="#7ACA7A" points="168.517,153.4 191.85,137.758 215.184,153.4 		"/>
		<polygon fill="#629DD1" points="139.071,153.4 162.626,126.128 185.736,153.4 		"/>
		<polygon fill="#D1D3D4" points="199.313,153.4 222.867,126.128 245.979,153.4 		"/>
		<rect x="102.663" y="160.086" fill="#F1F2F2" width="178.879" height="6.719"/>
		<rect x="125.433" y="174.799" fill="#F1F2F2" width="100.776" height="3.687"/>
		<rect x="125.433" y="184.707" fill="#F1F2F2" width="100.776" height="3.688"/>
	</g>
	<g>
		<path fill="#F1F2F2" stroke="#34424B" stroke-width="4" stroke-miterlimit="10" d="M354.654,252.949
			c0,3.205-2.594,5.799-5.797,5.799H228.262c-3.201,0-5.8-2.593-5.8-5.799v-75.168c0-3.203,2.599-5.797,5.8-5.797h120.598
			c3.203,0,5.799,2.594,5.799,5.797v75.168H354.654L354.654,252.949z"/>
		<g>
			<path fill="#34424B" stroke="#34424B" stroke-miterlimit="10" d="M348.857,260.327H228.262c-4.066,0-7.375-3.31-7.375-7.378
				v-75.168c0-4.067,3.309-7.374,7.375-7.374h120.598c4.065,0,7.377,3.307,7.377,7.374v75.168
				C356.234,257.018,352.925,260.327,348.857,260.327z M228.262,173.563c-2.326,0-4.222,1.891-4.222,4.219v75.168
				c0,2.327,1.896,4.223,4.222,4.223h120.598c2.326,0,4.223-1.896,4.223-4.223v-75.168c0-2.328-1.896-4.219-4.223-4.219H228.262z"/>
		</g>
		<g>
			<rect x="346.801" y="207.271" fill="#34424B" width="3.152" height="16.188"/>
		</g>
		<rect x="234.833" y="182.09" fill="#FFFFFF" width="108.304" height="66.553"/>
		<g>
			<path fill="#34424B" stroke="#34424B" stroke-miterlimit="10" d="M344.713,250.221H233.256v-69.708h111.457V250.221z
				 M236.411,247.063h105.146v-63.396H236.411V247.063z"/>
		</g>
		<rect x="242.751" y="193.339" fill="#D1D3D4" width="26.921" height="26.917"/>
		<rect x="276.4" y="193.339" fill="#629DD1" width="26.918" height="26.915"/>
		<rect x="310.05" y="193.337" fill="#E6E7E8" width="26.919" height="26.917"/>
		<rect x="242.751" y="223.912" fill="#F1F2F2" width="91.552" height="3.053"/>
		<rect x="242.751" y="232.273" fill="#F1F2F2" width="91.552" height="3.054"/>
		<rect x="242.751" y="240.639" fill="#F1F2F2" width="47.108" height="3.049"/>
	</g>
	<g>
		<path fill="#FFFFFF" d="M198.799,258.189c0,2.33-1.886,4.213-4.214,4.213h-39.221c-2.326,0-4.213-1.883-4.213-4.213v-72.14
			c0-2.327,1.887-4.213,4.213-4.213h39.221c2.328,0,4.214,1.886,4.214,4.213V258.189z"/>
		<g>
			<path fill="#34424B" stroke="#34424B" stroke-width="0.75" stroke-miterlimit="10" d="M194.585,264.084h-39.221
				c-3.25,0-5.895-2.645-5.895-5.895v-72.14c0-3.251,2.645-5.895,5.895-5.895h39.221c3.252,0,5.896,2.644,5.896,5.895v72.14
				C200.48,261.439,197.837,264.084,194.585,264.084z M155.364,183.521c-1.396,0-2.531,1.137-2.531,2.528v72.14
				c0,1.396,1.136,2.526,2.531,2.526h39.221c1.396,0,2.531-1.132,2.531-2.526v-72.14c0-1.396-1.136-2.528-2.531-2.528H155.364
				L155.364,183.521z"/>
		</g>
		<rect x="157.711" y="191.078" fill="#FFFFFF" width="34.529" height="61.297"/>
		<g>
			<path fill="#34424B" stroke="#34424B" stroke-width="0.25" stroke-miterlimit="10" d="M193.922,254.057h-37.894v-64.66h37.894
				V254.057z M159.392,250.693h31.165V192.76h-31.165V250.693z"/>
		</g>
		<g>
			<rect x="169.961" y="184.843" fill="#34424B" width="10.029" height="3.365"/>
		</g>
		<rect x="162.444" y="196.807" fill="#E6E7E8" width="5.639" height="5.644"/>
		<rect x="172.153" y="196.807" fill="#E6E7E8" width="5.645" height="5.644"/>
		<rect x="181.868" y="196.807" fill="#E6E7E8" width="5.641" height="5.644"/>
		<rect x="162.444" y="207.773" fill="#E6E7E8" width="5.639" height="5.645"/>
		<rect x="172.153" y="207.773" fill="#E6E7E8" width="5.645" height="5.645"/>
		<rect x="181.868" y="207.773" fill="#7ACA7A" width="5.641" height="5.645"/>
		<rect x="162.444" y="218.74" fill="#629DD1" width="5.639" height="5.64"/>
		<rect x="172.153" y="218.74" fill="#E6E7E8" width="5.645" height="5.64"/>
		<rect x="181.868" y="218.74" fill="#E6E7E8" width="5.641" height="5.64"/>
		<rect x="162.444" y="229.706" fill="#E6E7E8" width="5.639" height="5.644"/>
		<rect x="172.153" y="229.706" fill="#E6E7E8" width="5.645" height="5.644"/>
		<rect x="181.868" y="229.706" fill="#E6E7E8" width="5.641" height="5.644"/>
		<rect x="162.444" y="240.675" fill="#E6E7E8" width="5.639" height="5.64"/>
	</g>
	<g>
		<rect x="302.495" y="244.109" fill="#D1D3D4" width="21.517" height="2.604"/>
	</g>
	<g>
		<path fill="#F7F8FC" stroke="#34424B" stroke-width="4" stroke-linejoin="round" stroke-miterlimit="10" d="M104.776,207.182
			l-0.021-0.021v-0.019h-0.021l-12.041-10.271l-8.479-7.23c-0.998-0.848-2.303-1.961-3.609-3.078l-11.287-9.625l-9.279-7.916
			c-1.986-1.691-5.236-1.691-7.219,0l-9.281,7.916l-11.287,9.625c-1.307,1.117-2.613,2.23-3.607,3.078l-8.479,7.23L8.122,207.145
			H8.089v0.028l-0.012,0.009h0.012v55.799h96.666v-55.799H104.776L104.776,207.182z"/>
		
			<rect x="14.173" y="175.085" fill="#FFFFFF" stroke="#34424B" stroke-width="4" stroke-miterlimit="10" width="84.508" height="73.828"/>
		<g>
			<path fill="#7ACA7A" stroke="#34424B" stroke-width="4" stroke-linejoin="bevel" stroke-miterlimit="10" d="M104.675,207.251
				l-12.023,10.254l-8.479,7.233c-0.994,0.845-2.301,1.962-3.607,3.076l-8.443,7.203H40.657l-8.443-7.203
				c-1.307-1.114-2.613-2.231-3.609-3.076l-8.477-7.233L8.104,207.251H8.052v55.729h96.752v-55.729H104.675z"/>
			<g>
				<path fill="#C3E8FA" stroke="#34424B" stroke-width="4" stroke-miterlimit="10" d="M8.896,262.159l11.232-9.57l8.477-7.291
					c0.996-0.854,2.303-1.979,3.609-3.104l8.396-7.217"/>
				<path fill="#34424B" stroke="#34424B" stroke-width="4" stroke-miterlimit="10" d="M72.169,234.979l8.396,7.217
					c1.307,1.125,2.613,2.25,3.607,3.104l8.479,7.291l12.09,10.392"/>
			</g>
		</g>
		<circle fill="#7ACA7A" cx="56.427" cy="204.521" r="20.75"/>
		<g>
			<path fill="none" stroke="#34424B" stroke-width="4" stroke-miterlimit="10" d="M65.423,216.339
				c-2.4,1.815-5.391,2.896-8.633,2.896c-7.912,0-14.324-6.414-14.324-14.322c0-7.91,6.412-14.324,14.324-14.324
				c4.465,0,8.455,2.045,11.082,5.25"/>
			<path fill="none" stroke="#34424B" stroke-width="3" stroke-miterlimit="10" d="M61.304,198.227c0,0-5.883-1.343-9.291,1.856
				c-4.098,3.853-3.211,9.84,0.621,10.942c3.768,1.084,5.211-1.811,5.65-3.071C58.726,206.689,61.304,198.227,61.304,198.227z"/>
			<path fill="none" stroke="#34424B" stroke-width="3" stroke-miterlimit="10" d="M60.894,199.671c0,0-2.521,8.841-0.775,10.427
				c5.109,4.646,16.879-7.435,5.42-16.568"/>
		</g>
	</g>
	<g>
		<g>
			<path fill="#34424B" stroke="#34424B" stroke-width="3" stroke-miterlimit="10" d="M106.507,229.275h-1.889v-14.383
				c0-7.088,5.766-12.854,12.854-12.854v1.889c-6.048,0-10.966,4.921-10.966,10.968L106.507,229.275L106.507,229.275z"/>
		</g>
		<g>
			<g>
				<path fill="#34424B" stroke="#34424B" stroke-width="3" stroke-miterlimit="10" d="M130.323,229.275h-1.889v-14.383
					c0-6.047-4.919-10.968-10.965-10.968v-1.889c7.088,0,12.854,5.769,12.854,12.854V229.275z"/>
			</g>
			<path fill="#629DD1" d="M134.954,261.083c0,0.752-0.597,1.349-1.35,1.349h-32.737c-0.742,0-1.353-0.597-1.353-1.349v-32.741
				c0-0.75,0.612-1.351,1.353-1.351h32.737c0.753,0,1.35,0.601,1.35,1.351V261.083z"/>
			<path fill="#629DD1" d="M133.691,226.991h-16.454v35.438h16.454c0.703,0,1.263-0.6,1.263-1.351v-32.74
				C134.954,227.592,134.395,226.991,133.691,226.991z"/>
			<path fill="#34424B" d="M120.199,244.623c0.892-0.811,1.462-1.969,1.462-3.268c0-2.443-1.982-4.426-4.424-4.426
				c-2.445,0-4.427,1.979-4.427,4.426c0,1.338,0.608,2.521,1.547,3.336c0,0.007-0.001,0.014-0.001,0.02l-0.417,4.484
				c0,1.822,1.476,3.297,3.298,3.297c1.818,0,3.296-1.475,3.296-3.297l-0.327-4.484C120.206,244.68,120.2,244.652,120.199,244.623z"
				/>
			<g>
				<path fill="none" stroke="#34424B" stroke-width="4" stroke-miterlimit="10" d="M133.604,263.374h-32.737
					c-1.267,0-2.297-1.028-2.297-2.291v-32.741c0-1.265,1.03-2.294,2.297-2.294h32.737c1.264,0,2.292,1.029,2.292,2.294v32.741
					C135.897,262.346,134.868,263.374,133.604,263.374z"/>
			</g>
		</g>
	</g>
</g>
</svg>
