<?xml version="1.0" encoding="utf-8"?>
<!-- Generator: Adobe Illustrator 13.0.2, SVG Export Plug-In . SVG Version: 6.00 Build 14948)  -->
<!DOCTYPE svg PUBLIC "-//W3C//DTD SVG 1.0//EN" "http://www.w3.org/TR/2001/REC-SVG-20010904/DTD/svg10.dtd">
<svg version="1.0" id="Layer_1" xmlns="http://www.w3.org/2000/svg" xmlns:xlink="http://www.w3.org/1999/xlink" x="0px" y="0px"
	 width="500px" height="250px" viewBox="0 0 500 250" style="enable-background:new 0 0 500 250;" xml:space="preserve">
<rect style="fill:#FFFFFF;" width="500" height="250"/>
<g>
	<path style="fill:#5B5C5C;" d="M202.316,39.908c0,0.612,0.169,1.18,0.421,1.692v-3.38
		C202.485,38.736,202.316,39.292,202.316,39.908z"/>
	<rect x="191.277" y="37.492" style="fill:#5B5C5C;" width="1.336" height="4.46"/>
	<rect x="308.913" y="37.492" style="fill:#5B5C5C;" width="1.344" height="4.46"/>
	<path style="fill:#5B5C5C;" d="M381.681,39.908h-63.352V50.98h39.654v4.468h-39.654v10.28h67.188v135.72h-67.188v6.848
		c0,8.433-6.855,15.288-15.298,15.288h-25.03v11.137c0,8.432,6.832,15.279,15.278,15.279h88.396c8.449,0,15.299-6.848,15.299-15.279
		V55.216C396.978,46.764,390.128,39.908,381.681,39.908z M371.601,57.308c-2.158,0-3.911-1.748-3.911-3.904
		c0-2.16,1.753-3.916,3.911-3.916c2.16,0,3.921,1.756,3.921,3.916C375.521,55.56,373.761,57.308,371.601,57.308z M337.489,234.896
		c-5.376,0-9.771-4.375-9.771-9.763c0-5.392,4.395-9.76,9.771-9.76s9.752,4.368,9.752,9.76
		C347.241,230.521,342.865,234.896,337.489,234.896z"/>
	<path style="fill:#5B5C5C;" d="M181.669,204.416v-6.848H114.48V61.844h67.188V51.56h-39.656v-4.464h39.656V36.028h-63.36
		c-8.456,0-15.284,6.856-15.284,15.304v179.5c0,8.432,6.828,15.279,15.284,15.279h88.396c8.443,0,15.296-6.848,15.296-15.279
		v-11.137h-25.043C188.501,219.695,181.669,212.848,181.669,204.416z M162.512,231.008c-5.388,0-9.764-4.367-9.764-9.76
		s4.376-9.76,9.764-9.76c5.372,0,9.752,4.367,9.752,9.76S167.884,231.008,162.512,231.008z"/>
	<path style="fill:#5B5C5C;" d="M294.962,0h-88.397c-8.46,0-15.287,6.852-15.287,15.304v11.112v11.076h1.336v4.46h-1.336v10.284
		v135.716v6.848c0,8.433,6.827,15.296,15.287,15.296h25.04h38.316h25.039c8.447,0,15.297-6.863,15.297-15.296v-6.848V52.236V41.952
		h-1.344v-4.46h1.344V26.416V15.304C310.257,6.852,303.409,0,294.962,0z M284.88,9.576c2.16,0,3.903,1.756,3.903,3.912
		c0,2.164-1.743,3.916-3.903,3.916c-2.159,0-3.92-1.752-3.92-3.916C280.962,11.332,282.721,9.576,284.88,9.576z M230.269,11.068
		h40.988v4.468h-40.988V11.068L230.269,11.068z M250.77,193.136c-4.685,0-8.487-3.792-8.487-8.479c0-4.688,3.804-8.496,8.487-8.496
		c4.688,0,8.496,3.808,8.496,8.496C259.266,189.344,255.458,193.136,250.77,193.136z M298.786,26.416v25.82v109.3h-17.399h-11.466
		h-38.316h-11.46h-17.407v-109.3V41.6c-0.252-0.512-0.421-1.08-0.421-1.692c0-0.616,0.169-1.172,0.421-1.688V26.416v-0.604h96.048
		V26.416L298.786,26.416z"/>
</g>
</svg>
