<svg id="Layer_1" data-name="Layer 1" xmlns="http://www.w3.org/2000/svg" viewBox="0 0 400 400"><defs><style>.cls-1{opacity:0.15;}.cls-16,.cls-2,.cls-4{fill:#205081;}.cls-3{fill:#fff;}.cls-13,.cls-4,.cls-7{opacity:0.2;}.cls-5{fill:#205182;opacity:0.2;isolation:isolate;}.cls-5,.cls-6{stroke:#205182;}.cls-14,.cls-15,.cls-17,.cls-5,.cls-8{stroke-linejoin:round;}.cls-14,.cls-15,.cls-5,.cls-6,.cls-8{stroke-width:4px;}.cls-6{fill:#50c2c3;stroke-miterlimit:10;}.cls-8{fill:none;}.cls-14,.cls-15,.cls-17,.cls-8{stroke:#205081;}.cls-14,.cls-17,.cls-8{stroke-linecap:round;}.cls-9{fill:#205181;}.cls-10{fill:#c6c9d9;}.cls-11{fill:#c6c9d8;}.cls-12{fill:#1f5180;}.cls-13{fill:#1d5080;}.cls-14{fill:#f5f5f5;}.cls-15{fill:#c1cad4;}.cls-16{opacity:0.4;}.cls-17{fill:#ffbd17;stroke-width:4.67px;}.cls-18{fill:#4ac6c6;}</style></defs><title>enterprise</title><g class="cls-1"><path class="cls-2" d="M330.3,293.5H251.3a1.6,1.6,0,1,1,0-3.2h78.9A1.6,1.6,0,1,1,330.3,293.5Z"/><path class="cls-2" d="M88.9,177H55.8a6.3,6.3,0,0,1-6.3-6.3V140a6.3,6.3,0,0,1,6.3-6.3H88.9a6.3,6.3,0,0,1,6.3,6.3v30.7A6.3,6.3,0,0,1,88.9,177ZM55.8,136.9a3.1,3.1,0,0,0-3.1,3.1v30.7a3.1,3.1,0,0,0,3.1,3.1H88.9a3.1,3.1,0,0,0,3.1-3.1V140a3.1,3.1,0,0,0-3.1-3.1H55.8Z"/><circle class="cls-2" cx="72.3" cy="151.8" r="4.7"/><path class="cls-2" d="M74,163.6H70.6a2.4,2.4,0,0,1-2.3-2.9l1.6-6.5h4.7l1.6,6.5A2.4,2.4,0,0,1,74,163.6Z"/><path class="cls-2" d="M84.1,136.9H60.5a1.6,1.6,0,0,1-1.6-1.6v-9.4a8.7,8.7,0,0,1,8.7-8.7h9.4a8.7,8.7,0,0,1,8.7,8.7v9.4A1.6,1.6,0,0,1,84.1,136.9Zm-22-3.2H82.5v-7.8a5.5,5.5,0,0,0-5.5-5.5H67.6a5.5,5.5,0,0,0-5.5,5.5v7.8Z"/><rect class="cls-3" x="135.6" y="191.1" width="51" height="42.94" rx="5.4" ry="5.4"/><path class="cls-2" d="M181.3,235.7H141a7,7,0,0,1-7-7V196.5a7,7,0,0,1,7-7h40.3a7,7,0,0,1,7,7v32.2A7,7,0,0,1,181.3,235.7ZM141,192.7a3.8,3.8,0,0,0-3.8,3.8v32.2a3.8,3.8,0,0,0,3.8,3.8h40.3a3.8,3.8,0,0,0,3.8-3.8V196.5a3.8,3.8,0,0,0-3.8-3.8H141Z"/><rect class="cls-3" x="124.6" y="180" width="51" height="42.94" rx="5.4" ry="5.4"/><path class="cls-2" d="M170.2,224.6H129.9a7,7,0,0,1-7-7V185.4a7,7,0,0,1,7-7h40.3a7,7,0,0,1,7,7v32.2A7,7,0,0,1,170.2,224.6Zm-40.3-42.9a3.8,3.8,0,0,0-3.8,3.8v32.2a3.8,3.8,0,0,0,3.8,3.8h40.3a3.8,3.8,0,0,0,3.8-3.8V185.4a3.8,3.8,0,0,0-3.8-3.8H129.9Z"/><path class="cls-2" d="M175.6,190.4h-51a1.6,1.6,0,1,1,0-3.2h51A1.6,1.6,0,1,1,175.6,190.4Z"/><path class="cls-2" d="M167.7,199.8H132.6a1.6,1.6,0,0,1,0-3.2h35.1A1.6,1.6,0,0,1,167.7,199.8Z"/><path class="cls-2" d="M167.7,206.5H132.6a1.6,1.6,0,0,1,0-3.2h35.1A1.6,1.6,0,0,1,167.7,206.5Z"/><path class="cls-2" d="M167.7,213.4H132.6a1.6,1.6,0,0,1,0-3.2h35.1A1.6,1.6,0,0,1,167.7,213.4Z"/><path class="cls-3" d="M174.7,308.3H141a2.6,2.6,0,0,1-2.6-2.6V264.4a2.6,2.6,0,0,1,2.6-2.6h24.8a2.6,2.6,0,0,1,1.8.8l8.8,8.8a2.6,2.6,0,0,1,.8,1.8v32.6A2.6,2.6,0,0,1,174.7,308.3Z"/><path class="cls-2" d="M174.7,309.9H141a4.2,4.2,0,0,1-4.2-4.2V264.4a4.2,4.2,0,0,1,4.2-4.2h24.8a4.2,4.2,0,0,1,3,1.2l8.8,8.8a4.2,4.2,0,0,1,1.2,3v32.6A4.2,4.2,0,0,1,174.7,309.9ZM141,263.4a1,1,0,0,0-1,1v41.4a1,1,0,0,0,1,1h33.6a1,1,0,0,0,1-1V273.2a1,1,0,0,0-.3-0.7l-8.8-8.8a1,1,0,0,0-.7-0.3H141Z"/><path class="cls-3" d="M184.6,296.4H151a2.6,2.6,0,0,1-2.6-2.6V252.4a2.6,2.6,0,0,1,2.6-2.6h24.8a2.6,2.6,0,0,1,1.8.8l8.8,8.8a2.6,2.6,0,0,1,.8,1.8v32.6A2.6,2.6,0,0,1,184.6,296.4Z"/><path class="cls-2" d="M184.6,298H151a4.2,4.2,0,0,1-4.2-4.2V252.4a4.2,4.2,0,0,1,4.2-4.2h24.8a4.2,4.2,0,0,1,3,1.2l8.8,8.8a4.2,4.2,0,0,1,1.2,3v32.6A4.2,4.2,0,0,1,184.6,298ZM151,251.4a1,1,0,0,0-1,1v41.4a1,1,0,0,0,1,1h33.6a1,1,0,0,0,1-1V261.2a1,1,0,0,0-.3-0.7l-8.8-8.8a1,1,0,0,0-.7-0.3H151Z"/><polygon class="cls-2" points="177.7 260.2 177.7 252.7 185.1 260.2 177.7 260.2"/><path class="cls-2" d="M179.3,256.6l2,2h-2v-2m-2.2-6.4a1,1,0,0,0-1,1v9.5a1,1,0,0,0,1,1h9.5a1,1,0,0,0,.7-1.7l-9.5-9.5a1,1,0,0,0-.7-0.3h0Z"/><circle class="cls-3" cx="273.5" cy="109.6" r="17.2"/><path class="cls-2" d="M273.5,128.4a18.8,18.8,0,1,1,18.8-18.8A18.8,18.8,0,0,1,273.5,128.4Zm0-34.4a15.6,15.6,0,1,0,15.6,15.6A15.6,15.6,0,0,0,273.5,94Z"/><path class="cls-2" d="M270.4,103.5a2.8,2.8,0,1,1-2.8-2.8A2.8,2.8,0,0,1,270.4,103.5Zm9.1-2.8a2.8,2.8,0,1,0,2.8,2.8A2.8,2.8,0,0,0,279.5,100.7Z"/><path class="cls-2" d="M273.2,118.5a7.8,7.8,0,0,0,7.6-6.3,1.3,1.3,0,0,0-1.3-1.5H266.9a1.3,1.3,0,0,0-1.3,1.5A7.8,7.8,0,0,0,273.2,118.5Z"/><path class="cls-3" d="M174.4,41.8a4,4,0,0,0-3.9-4.2H151.2V36.2s5.7-3.8,5.7-9.7-0.9-7.9-3.6-7.9a4.6,4.6,0,0,0-4.8,3.6c-1.8,8.5-6,9.7-9.6,14.5h0a9.3,9.3,0,0,1-7.5,3.7H119V64.3h7a9.3,9.3,0,0,1,7.2,3.5h0a9.3,9.3,0,0,0,7.2,3.5h24.9a4.2,4.2,0,0,0,0-8.4h1.4a4.2,4.2,0,1,0,0-8.4h1.4a4.2,4.2,0,0,0,0-8.4h2.2A4,4,0,0,0,174.4,41.8Z"/><path class="cls-2" d="M165.4,72.8H140.5a10.9,10.9,0,0,1-8.5-4h0a7.7,7.7,0,0,0-6-2.9h-7a1.6,1.6,0,0,1-1.6-1.6V40.4a1.6,1.6,0,0,1,1.6-1.6h12.4a7.8,7.8,0,0,0,6.2-3.1,32.9,32.9,0,0,1,3.5-3.8c2.5-2.4,4.6-4.5,5.8-10a6.2,6.2,0,0,1,6.4-4.9c5.2,0,5.2,6.9,5.2,9.6,0,4.4-2.6,7.7-4.5,9.5h16.5a5.5,5.5,0,0,1,5.5,5.8,5.7,5.7,0,0,1-2.9,5.2,5.8,5.8,0,0,1-1.6,8.1,5.8,5.8,0,0,1-1.4,8.4A5.8,5.8,0,0,1,165.4,72.8Zm-31-6.1h0a7.7,7.7,0,0,0,6,2.9h24.9a2.6,2.6,0,1,0,0-5.2,1.6,1.6,0,1,1,0-3.2h1.4a2.6,2.6,0,1,0,0-5.2,1.6,1.6,0,1,1,0-3.2h1.4a2.6,2.6,0,0,0,0-5.2,1.6,1.6,0,1,1,0-3.2h2.2a2.6,2.6,0,0,0,0-5.2H151.2a1.6,1.6,0,0,1-1.6-1.6V36.2a1.6,1.6,0,0,1,.7-1.3s5-3.4,5-8.3-1.4-6.3-2-6.3a3,3,0,0,0-3.3,2.3c-1.4,6.4-4.1,9.1-6.7,11.7a30.3,30.3,0,0,0-3.2,3.5,11,11,0,0,1-8.8,4.4H120.6V62.7H126A10.9,10.9,0,0,1,134.5,66.7Zm16.7-30.5h0Z"/><rect class="cls-3" x="119" y="40.4" width="8.5" height="23.88"/><path class="cls-2" d="M127.5,65.9H119a1.6,1.6,0,0,1-1.6-1.6V40.4a1.6,1.6,0,0,1,1.6-1.6h8.5a1.6,1.6,0,0,1,1.6,1.6V64.3A1.6,1.6,0,0,1,127.5,65.9Zm-6.9-3.2h5.3V42h-5.3V62.7Z"/><path class="cls-3" d="M397.6,190a3,3,0,0,0-3-3.2H380v-1.1s4.3-2.8,4.3-7.3-0.7-6-2.7-6a3.5,3.5,0,0,0-3.7,2.7c-1.4,6.5-4.5,7.3-7.2,11h0a7.1,7.1,0,0,1-5.7,2.8h-9.4V207H361a7,7,0,0,1,5.5,2.6h0a7,7,0,0,0,5.5,2.6h18.9a3.2,3.2,0,0,0,0-6.4h1.1a3.2,3.2,0,1,0,0-6.4h1.1a3.2,3.2,0,0,0,0-6.4h1.7A3,3,0,0,0,397.6,190Z"/><path class="cls-2" d="M390.8,213.9H372a8.6,8.6,0,0,1-6.7-3.2h0a5.4,5.4,0,0,0-4.2-2h-5.3a1.6,1.6,0,0,1-1.6-1.6V189a1.6,1.6,0,0,1,1.6-1.6h9.4a5.5,5.5,0,0,0,4.4-2.2h0a25.1,25.1,0,0,1,2.7-3,12.4,12.4,0,0,0,4.3-7.4,5.1,5.1,0,0,1,5.2-4c4.3,0,4.3,5.5,4.3,7.6a10.1,10.1,0,0,1-2.9,6.8h11.6a4.6,4.6,0,0,1,4.6,4.8,4.8,4.8,0,0,1-2.1,4.1,4.8,4.8,0,0,1-1.2,6.1,4.8,4.8,0,0,1-1.1,6.4A4.8,4.8,0,0,1,390.8,213.9Zm-23.1-5.3h0a5.4,5.4,0,0,0,4.2,2h18.9a1.6,1.6,0,0,0,0-3.1,1.6,1.6,0,1,1,0-3.2h1.1a1.6,1.6,0,0,0,0-3.1,1.6,1.6,0,1,1,0-3.2h1.1a1.6,1.6,0,0,0,0-3.1,1.6,1.6,0,1,1,0-3.2h1.7a1.6,1.6,0,0,0,0-3.1H380a1.6,1.6,0,0,1-1.6-1.6v-1.1a1.6,1.6,0,0,1,.7-1.3s3.6-2.4,3.6-6c0-1.6-.1-4.4-1.1-4.4a1.9,1.9,0,0,0-2.1,1.4,15.6,15.6,0,0,1-5.2,9,22.4,22.4,0,0,0-2.3,2.6h0a8.7,8.7,0,0,1-6.9,3.5h-7.8v14.8H361A8.6,8.6,0,0,1,367.7,208.6ZM380,185.8h0Z"/><rect class="cls-3" x="355.7" y="189" width="6.4" height="18.06"/><path class="cls-2" d="M362.1,208.6h-6.4a1.6,1.6,0,0,1-1.6-1.6V189a1.6,1.6,0,0,1,1.6-1.6h6.4a1.6,1.6,0,0,1,1.6,1.6V207A1.6,1.6,0,0,1,362.1,208.6Zm-4.8-3.2h3.2V190.6h-3.2v14.8Z"/><path class="cls-3" d="M118.1,234a3.1,3.1,0,0,0-3-3.3H100v-1.1s4.4-2.9,4.4-7.5-0.7-6.2-2.8-6.2a3.6,3.6,0,0,0-3.8,2.8c-1.4,6.6-4.6,7.5-7.4,11.3h0a7.3,7.3,0,0,1-5.8,2.9H75v18.6h5.5a7.2,7.2,0,0,1,5.6,2.7h0a7.2,7.2,0,0,0,5.6,2.7h19.4a3.3,3.3,0,1,0,0-6.5h1.1a3.3,3.3,0,0,0,0-6.5h1.1a3.3,3.3,0,1,0,0-6.5H115A3.1,3.1,0,0,0,118.1,234Z"/><path class="cls-2" d="M111.1,258.4H91.7a8.8,8.8,0,0,1-6.9-3.3h0a5.6,5.6,0,0,0-4.4-2.1H75a1.6,1.6,0,0,1-1.6-1.6V232.9a1.6,1.6,0,0,1,1.6-1.6h9.6a5.7,5.7,0,0,0,4.5-2.2h0a25.9,25.9,0,0,1,2.8-3,12.9,12.9,0,0,0,4.4-7.6,5.2,5.2,0,0,1,5.3-4.1c4.4,0,4.4,5.7,4.4,7.8a10.4,10.4,0,0,1-3,7h12a4.7,4.7,0,0,1,4.7,4.9,4.8,4.8,0,0,1-2.1,4.2,4.9,4.9,0,0,1-1.3,6.2,4.9,4.9,0,0,1-1.1,6.5A4.9,4.9,0,0,1,111.1,258.4Zm-23.8-5.3h0a5.6,5.6,0,0,0,4.4,2.1h19.4a1.7,1.7,0,0,0,0-3.3,1.6,1.6,0,0,1,0-3.2h1.1a1.7,1.7,0,1,0,0-3.3,1.6,1.6,0,1,1,0-3.2h1.1a1.7,1.7,0,0,0,0-3.3,1.6,1.6,0,1,1,0-3.2H115a1.7,1.7,0,0,0,0-3.3H100a1.6,1.6,0,0,1-1.6-1.6v-1.1a1.6,1.6,0,0,1,.7-1.3s3.7-2.5,3.7-6.2c0-1.7-.2-4.6-1.2-4.6a2,2,0,0,0-2.2,1.5,16,16,0,0,1-5.3,9.3,23.1,23.1,0,0,0-2.4,2.6h0a8.9,8.9,0,0,1-7.1,3.6h-8v15.4h3.9A8.8,8.8,0,0,1,87.3,253.1ZM100,229.6h0Z"/><rect class="cls-3" x="75" y="232.9" width="6.6" height="18.57"/><path class="cls-2" d="M81.6,253.1H75a1.6,1.6,0,0,1-1.6-1.6V232.9a1.6,1.6,0,0,1,1.6-1.6h6.6a1.6,1.6,0,0,1,1.6,1.6v18.6A1.6,1.6,0,0,1,81.6,253.1Zm-5-3.2H80V234.5H76.6v15.4Z"/><circle class="cls-2" cx="235.9" cy="85.6" r="7.6"/><circle class="cls-3" cx="235.9" cy="51" r="21.5"/><path class="cls-2" d="M235.9,74.2A23.1,23.1,0,1,1,259,51,23.2,23.2,0,0,1,235.9,74.2Zm0-43A19.9,19.9,0,1,0,255.8,51,19.9,19.9,0,0,0,235.9,31.1Z"/><path class="cls-2" d="M239.5,74.2a1.6,1.6,0,0,1-1.6-1.6V58.3h-4V72.6a1.6,1.6,0,0,1-3.2,0V58.3h-1.5a4.7,4.7,0,0,1-4.7-4.7V53.1a4.7,4.7,0,0,1,9.5,0v2h4v-2a4.7,4.7,0,0,1,9.5,0v0.5a4.7,4.7,0,0,1-4.7,4.7h-1.5V72.6A1.6,1.6,0,0,1,239.5,74.2Zm1.6-19.1h1.5a1.5,1.5,0,0,0,1.5-1.5V53.1a1.5,1.5,0,0,0-3,0v2Zm-12-3.6a1.5,1.5,0,0,0-1.5,1.5v0.5a1.5,1.5,0,0,0,1.5,1.5h1.5v-2A1.5,1.5,0,0,0,229.1,51.5Z"/><rect class="cls-3" x="226" y="72.6" width="19.7" height="13.04"/><path class="cls-2" d="M245.7,87.2H226a1.6,1.6,0,0,1-1.6-1.6v-13A1.6,1.6,0,0,1,226,71h19.7a1.6,1.6,0,0,1,1.6,1.6v13A1.6,1.6,0,0,1,245.7,87.2ZM227.6,84h16.5V74.2H227.6V84Z"/><path class="cls-2" d="M337.1,102.1H308.8a8,8,0,0,1-8-8V85.5a4.8,4.8,0,0,0-4.8-4.8H226a1.6,1.6,0,1,1,0-3.2h69.9a8,8,0,0,1,8,8v8.6a4.8,4.8,0,0,0,4.8,4.8h28.3A1.6,1.6,0,1,1,337.1,102.1Z"/><circle class="cls-2" cx="235.9" cy="393.7" r="5.8"/><circle class="cls-3" cx="235.9" cy="367.4" r="16.4"/><path class="cls-2" d="M235.9,385.4a18,18,0,1,1,18-18A18,18,0,0,1,235.9,385.4Zm0-32.8a14.8,14.8,0,1,0,14.8,14.8A14.8,14.8,0,0,0,235.9,352.6Z"/><path class="cls-2" d="M238.6,385.4a1.6,1.6,0,0,1-1.6-1.6V373.3h-2.3v10.5a1.6,1.6,0,1,1-3.2,0V373.3h-0.8a4,4,0,0,1-4-4v-0.4a4,4,0,1,1,8,0v1.2H237v-1.2a4,4,0,1,1,8,0v0.4a4,4,0,0,1-4,4h-0.8v10.5A1.6,1.6,0,0,1,238.6,385.4Zm1.6-15.3H241a0.8,0.8,0,0,0,.8-0.8v-0.4a0.8,0.8,0,1,0-1.6,0v1.2Zm-9.5-1.9a0.8,0.8,0,0,0-.8.8v0.4a0.8,0.8,0,0,0,.8.8h0.8v-1.2A0.8,0.8,0,0,0,230.7,368.1Z"/><rect class="cls-3" x="228.4" y="383.8" width="15" height="9.94"/><path class="cls-2" d="M243.4,395.3h-15a1.6,1.6,0,0,1-1.6-1.6v-9.9a1.6,1.6,0,0,1,1.6-1.6h15a1.6,1.6,0,0,1,1.6,1.6v9.9A1.6,1.6,0,0,1,243.4,395.3ZM230,392.1h11.8v-6.7H230v6.7Z"/><path class="cls-2" d="M243.4,390.3h-15a1.6,1.6,0,0,1,0-3.2h15A1.6,1.6,0,0,1,243.4,390.3Z"/><path class="cls-2" d="M160,117.4H132.2a3.9,3.9,0,0,1-3.9-3.9V94.9a3.9,3.9,0,0,1,3.9-3.9H160a3.9,3.9,0,0,1,3.9,3.9v18.6A3.9,3.9,0,0,1,160,117.4ZM132.2,94.2a0.7,0.7,0,0,0-.7.7v18.6a0.7,0.7,0,0,0,.7.7H160a0.7,0.7,0,0,0,.7-0.7V94.9a0.7,0.7,0,0,0-.7-0.7H132.2Z"/><path class="cls-2" d="M146.1,106.5a1.6,1.6,0,0,1-.9-0.3L130.4,95.9a1.6,1.6,0,1,1,1.8-2.6l13.8,9.7,13.8-9.7a1.6,1.6,0,1,1,1.8,2.6L147,106.2A1.6,1.6,0,0,1,146.1,106.5Z"/><path class="cls-2" d="M246.9,321.6h-22a6,6,0,0,1-6-6v-44a6,6,0,0,1,6-6h22a6,6,0,0,1,6,6v44A6,6,0,0,1,246.9,321.6Zm-22-52.8a2.8,2.8,0,0,0-2.8,2.8v44a2.8,2.8,0,0,0,2.8,2.8h22a2.8,2.8,0,0,0,2.8-2.8v-44a2.8,2.8,0,0,0-2.8-2.8h-22Z"/><rect class="cls-2" x="231.5" y="271.5" width="8.8" height="2.2"/><circle class="cls-2" cx="235.9" cy="313.3" r="2.2"/><path class="cls-2" d="M251.3,280.1H221.2a1.6,1.6,0,1,1,0-3.2h30.2A1.6,1.6,0,1,1,251.3,280.1Z"/><path class="cls-3" d="M127.5,145.4c0-9,8.3-16.3,18.6-16.3s18.6,7.3,18.6,16.3-5.9,13.9-14,15.7v5.2l-6.3-4.7C134.9,160.9,127.5,153.9,127.5,145.4Z"/><path class="cls-2" d="M150.7,167.9a1.6,1.6,0,0,1-1-.3l-5.9-4.4c-10.3-1-18-8.6-18-17.8s9.1-17.9,20.2-17.9,20.2,8,20.2,17.9c0,7.8-5.7,14.6-14,17v3.9a1.6,1.6,0,0,1-.9,1.4Zm-4.7-37.2c-9.4,0-17,6.6-17,14.7s6.8,13.9,15.5,14.6l0.8,0.3,3.7,2.8v-2a1.6,1.6,0,0,1,1.3-1.6c7.5-1.7,12.7-7.5,12.7-14.2S155.5,130.7,146.1,130.7Z"/><path class="cls-3" d="M336.3,289.6c0-9,8.3-16.3,18.6-16.3s18.6,7.3,18.6,16.3-5.9,13.9-14,15.7v5.2l-6.3-4.7C343.8,305,336.3,298.1,336.3,289.6Z"/><path class="cls-2" d="M359.6,312.1a1.6,1.6,0,0,1-1-.3l-5.9-4.4c-10.3-1-18-8.6-18-17.8s9.1-17.9,20.2-17.9,20.2,8,20.2,17.9c0,7.8-5.7,14.6-14,17v3.9a1.6,1.6,0,0,1-.9,1.4Zm-4.7-37.2c-9.4,0-17,6.6-17,14.7s6.8,13.9,15.5,14.6l0.8,0.3,3.7,2.8v-2a1.6,1.6,0,0,1,1.3-1.6c7.5-1.7,12.7-7.5,12.7-14.2S364.3,274.9,354.9,274.9Z"/><path class="cls-3" d="M18.8,285.6c0-6.8,6.3-12.3,14-12.3s14,5.5,14,12.3-4.5,10.5-10.5,11.9v3.9l-4.8-3.6C24.4,297.3,18.8,292,18.8,285.6Z"/><path class="cls-2" d="M36.3,303a1.6,1.6,0,0,1-1-.3L31,299.4c-7.9-.8-13.8-6.7-13.8-13.8s7-13.9,15.7-13.9,15.7,6.2,15.7,13.9c0,6-4.3,11.2-10.5,13.1v2.7a1.6,1.6,0,0,1-.9,1.4Zm-3.5-28.1c-6.9,0-12.4,4.8-12.4,10.7s5,10.1,11.3,10.6l0.8,0.3,2.2,1.6v-0.7a1.6,1.6,0,0,1,1.3-1.6c5.5-1.2,9.3-5.5,9.3-10.3S39.7,274.9,32.8,274.9Z"/><circle class="cls-3" cx="34.3" cy="130.5" r="10.4"/><path class="cls-2" d="M34.3,142.5a12.1,12.1,0,1,1,12.1-12.1A12.1,12.1,0,0,1,34.3,142.5Zm0-20.9a8.8,8.8,0,1,0,8.8,8.8A8.8,8.8,0,0,0,34.3,121.6Z"/><path class="cls-2" d="M39.5,132.1H29.1a1.6,1.6,0,0,1,0-3.2H39.5A1.6,1.6,0,0,1,39.5,132.1Z"/><path class="cls-2" d="M34.3,137.3a1.6,1.6,0,0,1-1.6-1.6V125.3a1.6,1.6,0,1,1,3.2,0v10.4A1.6,1.6,0,0,1,34.3,137.3Z"/><circle class="cls-3" cx="384" cy="242.2" r="10.4"/><path class="cls-2" d="M384,254.2A12.1,12.1,0,1,1,396,242.2,12.1,12.1,0,0,1,384,254.2Zm0-20.9a8.8,8.8,0,1,0,8.8,8.8A8.8,8.8,0,0,0,384,233.3Z"/><path class="cls-2" d="M389.2,243.8H378.8a1.6,1.6,0,1,1,0-3.2h10.4A1.6,1.6,0,1,1,389.2,243.8Z"/><path class="cls-2" d="M384,249a1.6,1.6,0,0,1-1.6-1.6V237a1.6,1.6,0,0,1,3.2,0v10.4A1.6,1.6,0,0,1,384,249Z"/><circle class="cls-3" cx="339.9" cy="160.7" r="10.4"/><path class="cls-2" d="M339.9,172.7a12.1,12.1,0,1,1,12.1-12.1A12.1,12.1,0,0,1,339.9,172.7Zm0-20.9a8.8,8.8,0,1,0,8.8,8.8A8.8,8.8,0,0,0,339.9,151.8Z"/><path class="cls-2" d="M345.1,162.3H334.6a1.6,1.6,0,0,1,0-3.2h10.4A1.6,1.6,0,0,1,345.1,162.3Z"/><path class="cls-2" d="M339.9,167.5a1.6,1.6,0,0,1-1.6-1.6V155.5a1.6,1.6,0,1,1,3.2,0v10.4A1.6,1.6,0,0,1,339.9,167.5Z"/><path class="cls-2" d="M211.1,173.6H181.7a1.6,1.6,0,0,1-1.1-.4l-5-4.5a1.6,1.6,0,0,1,0-2.4l5-4.5a1.6,1.6,0,0,1,1.1-.4h29.4a1.6,1.6,0,0,1,1.6,1.6v9A1.6,1.6,0,0,1,211.1,173.6Zm-28.8-3.2h27.2v-5.7H182.3l-3.2,2.9Z"/><circle class="cls-2" cx="204.7" cy="167.5" r="1.6"/><path class="cls-2" d="M214.6,173.6h-3.5a1.6,1.6,0,0,1-1.6-1.6v-9a1.6,1.6,0,0,1,1.6-1.6h3.5A6.1,6.1,0,0,1,214.6,173.6Zm-1.9-3.2h1.9a2.9,2.9,0,0,0,0-5.7h-1.9v5.7Z"/><path class="cls-2" d="M208.5,331.1H176.6a1.6,1.6,0,0,1-1.1-.4l-5.5-4.9a1.6,1.6,0,0,1,0-2.4l5.5-4.9a1.6,1.6,0,0,1,1.1-.4h31.9a1.6,1.6,0,0,1,1.6,1.6v9.7A1.6,1.6,0,0,1,208.5,331.1Zm-31.3-3.2h29.7v-6.5H177.2l-3.7,3.3Z"/><circle class="cls-2" cx="201.6" cy="324.7" r="1.7"/><path class="cls-2" d="M212.3,331.1h-3.8a1.6,1.6,0,0,1-1.6-1.6v-9.7a1.6,1.6,0,0,1,1.6-1.6h3.8A6.5,6.5,0,1,1,212.3,331.1Zm-2.2-3.2h2.2a3.3,3.3,0,1,0,0-6.5h-2.2v6.5Z"/><path class="cls-3" d="M325.5,326.3a8.8,8.8,0,0,0-8.3-8.8,12,12,0,0,0-23.8,1.7,8,8,0,0,0,1.6,15.9h22.5A8.8,8.8,0,0,0,325.5,326.3Z"/><path class="cls-2" d="M317.5,336.8H295a9.6,9.6,0,0,1-3.1-18.8,13.7,13.7,0,0,1,26.6-1.9,10.4,10.4,0,0,1-.5,20.6h-0.5Zm-12.1-27.3a10.4,10.4,0,0,0-10.4,9.9,1.6,1.6,0,0,1-1.3,1.5,6.4,6.4,0,0,0,1.3,12.7h22.4a7.2,7.2,0,0,0-.2-14.4,1.6,1.6,0,0,1-1.5-1.3A10.5,10.5,0,0,0,305.4,309.4Z"/><path class="cls-3" d="M89.5,347.7a4.6,4.6,0,0,0-4.3-4.6,6.2,6.2,0,0,0-12.3.9,4.1,4.1,0,0,0,.8,8.2H85.3A4.6,4.6,0,0,0,89.5,347.7Z"/><path class="cls-2" d="M85.3,353.8H73.7a5.8,5.8,0,0,1-2.3-11,7.8,7.8,0,0,1,15-1.1,6.2,6.2,0,0,1-.7,12.1H85.3Zm-6.2-14.1a4.6,4.6,0,0,0-4.6,4.4,1.6,1.6,0,0,1-1.3,1.5,2.5,2.5,0,0,0,.5,5H85.2a3,3,0,0,0-.1-5.9,1.6,1.6,0,0,1-1.5-1.3A4.6,4.6,0,0,0,79.1,339.7Z"/><circle class="cls-3" cx="262" cy="181" r="29.7"/><path class="cls-2" d="M262,212.3A31.3,31.3,0,1,1,293.4,181,31.4,31.4,0,0,1,262,212.3Zm0-59.4A28.1,28.1,0,1,0,290.1,181,28.1,28.1,0,0,0,262,152.9Z"/><path class="cls-2" d="M262,203.7a22.6,22.6,0,1,1,10.4-2.5,1.6,1.6,0,1,1-1.5-2.9,19.4,19.4,0,1,0-9,2.2A1.6,1.6,0,0,1,262,203.7Z"/><path class="cls-2" d="M264.4,182.5l-1.2-16.4h-2.5l-1.2,17.3a3.9,3.9,0,0,0,.7,1.8l9.8,8.2,1.8-1.8Z"/><polygon class="cls-2" points="262 198.3 262 205.8 267 202.1 262 198.3"/><path class="cls-3" d="M303.3,256.3l9.5,9.5a2.2,2.2,0,0,1,0,3.1l-1.3,1.3a2.2,2.2,0,0,1-3.1,0l-9.4-9.5"/><path class="cls-2" d="M310,272.4h0a3.8,3.8,0,0,1-2.7-1.1l-9.4-9.5a1.6,1.6,0,0,1,2.3-2.3l9.4,9.5,0.4,0.2h0l0.4-.2,1.3-1.3a0.6,0.6,0,0,0,0-.8l-9.5-9.5a1.6,1.6,0,0,1,2.3-2.3l9.5,9.5a3.8,3.8,0,0,1,0,5.4l-1.3,1.3A3.8,3.8,0,0,1,310,272.4Z"/><circle class="cls-3" cx="285.7" cy="243.1" r="22"/><path class="cls-2" d="M285.7,266.7a23.7,23.7,0,1,1,23.7-23.7A23.7,23.7,0,0,1,285.7,266.7Zm0-44.1a20.4,20.4,0,1,0,20.4,20.4A20.5,20.5,0,0,0,285.7,222.6Z"/><circle class="cls-3" cx="285.7" cy="243.1" r="13"/><path class="cls-2" d="M285.7,257.7a14.6,14.6,0,1,1,14.6-14.6A14.6,14.6,0,0,1,285.7,257.7Zm0-26a11.4,11.4,0,1,0,11.4,11.4A11.4,11.4,0,0,0,285.7,231.7Z"/><path class="cls-2" d="M306.2,368a1.6,1.6,0,0,1-1.6-1.6V335.2a1.6,1.6,0,0,1,3.2,0v31.2A1.6,1.6,0,0,1,306.2,368Z"/><path class="cls-2" d="M303,69H248.9a1.6,1.6,0,1,1,0-3.2H303a1.6,1.6,0,0,0,1.6-1.6V31.7a1.6,1.6,0,0,1,3.2,0V64.2A4.8,4.8,0,0,1,303,69Z"/><path class="cls-2" d="M339.8,151.8a1.6,1.6,0,0,1-1.6-1.6l-0.6-17a1.6,1.6,0,0,1,1.6-1.7,1.6,1.6,0,0,1,1.7,1.6l0.6,17a1.6,1.6,0,0,1-1.6,1.7h-0.1Z"/><rect class="cls-3" x="178.6" y="103.9" width="44" height="44.04" rx="3.7" ry="3.7"/><path class="cls-2" d="M219,149.5H182.3a5.3,5.3,0,0,1-5.3-5.3V107.5a5.3,5.3,0,0,1,5.3-5.3H219a5.3,5.3,0,0,1,5.3,5.3v36.7A5.3,5.3,0,0,1,219,149.5Zm-36.7-44a2.1,2.1,0,0,0-2.1,2.1v36.7a2.1,2.1,0,0,0,2.1,2.1H219a2.1,2.1,0,0,0,2.1-2.1V107.5a2.1,2.1,0,0,0-2.1-2.1H182.3Z"/><circle class="cls-3" cx="188.7" cy="139.6" r="2.8"/><path class="cls-2" d="M188.7,144a4.4,4.4,0,1,1,4.4-4.4A4.4,4.4,0,0,1,188.7,144Zm0-5.5a1.1,1.1,0,1,0,1.1,1.1A1.1,1.1,0,0,0,188.7,138.5Z"/><circle class="cls-3" cx="212.6" cy="139.6" r="2.8"/><path class="cls-2" d="M212.6,144a4.4,4.4,0,1,1,4.4-4.4A4.4,4.4,0,0,1,212.6,144Zm0-5.5a1.1,1.1,0,1,0,1.1,1.1A1.1,1.1,0,0,0,212.6,138.5Z"/><circle class="cls-3" cx="200.6" cy="139.6" r="2.8"/><path class="cls-2" d="M200.6,144a4.4,4.4,0,1,1,4.4-4.4A4.4,4.4,0,0,1,200.6,144Zm0-5.5a1.1,1.1,0,1,0,1.1,1.1A1.1,1.1,0,0,0,200.6,138.5Z"/><path class="cls-2" d="M188.7,134.8a1.6,1.6,0,0,1-1.6-1.6v-9.2a1.6,1.6,0,1,1,3.2,0v9.2A1.6,1.6,0,0,1,188.7,134.8Z"/><path class="cls-2" d="M188.7,122a1.6,1.6,0,0,1-1.6-1.6v-9.2a1.6,1.6,0,1,1,3.2,0v9.2A1.6,1.6,0,0,1,188.7,122Z"/><path class="cls-2" d="M200.6,134.8a1.6,1.6,0,0,1-1.6-1.6V118.5a1.6,1.6,0,1,1,3.2,0v14.7A1.6,1.6,0,0,1,200.6,134.8Z"/><path class="cls-2" d="M200.6,116.5a1.6,1.6,0,0,1-1.6-1.6v-3.7a1.6,1.6,0,1,1,3.2,0v3.7A1.6,1.6,0,0,1,200.6,116.5Z"/><path class="cls-2" d="M212.6,134.8a1.6,1.6,0,0,1-1.6-1.6v-5.5a1.6,1.6,0,1,1,3.2,0v5.5A1.6,1.6,0,0,1,212.6,134.8Z"/><path class="cls-2" d="M212.6,125.7a1.6,1.6,0,0,1-1.6-1.6V111.2a1.6,1.6,0,1,1,3.2,0v12.8A1.6,1.6,0,0,1,212.6,125.7Z"/><rect class="cls-2" x="197" y="114.9" width="7.3" height="3.67" rx="1.8" ry="1.8"/><rect class="cls-2" x="208.9" y="124.1" width="7.3" height="3.67" rx="1.8" ry="1.8"/><rect class="cls-2" x="185" y="120.4" width="7.3" height="3.67" rx="1.8" ry="1.8"/><path class="cls-2" d="M354.9,200.5H304.7a6.4,6.4,0,0,1-6.4-6.4V143.3a4.8,4.8,0,0,0-4.8-4.8H256.7a8,8,0,0,1-8-8v-1.8a4.8,4.8,0,0,0-4.8-4.8H222.7a1.6,1.6,0,0,1,0-3.2h21.1a8,8,0,0,1,8,8v1.8a4.8,4.8,0,0,0,4.8,4.8h36.8a8,8,0,0,1,8,8v50.7a3.2,3.2,0,0,0,3.2,3.2h50.2A1.6,1.6,0,0,1,354.9,200.5Z"/><circle class="cls-2" cx="237.2" cy="143.7" r="2.2"/><circle class="cls-2" cx="69.5" cy="313.5" r="2.2"/><circle class="cls-2" cx="199.4" cy="309.9" r="2.2"/><circle class="cls-2" cx="111" cy="126.6" r="2.8"/><circle class="cls-2" cx="303.1" cy="114.2" r="3.5"/><circle class="cls-2" cx="316.3" cy="147.1" r="2.1"/><circle class="cls-2" cx="110.7" cy="69.4" r="1.8"/><circle class="cls-2" cx="131.3" cy="247.3" r="2.1"/><circle class="cls-2" cx="215.3" cy="347.7" r="3.7"/><circle class="cls-2" cx="271.9" cy="315.5" r="2.1"/><circle class="cls-2" cx="335" cy="258.9" r="2.1"/><circle class="cls-2" cx="175.7" cy="74.4" r="3.4"/><circle class="cls-2" cx="222.7" cy="205.8" r="3.5"/><path class="cls-2" d="M200.6,164.6A1.6,1.6,0,0,1,199,163V147.9a1.6,1.6,0,1,1,3.2,0V163A1.6,1.6,0,0,1,200.6,164.6Z"/><path class="cls-2" d="M230.7,244.4A7.4,7.4,0,1,1,238,237,7.4,7.4,0,0,1,230.7,244.4Zm0-11.5a4.2,4.2,0,1,0,4.2,4.2A4.2,4.2,0,0,0,230.7,232.9Z"/><path class="cls-2" d="M246.3,251H215.1a4.8,4.8,0,0,1-4.8-4.8V230.5a4.8,4.8,0,0,1,4.8-4.8h5.5a1.5,1.5,0,0,0,1.5-1.1,4.7,4.7,0,0,1,4.6-3.4h8.1a4.7,4.7,0,0,1,4.6,3.4h0a1.5,1.5,0,0,0,1.5,1.1h5.5a4.8,4.8,0,0,1,4.8,4.8v15.7A4.8,4.8,0,0,1,246.3,251Zm-31.2-22a1.5,1.5,0,0,0-1.5,1.5v15.7a1.5,1.5,0,0,0,1.5,1.5h31.2a1.5,1.5,0,0,0,1.5-1.5V230.5a1.5,1.5,0,0,0-1.5-1.5h-5.5a4.7,4.7,0,0,1-4.6-3.4h0a1.5,1.5,0,0,0-1.5-1.1h-8.1a1.5,1.5,0,0,0-1.5,1.1,4.7,4.7,0,0,1-4.6,3.4h-5.5Z"/><path class="cls-2" d="M235.9,352.6a1.6,1.6,0,0,1-1.6-1.6V320a1.6,1.6,0,0,1,3.2,0v31A1.6,1.6,0,0,1,235.9,352.6Z"/><path class="cls-2" d="M273.5,353.2a8.1,8.1,0,1,1,8.1-8.1A8.1,8.1,0,0,1,273.5,353.2Zm0-12.9a4.8,4.8,0,1,0,4.8,4.8A4.9,4.9,0,0,0,273.5,340.3Z"/><path class="cls-2" d="M294.7,346.8H281a1.6,1.6,0,0,1,0-3.2h13.6a1.6,1.6,0,0,0,1.6-1.6v-6.8a1.6,1.6,0,1,1,3.2,0V342A4.8,4.8,0,0,1,294.7,346.8Z"/><path class="cls-2" d="M112.3,205.3H31.1a1.6,1.6,0,0,1,0-3.2h79.6V145.4a1.6,1.6,0,0,1,1.6-1.6h15.2a1.6,1.6,0,0,1,0,3.2H113.9v56.7A1.6,1.6,0,0,1,112.3,205.3Z"/><path class="cls-2" d="M146.1,130.7a1.6,1.6,0,0,1-1.6-1.6V114.9a1.6,1.6,0,1,1,3.2,0v14.2A1.6,1.6,0,0,1,146.1,130.7Z"/><path class="cls-2" d="M350.1,327.9H325.5a1.6,1.6,0,1,1,0-3.2h24.6A1.6,1.6,0,0,1,350.1,327.9Z"/><path class="cls-2" d="M79.5,339.7a1.6,1.6,0,0,1-1.6-1.6v-5.4a4.8,4.8,0,0,0-4.8-4.8H45.6a1.6,1.6,0,0,1,0-3.2H73.1a8,8,0,0,1,8,8v5.4A1.6,1.6,0,0,1,79.5,339.7Z"/><path class="cls-3" d="M94.5,102.5H69.4a1.9,1.9,0,0,1-1.9-1.9V69.7a1.9,1.9,0,0,1,1.9-1.9H87.9a1.9,1.9,0,0,1,1.4.6l6.6,6.6a1.9,1.9,0,0,1,.6,1.4v24.3A1.9,1.9,0,0,1,94.5,102.5Z"/><path class="cls-2" d="M94.5,104.2H69.4a3.5,3.5,0,0,1-3.5-3.5V69.7a3.5,3.5,0,0,1,3.5-3.5H87.9a3.5,3.5,0,0,1,2.5,1L97,73.8a3.5,3.5,0,0,1,1,2.5v24.3A3.5,3.5,0,0,1,94.5,104.2ZM69.4,69.4a0.3,0.3,0,0,0-.3.3v30.9a0.3,0.3,0,0,0,.3.3H94.5a0.3,0.3,0,0,0,.3-0.3V76.1l-6.6-6.6H69.4Z"/><polygon class="cls-2" points="89.7 75.1 89.7 70.9 93.9 75.1 89.7 75.1"/><path class="cls-2" d="M88.8,68.1a0.7,0.7,0,0,0-.7.7V76a0.7,0.7,0,0,0,.7.7h7.1a0.7,0.7,0,0,0,.5-1.3l-7.1-7.1-0.5-.2h0Z"/><path class="cls-2" d="M129.8,105.2h-6.7a4.8,4.8,0,0,1-4.8-4.8v-12a1.6,1.6,0,0,0-1.6-1.6H97.5a1.6,1.6,0,0,1,0-3.2h19.2a4.8,4.8,0,0,1,4.8,4.8v12a1.6,1.6,0,0,0,1.6,1.6h6.7A1.6,1.6,0,1,1,129.8,105.2Z"/><path class="cls-2" d="M56.3,341.8a1.6,1.6,0,0,1-1.6-1.6V175.4a1.6,1.6,0,1,1,3.2,0V340.2A1.6,1.6,0,0,1,56.3,341.8Z"/><path class="cls-2" d="M56.3,102.3H29.1a1.6,1.6,0,0,1,0-3.2H54.7V64.3a1.6,1.6,0,0,1,3.2,0v36.4A1.6,1.6,0,0,1,56.3,102.3Z"/><path class="cls-2" d="M176.7,169.1H162.7a4.8,4.8,0,0,1-4.8-4.8v-7.6a1.6,1.6,0,1,1,3.2,0v7.6a1.6,1.6,0,0,0,1.6,1.6h13.9A1.6,1.6,0,1,1,176.7,169.1Z"/><path class="cls-2" d="M138.5,289.8H46.9a1.6,1.6,0,0,1,0-3.2h91.6A1.6,1.6,0,0,1,138.5,289.8Z"/><path class="cls-2" d="M306.2,309.4a1.6,1.6,0,0,1-1.6-1.6V285.3a1.6,1.6,0,0,0-1.6-1.6H287.3a4.8,4.8,0,0,1-4.8-4.8V265.1a1.6,1.6,0,1,1,3.2,0v13.7a1.6,1.6,0,0,0,1.6,1.6H303a4.8,4.8,0,0,1,4.8,4.8v22.5A1.6,1.6,0,0,1,306.2,309.4Z"/><path class="cls-2" d="M194.1,400a1.6,1.6,0,0,1-1.6-1.6V329.5a1.6,1.6,0,1,1,3.2,0v68.9A1.6,1.6,0,0,1,194.1,400Z"/><path class="cls-2" d="M273.5,368.1a1.6,1.6,0,0,1-1.6-1.6V351.6a1.6,1.6,0,0,1,3.2,0v14.9A1.6,1.6,0,0,1,273.5,368.1Z"/><path class="cls-2" d="M273.5,94.2a1.6,1.6,0,0,1-1.6-1.6v-74a1.6,1.6,0,0,1,3.2,0v74A1.6,1.6,0,0,1,273.5,94.2Z"/><path class="cls-2" d="M391.6,162.2H349.8a1.6,1.6,0,0,1,0-3.2h41.7A1.6,1.6,0,0,1,391.6,162.2Z"/><path class="cls-2" d="M51.1,162.2H5.4a1.6,1.6,0,0,1,0-3.2H51.1A1.6,1.6,0,0,1,51.1,162.2Z"/><path class="cls-2" d="M80.1,362.9a1.6,1.6,0,0,1-1.6-1.6v-9.1a1.6,1.6,0,1,1,3.2,0v9.1A1.6,1.6,0,0,1,80.1,362.9Z"/><path class="cls-2" d="M80.1,69.3a1.6,1.6,0,0,1-1.6-1.6V39.8a1.6,1.6,0,1,1,3.2,0V67.6A1.6,1.6,0,0,1,80.1,69.3Z"/><path class="cls-2" d="M167.3,107.9h-5a1.6,1.6,0,1,1,0-3.2h5a1.6,1.6,0,0,0,1.6-1.6V95.6a4.8,4.8,0,0,1,4.8-4.8h32.9a1.6,1.6,0,0,0,1.6-1.6V82.3a4.8,4.8,0,0,1,4.8-4.8h13a1.6,1.6,0,1,1,0,3.2H213a1.6,1.6,0,0,0-1.6,1.6v6.9a4.8,4.8,0,0,1-4.8,4.8H173.7a1.6,1.6,0,0,0-1.6,1.6v7.5A4.8,4.8,0,0,1,167.3,107.9Z"/><path class="cls-2" d="M220.5,297.5H203.9a4.8,4.8,0,0,1-4.8-4.8V278.9a1.6,1.6,0,0,0-1.6-1.6H187.2a1.6,1.6,0,0,1,0-3.2h10.2a4.8,4.8,0,0,1,4.8,4.8v13.9a1.6,1.6,0,0,0,1.6,1.6h16.6A1.6,1.6,0,1,1,220.5,297.5Z"/><path class="cls-2" d="M211.1,240.6h-10a4.8,4.8,0,0,1-4.8-4.8V224.5a1.6,1.6,0,0,0-1.6-1.6h-7.1a1.6,1.6,0,0,1,0-3.2h7.1a4.8,4.8,0,0,1,4.8,4.8v11.2a1.6,1.6,0,0,0,1.6,1.6h10A1.6,1.6,0,0,1,211.1,240.6Z"/><path class="cls-2" d="M206.6,206.5h-20a1.6,1.6,0,0,1,0-3.2h20a1.6,1.6,0,0,0,1.6-1.6V172a1.6,1.6,0,0,1,3.2,0v29.7A4.8,4.8,0,0,1,206.6,206.5Z"/><circle class="cls-2" cx="96.1" cy="309.7" r="6.2"/><circle class="cls-3" cx="96.1" cy="281.3" r="17.6"/><path class="cls-2" d="M96.1,300.6a19.2,19.2,0,1,1,19.2-19.2A19.3,19.3,0,0,1,96.1,300.6Zm0-35.3a16,16,0,1,0,16,16A16,16,0,0,0,96.1,265.3Z"/><path class="cls-2" d="M99.1,300.6a1.6,1.6,0,0,1-1.6-1.6V287.6H94.8V299a1.6,1.6,0,1,1-3.2,0V287.6h-1a4.2,4.2,0,0,1-4.2-4.2V283a4.2,4.2,0,0,1,8.3,0v1.4h2.7V283a4.2,4.2,0,0,1,8.3,0v0.4a4.2,4.2,0,0,1-4.2,4.2h-1V299A1.6,1.6,0,0,1,99.1,300.6Zm1.6-16.2h1a1,1,0,0,0,1-1V283a1,1,0,0,0-1.9,0v1.4ZM90.6,282a1,1,0,0,0-1,1v0.4a1,1,0,0,0,1,1h1V283A1,1,0,0,0,90.6,282Z"/><rect class="cls-3" x="88" y="299" width="16.2" height="10.68"/><path class="cls-2" d="M104.2,311.3H88a1.6,1.6,0,0,1-1.6-1.6V299a1.6,1.6,0,0,1,1.6-1.6h16.2a1.6,1.6,0,0,1,1.6,1.6v10.7A1.6,1.6,0,0,1,104.2,311.3ZM89.6,308h13v-7.5h-13V308Z"/><path class="cls-2" d="M104.2,305.9H88a1.6,1.6,0,0,1,0-3.2h16.2A1.6,1.6,0,1,1,104.2,305.9Z"/><path class="cls-2" d="M194.1,104.2a1.6,1.6,0,0,1-1.6-1.6V1.6a1.6,1.6,0,1,1,3.2,0V102.5A1.6,1.6,0,0,1,194.1,104.2Z"/><path class="cls-2" d="M373.5,244.4H306a1.6,1.6,0,0,1,0-3.2h67.5A1.6,1.6,0,0,1,373.5,244.4Z"/><path class="cls-2" d="M75,244.4H6.1a1.6,1.6,0,0,1,0-3.2H75A1.6,1.6,0,0,1,75,244.4Z"/><path class="cls-2" d="M171.1,326.3H99.3a4.8,4.8,0,0,1-4.8-4.8v-5.6a1.6,1.6,0,0,1,3.2,0v5.6a1.6,1.6,0,0,0,1.6,1.6h71.8A1.6,1.6,0,1,1,171.1,326.3Z"/><path class="cls-2" d="M267.1,346.7H249.3a8,8,0,0,1-8-8V320a1.6,1.6,0,1,1,3.2,0v18.7a4.8,4.8,0,0,0,4.8,4.8h17.8A1.6,1.6,0,0,1,267.1,346.7Z"/><path class="cls-2" d="M350.1,274.9a1.6,1.6,0,0,1-1.6-1.6V223.6a1.6,1.6,0,0,1,3.2,0v49.7A1.6,1.6,0,0,1,350.1,274.9Z"/><path class="cls-2" d="M29.1,274.9a1.6,1.6,0,0,1-1.6-1.6v-71a1.6,1.6,0,1,1,3.2,0v71A1.6,1.6,0,0,1,29.1,274.9Z"/><path class="cls-3" d="M167.2,359.5c0-12.6-11.6-22.7-26-22.7s-26,10.2-26,22.7c0,10.6,8.3,19.5,19.5,22v7.2l8.8-6.6C156.8,381.1,167.2,371.4,167.2,359.5Z"/><path class="cls-2" d="M134.7,390.3l-0.7-.2a1.6,1.6,0,0,1-.9-1.4v-6c-11.5-3.1-19.5-12.5-19.5-23.3,0-13.4,12.4-24.4,27.6-24.4s27.6,10.9,27.6,24.4-10.6,22.9-24.7,24.2l-8.4,6.3A1.6,1.6,0,0,1,134.7,390.3Zm6.5-52c-13.4,0-24.4,9.5-24.4,21.1,0,9.6,7.5,18,18.2,20.4a1.6,1.6,0,0,1,1.3,1.6v4l6.2-4.7,0.8-.3c12.5-1,22.2-10.2,22.2-21S154.7,338.4,141.2,338.4Z"/><path class="cls-2" d="M157.3,359.9H126.6a1.6,1.6,0,0,1,0-3.2h30.7A1.6,1.6,0,0,1,157.3,359.9Z"/><path class="cls-2" d="M149.1,366.8H126.6a1.6,1.6,0,1,1,0-3.2h22.5A1.6,1.6,0,0,1,149.1,366.8Z"/><path class="cls-3" d="M376.7,115.5c0-11.6-10.7-21-23.9-21s-23.9,9.4-23.9,21c0,9.8,7.6,17.9,18,20.3v6.7l8.1-6.1C367.1,135.4,376.7,126.4,376.7,115.5Z"/><path class="cls-2" d="M346.8,144l-0.7-.2a1.6,1.6,0,0,1-.9-1.4V137c-10.6-2.9-18-11.6-18-21.5,0-12.4,11.5-22.6,25.6-22.6s25.6,10.1,25.6,22.6-9.8,21.2-22.8,22.4l-7.7,5.8A1.6,1.6,0,0,1,346.8,144Zm6-47.9c-12.3,0-22.3,8.7-22.3,19.3,0,8.8,6.9,16.5,16.7,18.7a1.6,1.6,0,0,1,1.3,1.6v3.5l5.5-4.2,0.8-.3c11.4-.9,20.3-9.3,20.3-19.3S365.1,96.1,352.8,96.1Z"/><path class="cls-2" d="M367.6,116H339.3a1.6,1.6,0,1,1,0-3.2h28.3A1.6,1.6,0,1,1,367.6,116Z"/><path class="cls-2" d="M360,122.4H339.3a1.6,1.6,0,0,1,0-3.2H360A1.6,1.6,0,1,1,360,122.4Z"/><circle class="cls-3" cx="16.7" cy="202.3" r="14.3"/><path class="cls-2" d="M16.7,218.2a15.9,15.9,0,1,1,15.9-15.9A15.9,15.9,0,0,1,16.7,218.2Zm0-28.6a12.7,12.7,0,1,0,12.7,12.7A12.7,12.7,0,0,0,16.7,189.6Z"/><path class="cls-2" d="M14.1,197.2a2.3,2.3,0,1,1-2.3-2.3A2.3,2.3,0,0,1,14.1,197.2Zm7.5-2.3a2.3,2.3,0,1,0,2.3,2.3A2.3,2.3,0,0,0,21.7,194.9Z"/><path class="cls-2" d="M16.4,209.7a6.4,6.4,0,0,0,6.3-5.2,1.1,1.1,0,0,0-1.1-1.2H11.2a1.1,1.1,0,0,0-1.1,1.2A6.4,6.4,0,0,0,16.4,209.7Z"/></g><path class="cls-4" d="M219,291.2a5.5,5.5,0,1,0-5.5-5.5,5.5,5.5,0,0,0,5.5,5.5h0Z"/><path class="cls-4" d="M277,132.8a4,4,0,1,0-4-4,4,4,0,0,0,4,4h0Z"/><path class="cls-4" d="M125,132.8a4,4,0,1,0-4-4,4,4,0,0,0,4,4h0Z"/><path class="cls-4" d="M183.1,291.2a5.5,5.5,0,1,0-5.5-5.5,5.5,5.5,0,0,0,5.5,5.5h0Z"/><path class="cls-4" d="M201.1,296.2a5.5,5.5,0,1,0-5.5-5.5,5.5,5.5,0,0,0,5.5,5.5h0Z"/><path id="_Path_" data-name="&lt;Path&gt;" class="cls-5" d="M342.5,238.9l-292.8-1a7.4,7.4,0,0,1-7.4-7.4V174.9a7.4,7.4,0,0,1,7.4-7.4l292.7,1a7.4,7.4,0,0,1,7.4,7.4v55.6A7.3,7.3,0,0,1,342.5,238.9Z"/><path id="_Path_2" data-name="&lt;Path&gt;" class="cls-6" d="M342.5,235.9l-292.8-1a7.4,7.4,0,0,1-7.4-7.4V171.9a7.4,7.4,0,0,1,7.4-7.4l292.7,1a7.4,7.4,0,0,1,7.4,7.4v55.6A7.3,7.3,0,0,1,342.5,235.9Z"/><g id="_Group_" data-name="&lt;Group&gt;" class="cls-7"><g id="_Group_2" data-name="&lt;Group&gt;"><line id="_Path_3" data-name="&lt;Path&gt;" class="cls-8" x1="74.5" y1="189" x2="55.7" y2="189"/><line id="_Path_4" data-name="&lt;Path&gt;" class="cls-8" x1="72.5" y1="200" x2="62.2" y2="200"/><line id="_Path_5" data-name="&lt;Path&gt;" class="cls-8" x1="74.5" y1="210.4" x2="67.7" y2="210.4"/></g><g id="_Group_3" data-name="&lt;Group&gt;"><line id="_Path_6" data-name="&lt;Path&gt;" class="cls-8" x1="319.6" y1="190" x2="336.2" y2="190"/><line id="_Path_7" data-name="&lt;Path&gt;" class="cls-8" x1="320.6" y1="201" x2="329.8" y2="201"/><line id="_Path_8" data-name="&lt;Path&gt;" class="cls-8" x1="318.6" y1="211.4" x2="324.4" y2="211.4"/></g></g><path class="cls-3" d="M310,200.5a114,114,0,1,0-114,114,114,114,0,0,0,114-114"/><path class="cls-9" d="M305.5,190.1h0m0-.1h0m0-.1h0M86.6,188.7h0m0-.1h0m0-.1h0"/><path class="cls-10" d="M309.8,193.2h0m0-.1h0m0-.1h0m0-.1h0"/><path class="cls-11" d="M305.5,190.2h0m0-.1h0m0-.1h0M86.6,188.7h0m0-.1h0m0-.1h0"/><path class="cls-12" d="M308,200.5h2a114,114,0,1,0-114,114,114,114,0,0,0,114-114h-4a110,110,0,1,1-32.2-77.8A109.7,109.7,0,0,1,306,200.5h2"/><path class="cls-13" d="M122.2,200.4a7.7,7.7,0,1,0-7.7,7.7,7.7,7.7,0,0,0,7.7-7.7h0Z"/><path class="cls-13" d="M284.5,200.4a7.7,7.7,0,1,0-7.7,7.7,7.7,7.7,0,0,0,7.7-7.7h0Z"/><path class="cls-4" d="M196,97.3A103.2,103.2,0,1,0,299.2,200.5,103.4,103.4,0,0,0,196,97.3Zm68.3,171.6a96.6,96.6,0,1,1-68.3-165h0A96.6,96.6,0,0,1,264.3,268.9Z"/><rect class="cls-14" x="159.6" y="140.5" width="21.8" height="15.07" transform="translate(-54.8 164) rotate(-45)"/><rect class="cls-15" x="190.9" y="150.5" width="17.3" height="108.47" transform="translate(-86.3 201.1) rotate(-45)"/><rect class="cls-16" x="158" y="168.5" width="17.3" height="6.69" transform="translate(-72.7 168.2) rotate(-45)"/><rect class="cls-17" x="215.7" y="201.1" width="24" height="63.51" rx="4" ry="4" transform="translate(-98 229.2) rotate(-45)"/><rect class="cls-14" x="144.7" y="151.4" width="24" height="20.98" transform="translate(-68.6 158.2) rotate(-45)"/><rect class="cls-15" x="175.1" y="129.5" width="7.1" height="20.98" transform="translate(-46.7 167.3) rotate(-45)"/><path class="cls-15" d="M130,188.6l18.2-18.2-7.4-7.4-11.6,17.8a6.2,6.2,0,0,0,.8,7.7h0Z"/><path class="cls-14" d="M254.3,149.4l-17.1,17.1L225,154.3l17.1-17.1a21.9,21.9,0,0,0-28.4,28.4l-54.3,54.3a21.9,21.9,0,0,0-28.4,28.4L148,231.2l12.2,12.2-17.1,17.1a21.9,21.9,0,0,0,28.4-28.4l54.3-54.3A21.9,21.9,0,0,0,254.3,149.4Z"/><rect class="cls-18" x="171.9" y="195.7" width="41.7" height="5.98" rx="3" ry="3" transform="translate(-84.1 194.5) rotate(-45)"/><rect class="cls-16" x="192.9" y="203.2" width="17.3" height="7.44" transform="translate(-87.3 203.1) rotate(-45)"/><rect class="cls-4" x="218.4" y="207.4" width="8.2" height="62.61" transform="translate(-103.6 227.3) rotate(-45)"/></svg>