<?xml version="1.0" encoding="utf-8"?>
<!-- Generator: Adobe Illustrator 19.1.0, SVG Export Plug-In . SVG Version: 6.00 Build 0)  -->
<svg version="1.1" id="Шар_1" xmlns="http://www.w3.org/2000/svg" xmlns:xlink="http://www.w3.org/1999/xlink" x="0px" y="0px"
	 viewBox="0 0 150 150" style="enable-background:new 0 0 150 150;" xml:space="preserve">
<style type="text/css">
	.st0{fill:none;stroke:#171B65;stroke-width:5;stroke-linecap:round;stroke-linejoin:round;stroke-miterlimit:10;}
	.st1{fill:#00B5DA;stroke:#171B65;stroke-width:3;stroke-linecap:round;stroke-linejoin:round;stroke-miterlimit:10;}
	.st2{fill:#00B5DA;stroke:#171B65;stroke-width:5;stroke-linecap:round;stroke-linejoin:round;stroke-miterlimit:10;}
	.st3{fill:none;stroke:#171B65;stroke-width:3;stroke-linecap:round;stroke-linejoin:round;stroke-miterlimit:10;}
</style>
<g>
	<polygon class="st0" points="46.4,127 67.2,127 67.2,102.7 81.9,102.7 81.9,127 102.7,127 102.7,32 75.9,23 46.4,32 	"/>
	<rect x="78.6" y="42.1" class="st1" width="12.5" height="12.5"/>
	<rect x="78.6" y="63.8" class="st1" width="12.5" height="26"/>
	<rect x="58.6" y="42.1" class="st1" width="12.5" height="12.5"/>
	<rect x="58.6" y="63.8" class="st1" width="12.5" height="26"/>
	<polyline class="st0" points="110.5,107.7 118.5,107.7 118.5,127 137.4,127 137.4,50.8 110.5,50.8 	"/>
	<rect x="116.3" y="83.6" class="st3" width="11.3" height="11.3"/>
	<rect x="116.3" y="62" class="st3" width="11.3" height="11.3"/>
	<polyline class="st0" points="39.5,50.8 12.6,50.8 12.6,127 31.5,127 31.5,107.7 39.5,107.7 	"/>
	<rect x="22.4" y="62" class="st3" width="11.3" height="11.3"/>
	<rect x="22.4" y="83.6" class="st3" width="11.3" height="11.3"/>
</g>
</svg>
