<?xml version="1.0" encoding="utf-8"?>
<!-- Generator: Adobe Illustrator 19.1.0, SVG Export Plug-In . SVG Version: 6.00 Build 0)  -->
<svg version="1.1" id="Layer_1" xmlns="http://www.w3.org/2000/svg" xmlns:xlink="http://www.w3.org/1999/xlink" x="0px" y="0px"
	 viewBox="0 0 130 130" style="enable-background:new 0 0 130 130;" xml:space="preserve">
<style type="text/css">
	.st0{fill:#688FAA;}
	.st1{fill:#0D4773;}
</style>
<g>
	<path class="st0" d="M107.3,77.8L67.8,49.3l-9.1-4.1l-13.4,7.5l-1.7,0.9c-2,1.1-4.3,1.6-6.5,1.3l0,0c-3.4-0.4-6.6-2.3-8.4-5.6
		c-1.1-2-1.6-4.3-1.3-6.5c0.3-2.7,1.6-5.3,3.8-7.1c-3-0.2-5.2-0.3-5.2-0.3S15.2,55.6,15.8,75.2l1.5,0.5c1.2-2.3,3.4-4.2,6.1-4.8
		c1-0.2,2-0.3,3-0.2c1.8,0.2,3.5,0.9,4.9,2.1c1.7-1,3.6-1.5,5.7-1.2c0.3,0,0.5,0.1,0.8,0.1c1.7,0.3,3.2,1.1,4.4,2.2
		c1.7-1,3.7-1.5,5.8-1.3c0.4,0,0.7,0.1,1.1,0.2c3.6,0.8,6.3,3.7,6.9,7.2c0.4,0,0.9,0,1.3,0c0.4,0,0.7,0.1,1.1,0.2
		c4.5,1.1,7.5,5.3,7,9.9c0,0.3-0.1,0.7-0.2,1.1l-1.5,6.6l9.2,6.7c1.6-0.1,3.2-0.8,4.3-2.3C78,101,78.3,99.4,78,98l-8.3-6
		c-0.5-0.3-0.6-1-0.2-1.5c0.4-0.5,1-0.6,1.5-0.2l13,9.4c1.7,0,3.4-0.8,4.4-2.3c0.9-1.3,1.2-2.8,0.9-4.2l-15-10.9
		c-0.5-0.4-0.6-1-0.2-1.5c0.3-0.5,1-0.6,1.5-0.2L94,93.8c1.7,0,3.4-0.8,4.5-2.3c1-1.4,1.2-3,0.9-4.5l-15-10.8
		c-0.5-0.4-0.6-1-0.2-1.5c0.3-0.5,1-0.6,1.5-0.2l18.5,13.4c1.7,0,3.3-0.8,4.4-2.3C110.3,83,109.8,79.6,107.3,77.8z"/>
	<path class="st1" d="M93.8,40.7c-0.9-0.2-2.4-0.8-4-1.5l-28.5-13c-2.1-1-4.6-0.9-6.6,0.3l-11.5,6.4l-8.4,4.7c-3.5,2-4.8,6.4-2.8,10
		c1.2,2.2,3.3,3.5,5.6,3.7c1.5,0.2,3-0.1,4.3-0.9l0,0L58.6,41l11.1,5.1L84.8,57l24.7,17.8c0.3,0.2,0.5,0.4,0.7,0.6l6.9-1.7
		c1.2-22.9-9.6-34.1-9.6-34.1S96.9,41.5,93.8,40.7z"/>
	<path class="st1" d="M57.5,83.8c-2.4-0.6-4.8,0.5-5.9,2.5l0.7-3.4c0.7-2.9-1.2-5.9-4.1-6.6c-2.9-0.7-5.9,1.2-6.6,4.1l-0.1,0.3
		c0-2.6-1.8-4.9-4.4-5.4c-2.7-0.5-5.3,1-6.2,3.5l0-0.2c-0.7-3-3.6-4.8-6.6-4.1c-3,0.7-4.8,3.6-4.2,6.5l1.5,6.7
		c0.5,2.3,2.5,4,4.8,4.3c0.6,0.1,1.2,0,1.8-0.1c0.3-0.1,0.6-0.2,0.9-0.3c0.6,1.8,2.1,3.3,4.2,3.7c0.2,0,0.3,0.1,0.5,0.1
		c2.1,0.2,4.1-0.8,5.2-2.4l-0.1,0.3c-0.7,3,1.2,5.9,4.1,6.6c0.2,0,0.4,0.1,0.7,0.1c2.1,0.2,4.1-0.8,5.2-2.5
		c-0.3,2.7,1.5,5.2,4.2,5.9c0.2,0.1,0.4,0.1,0.7,0.1c2.7,0.3,5.3-1.5,5.9-4.2l2.1-8.9C62.3,87.4,60.4,84.4,57.5,83.8z"/>
	<path class="st1" d="M130,71.7L126,36.5c-0.2-2.2-2.2-3.6-4.5-3l-11.9,3c0,0,12.5,13,11.1,39.4l5.6-0.2
		C128.6,75.7,130.2,73.9,130,71.7z"/>
	<path class="st0" d="M23.2,32.9L17,29.6c-2.1-1-4.3,0-5,2.1L0.2,69.4C-0.5,71.6,0.8,73.6,3,74l9.3,1.9
		C11.7,54.7,23.2,32.9,23.2,32.9z"/>
</g>
</svg>
