<?xml version="1.0" encoding="utf-8"?>
<!-- Generator: Adobe Illustrator 21.0.0, SVG Export Plug-In . SVG Version: 6.00 Build 0)  -->
<svg version="1.1" id="Layer_1" xmlns="http://www.w3.org/2000/svg" xmlns:xlink="http://www.w3.org/1999/xlink" x="0px" y="0px"
	 viewBox="0 0 400 250" enable-background="new 0 0 400 250" xml:space="preserve">
<g>
	<path fill="#F36D21" d="M73,114.8H39.3c-7.5,0-13.6-6.1-13.6-13.6V67.5c0-7.5,6.1-13.6,13.6-13.6H73c7.5,0,13.6,6.1,13.6,13.6v33.7
		C86.6,108.7,80.5,114.8,73,114.8z"/>
	<path fill="none" stroke="#F36E26" stroke-width="3" stroke-miterlimit="10" stroke-dasharray="3,6" d="M30.6,37.8h51.3
		c11.5,0,20.9,9.3,20.9,20.9V110c0,11.5-9.3,20.9-20.9,20.9H30.6c-11.5,0-20.9-9.3-20.9-20.9V58.6C9.7,47.1,19,37.8,30.6,37.8z"/>
	<path fill="#FFFFFF" stroke="#FFFFFF" stroke-miterlimit="10" d="M77,102.6c0-2.5-2-4.5-4.5-4.6c-1.2,0-2.3,0.4-3.1,1.2L62,91.8
		c1.7-2.2,1.7-5.3,0-7.5l5.8-5.8c0.5,0.3,1,0.4,1.5,0.5c1.7,0,3-1.4,3-3s-1.4-3-3-3c-1.7,0-3,1.4-3,3c0,0.5,0.2,1.1,0.5,1.5
		l-5.8,5.8c-0.9-0.7-1.9-1.1-3-1.2v-7.7c2.5-0.4,4.2-2.8,3.8-5.3c-0.4-2.5-2.8-4.2-5.3-3.8c-2.5,0.4-4.2,2.8-3.8,5.3
		c0.3,1.9,1.8,3.5,3.8,3.8V82c-1.1,0.1-2.1,0.6-3,1.2l-9.8-9.8c1.3-2.2,0.5-5-1.7-6.3c-2.2-1.3-5-0.5-6.3,1.7
		c-1.3,2.2-0.5,5,1.7,6.3c1.7,1,3.8,0.8,5.3-0.5l9.6,9.7c-1.7,2.2-1.7,5.3,0,7.5l-5.8,5.8c-0.5-0.3-1-0.4-1.5-0.5c-1.7,0-3,1.4-3,3
		s1.4,3,3,3c1.7,0,3-1.4,3-3c0-0.5-0.2-1.1-0.5-1.5l5.8-5.8c2.2,1.7,5.3,1.7,7.5,0l7.5,7.5c-1.2,2.2-0.5,5,1.8,6.3
		c2.2,1.2,5,0.5,6.3-1.8C76.8,104.2,77,103.4,77,102.6z M45,98.8c0.8,0,1.5,0.7,1.5,1.5c0,0.8-0.7,1.5-1.5,1.5
		c-0.8,0-1.5-0.7-1.5-1.5S44.2,98.8,45,98.8L45,98.8z M42.8,71.4c0,1.7-1.4,3-3,3s-3-1.4-3-3c0-1.7,1.4-3,3-3
		C41.4,68.3,42.8,69.7,42.8,71.4L42.8,71.4L42.8,71.4z M57.2,72.9c-1.7,0-3-1.4-3-3s1.4-3,3-3c1.7,0,3,1.4,3,3S58.8,72.9,57.2,72.9
		L57.2,72.9z M61.8,88.1c0,2.5-2.1,4.6-4.6,4.6c-2.5,0-4.6-2.1-4.6-4.6s2.1-4.6,4.6-4.6C59.7,83.5,61.8,85.5,61.8,88.1L61.8,88.1
		L61.8,88.1z M69.4,77.5c-0.8,0-1.5-0.7-1.5-1.5c0-0.8,0.7-1.5,1.5-1.5c0.8,0,1.5,0.7,1.5,1.5C70.9,76.8,70.2,77.5,69.4,77.5
		L69.4,77.5z M75.5,102.6c0,1.7-1.4,3-3,3s-3-1.4-3-3c0-1.7,1.4-3,3-3S75.5,100.9,75.5,102.6L75.5,102.6z"/>
	<path fill="#F36D21" d="M54.6,218.8v-25.3c0-2,1.6-3.5,3.5-3.5h25.2c2,0,3.5,1.6,3.5,3.5v25.3c0,2-1.6,3.5-3.5,3.5H58.1
		C56.1,222.3,54.6,220.7,54.6,218.8z"/>
	<path fill="#FFFFFF" d="M64.7,209.4c0,0.3,0.2,0.5,0.5,0.5h16.6c0.3,0,0.5-0.2,0.5-0.5s-0.2-0.5-0.5-0.5H65.2
		C65,208.9,64.7,209.1,64.7,209.4z M64.7,204.2c0,0.3,0.2,0.5,0.5,0.5h16.6c0.3,0,0.5-0.2,0.5-0.5s-0.2-0.5-0.5-0.5H65.2
		C65,203.7,64.7,203.9,64.7,204.2z M64.7,214.6c0,0.3,0.2,0.5,0.5,0.5h16.6c0.3,0,0.5-0.2,0.5-0.5c0-0.3-0.2-0.5-0.5-0.5H65.2
		C65,214,64.7,214.3,64.7,214.6z M61.1,200.5L61.1,200.5c0.9,0,1.6-0.7,1.6-1.6l0,0c0-0.9-0.7-1.6-1.6-1.6c-0.9,0-1.6,0.7-1.6,1.6
		C59.5,199.8,60.2,200.5,61.1,200.5L61.1,200.5z M61.1,207.8c-0.9,0-1.6,0.7-1.6,1.6l0,0c0,0.9,0.7,1.6,1.6,1.6
		c0.9,0,1.6-0.7,1.6-1.6C62.7,208.5,62,207.8,61.1,207.8L61.1,207.8z M59.5,204.2L59.5,204.2c0,0.9,0.7,1.6,1.6,1.6
		c0.9,0,1.6-0.7,1.6-1.6s-0.7-1.6-1.6-1.6S59.5,203.3,59.5,204.2z M64.7,199c0,0.3,0.2,0.5,0.5,0.5h16.6c0.3,0,0.5-0.2,0.5-0.5
		c0-0.3-0.2-0.5-0.5-0.5H65.2C65,198.5,64.7,198.7,64.7,199z M59.5,214.6L59.5,214.6c0,0.9,0.7,1.6,1.6,1.6c0.9,0,1.6-0.7,1.6-1.6
		c0-0.9-0.7-1.6-1.6-1.6S59.5,213.7,59.5,214.6z"/>
	<path fill="none" stroke="#FFFFFF" stroke-width="0.5" stroke-miterlimit="10" d="M64.7,209.4c0,0.3,0.2,0.5,0.5,0.5h16.6
		c0.3,0,0.5-0.2,0.5-0.5s-0.2-0.5-0.5-0.5H65.2C65,208.9,64.7,209.1,64.7,209.4z M64.7,204.2c0,0.3,0.2,0.5,0.5,0.5h16.6
		c0.3,0,0.5-0.2,0.5-0.5s-0.2-0.5-0.5-0.5H65.2C65,203.7,64.7,203.9,64.7,204.2z M64.7,214.6c0,0.3,0.2,0.5,0.5,0.5h16.6
		c0.3,0,0.5-0.2,0.5-0.5c0-0.3-0.2-0.5-0.5-0.5H65.2C65,214,64.7,214.3,64.7,214.6z M61.1,200.5L61.1,200.5c0.9,0,1.6-0.7,1.6-1.6
		l0,0c0-0.9-0.7-1.6-1.6-1.6c-0.9,0-1.6,0.7-1.6,1.6C59.5,199.8,60.2,200.5,61.1,200.5L61.1,200.5z M61.1,207.8
		c-0.9,0-1.6,0.7-1.6,1.6l0,0c0,0.9,0.7,1.6,1.6,1.6c0.9,0,1.6-0.7,1.6-1.6C62.7,208.5,62,207.8,61.1,207.8L61.1,207.8z M59.5,204.2
		L59.5,204.2c0,0.9,0.7,1.6,1.6,1.6c0.9,0,1.6-0.7,1.6-1.6s-0.7-1.6-1.6-1.6S59.5,203.3,59.5,204.2z M64.7,199
		c0,0.3,0.2,0.5,0.5,0.5h16.6c0.3,0,0.5-0.2,0.5-0.5c0-0.3-0.2-0.5-0.5-0.5H65.2C65,198.5,64.7,198.7,64.7,199z M59.5,214.6
		L59.5,214.6c0,0.9,0.7,1.6,1.6,1.6c0.9,0,1.6-0.7,1.6-1.6c0-0.9-0.7-1.6-1.6-1.6S59.5,213.7,59.5,214.6z"/>
	<path fill="#273036" d="M167.1,8L86.2,1.6c-7.7,0-15.7,6.1-15.7,13.8l42.4,219.9c0,7.6,9.1,13.7,16.7,13.7l78.6-20.3
		c8.5-1.7,15.8-6.2,15.8-13.8L181,21.9C181,14.2,174.8,8,167.1,8L167.1,8z"/>
	<path fill="#343F49" d="M167.1,1.7L88.9,1C81.2,1,75,7.2,75,14.8l0,0l40.8,213.9c0,7.6,6.2,13.8,13.8,13.8l78.6-20.3
		c7.6,0,13.8-6.2,13.8-13.8l0,0L181,15.5C181,7.9,174.8,1.7,167.1,1.7L167.1,1.7z"/>
	
		<ellipse transform="matrix(0.7071 -0.7071 0.7071 0.7071 -103.3876 186.5461)" fill="#2A2B2A" stroke="#139FDA" stroke-width="1.11" stroke-miterlimit="10" cx="173.5" cy="218.1" rx="6.4" ry="6.4"/>
	<path fill="#2A2B2A" d="M143.2,100.6c0.3,0,0.6,0.3,0.6,0.6H135c0-0.3,0.3-0.6,0.6-0.6H143.2z"/>
	<path fill="#2A2B2A" d="M174,61.1c0.5,0,1,0.4,1,1v4.5c0,0.5-0.4,1-1,1V61.1z"/>
	<path fill="#2A2B2A" d="M174,44.9c0.5,0,1,0.4,1,1v4.5c0,0.5-0.4,1-1,1V44.9z"/>
	<path fill="#2A2B2A" d="M181,27.2c0.5,0,1,0.4,1,1v6.7c0,0.5-0.4,1-1,1V27.2z"/>
	<path fill="#2A2B2A" d="M160.1,110.2c-1.6,1.2-3.4-0.6-2.2-2.2l0,0C159.5,106.7,161.3,108.6,160.1,110.2z"/>
	<path fill="#139FDA" d="M122.3,216.8c0,0,91.5-20.4,91.5-20.5L178.6,23.6c0-0.1-93.2,2.9-93.2,2.9l-2.2,0.2L122,216.5
		C122,216.6,122.1,216.8,122.3,216.8C122.2,216.8,122.3,216.8,122.3,216.8z"/>
	<polygon opacity="0.2" fill="#FFFFFF" enable-background="new    " points="155.8,209.1 127.1,215.7 138.6,24.7 163.2,24 	"/>
	<polygon opacity="0.2" fill="#FFFFFF" enable-background="new    " points="165,207 158.4,208.5 166.8,23.6 173.4,23.6 	"/>
	<circle fill="none" stroke="#FBDC16" stroke-width="3" stroke-miterlimit="10" cx="212.8" cy="84.9" r="53.4"/>
	<path fill="#79BD43" d="M225,107h-24.4c-5.5,0-9.9-4.4-9.9-9.9V72.7c0-5.5,4.4-9.9,9.9-9.9H225c5.5,0,9.9,4.4,9.9,9.9v24.4
		C234.9,102.5,230.5,107,225,107z"/>
	<path fill="#FFFFFF" d="M202.8,89.7h12.3c0.4,0,0.7-0.3,0.7-0.7c0-0.4-0.3-0.7-0.7-0.7h-12.3c-0.4,0-0.7,0.3-0.7,0.7
		C202.1,89.3,202.4,89.7,202.8,89.7z M220.6,92.4h2.8c0.4,0,0.7-0.3,0.7-0.7V89c0-0.4-0.3-0.7-0.7-0.7h-2.7c-0.4,0-0.7,0.3-0.7,0.7
		v2.8C220,92.1,220.3,92.4,220.6,92.4L220.6,92.4z M226.8,74.6h-27.4c-0.8,0-1.4,0.6-1.4,1.4v0v19.2c0,0.8,0.6,1.4,1.4,1.4l0,0h27.5
		c0.8,0,1.4-0.6,1.4-1.4v0V76C228.2,75.2,227.6,74.6,226.8,74.6L226.8,74.6L226.8,74.6z M226.8,95.2h-27.4v-11h27.5L226.8,95.2z
		 M226.8,78.7h-27.4V76h27.5L226.8,78.7z M202.8,92.4h9.6c0.4,0,0.7-0.3,0.7-0.7s-0.3-0.7-0.7-0.7l0,0h-9.6c-0.4,0-0.7,0.3-0.7,0.7
		S202.4,92.4,202.8,92.4z"/>
	<rect x="66.8" y="172.3" fill="#139FDA" width="4" height="3.4"/>
	<rect x="43.1" y="172.3" fill="#F36D21" width="4" height="3.4"/>
	<rect x="73.5" y="172.3" fill="#F36D21" width="4" height="3.4"/>
	<rect x="73.5" y="166.2" fill="#79BD43" width="4" height="3.4"/>
	<rect x="80.3" y="172.3" fill="#F36D21" width="4" height="3.4"/>
	<rect x="80.7" y="178.4" fill="#F36D21" width="4" height="3.4"/>
	<rect x="87.4" y="178.4" fill="#79BD43" width="4" height="3.4"/>
	<rect x="94.2" y="178.4" fill="#F36D21" width="4" height="3.4"/>
	<rect x="118.6" y="178.4" fill="#139FDA" width="4" height="3.4"/>
	<path fill="#4655A5" d="M216.5,148.7h-17.2c-3.9,0-7-3.1-7-7v-17.2c0-3.9,3.1-7,7-7h17.2c3.9,0,7,3.1,7,7v17.2
		C223.5,145.6,220.4,148.7,216.5,148.7z"/>
	<path fill="#F36D21" d="M77.7,146H59.6c-1.4,0-2.6-1.1-2.6-2.6v-18.1c0-1.4,1.1-2.6,2.6-2.6h18.1c1.4,0,2.6,1.1,2.6,2.6v18.1
		C80.3,144.8,79.1,146,77.7,146z"/>
	<path fill="#139FDA" d="M74.6,45.3H53.8c-4.8,0-8.7-3.9-8.7-8.7V15.9c0-4.8,3.9-8.7,8.7-8.7h20.8c4.8,0,8.7,3.9,8.7,8.7v20.8
		C83.2,41.5,79.3,45.3,74.6,45.3z"/>
	<path fill="#F36D21" d="M281.1,177.4h-33.6c-7.5,0-13.6-6.1-13.6-13.6v-33.7c0-7.5,6.1-13.6,13.6-13.6h33.6
		c7.5,0,13.6,6.1,13.6,13.6v33.7C294.8,171.3,288.6,177.4,281.1,177.4z"/>
	<path fill="#D92380" d="M324.1,139h-33.6c-7.5,0-13.6-6.1-13.6-13.6V91.7c0-7.5,6.1-13.6,13.6-13.6h33.6c7.5,0,13.6,6.1,13.6,13.6
		v33.7C337.7,132.9,331.6,139,324.1,139z"/>
	<path fill="#79BD43" d="M352.9,114.6h-15.1c-3.4,0-6.1-2.7-6.1-6.1V93.4c0-3.4,2.7-6.1,6.1-6.1h15.1c3.4,0,6.1,2.7,6.1,6.1v15.1
		C359,111.9,356.2,114.6,352.9,114.6z"/>
	<path fill="#F36D21" d="M124.8,124.1h-8.5c-1.9,0-3.5-1.6-3.5-3.5v-8.5c0-1.9,1.6-3.5,3.5-3.5h8.5c1.9,0,3.5,1.6,3.5,3.5v8.5
		C128.3,122.6,126.7,124.1,124.8,124.1z"/>
	<circle fill="#FCDC19" cx="326.2" cy="205.4" r="12.5"/>
	<circle fill="#CC2028" cx="235.3" cy="41.4" r="21.1"/>
	<rect x="328.3" y="68" fill="#4655A5" width="7.2" height="7.2"/>
	<rect x="341.9" y="69.3" fill="#139FDA" width="4.6" height="4.6"/>
	<rect x="354.8" y="70" fill="#F36D21" width="3.2" height="3.2"/>
	<rect x="113.7" y="41.9" fill="#4655A5" width="7.2" height="7.2"/>
	<rect x="127.3" y="43.2" fill="#139FDA" width="4.6" height="4.6"/>
	<rect x="140.3" y="43.9" fill="#F36D21" width="3.2" height="3.2"/>
	<rect x="214.8" y="18.3" fill="#4655A5" width="4.5" height="4.4"/>
	<rect x="207.3" y="18.3" fill="#343F49" width="4.5" height="4.4"/>
	<rect x="199.7" y="18.3" fill="#F36D21" width="4.5" height="4.4"/>
	<rect x="199.7" y="25" fill="#79BD43" width="4.5" height="4.4"/>
	<rect x="188.9" y="25" fill="#F36D21" width="4.5" height="4.4"/>
	<rect x="114" y="33.8" fill="#343F49" width="3.3" height="3.3"/>
	<rect x="108.4" y="33.8" fill="#F36D21" width="3.3" height="3.3"/>
	<rect x="102.8" y="33.8" fill="#F36D21" width="3.3" height="3.3"/>
	<rect x="238.2" y="183.9" fill="#139FDA" width="3.7" height="3.7"/>
	<rect x="260.1" y="183.9" fill="#F36D21" width="3.7" height="3.7"/>
	<rect x="231.9" y="183.9" fill="#F36D21" width="3.7" height="3.7"/>
	<rect x="231.9" y="190.4" fill="#79BD43" width="3.7" height="3.7"/>
	<rect x="225.6" y="183.9" fill="#F36D21" width="3.7" height="3.7"/>
	<rect x="217.2" y="184.4" fill="#F36D21" width="3.7" height="3.7"/>
	<rect x="211" y="184.4" fill="#79BD43" width="3.7" height="3.7"/>
	<rect x="204.7" y="184.4" fill="#FCDC19" width="3.7" height="3.7"/>
	<rect x="182.2" y="184.4" fill="#139FDA" width="3.7" height="3.7"/>
	<rect x="217.1" y="172.4" fill="#F36D21" width="5.1" height="5.1"/>
	<rect x="208.3" y="172.4" fill="#79BD43" width="5.1" height="5.1"/>
	<rect x="199.7" y="172.4" fill="#F36D21" width="5.1" height="5.1"/>
	<rect x="168.6" y="172.4" fill="#139FDA" width="5.1" height="5.1"/>
	<rect x="303" y="166.9" fill="#F36D21" width="3.9" height="3.9"/>
	<rect x="309.6" y="166.9" fill="#79BD43" width="3.9" height="3.9"/>
	<rect x="316.2" y="166.9" fill="#F36D21" width="3.9" height="3.9"/>
	<rect x="339.8" y="166.9" fill="#139FDA" width="3.9" height="3.9"/>
	<rect x="141.4" y="155.7" fill="#139FDA" width="4.2" height="4.2"/>
	<rect x="116.6" y="155.7" fill="#FCDC19" width="4.2" height="4.2"/>
	<rect x="148.6" y="155.7" fill="#F36D21" width="4.2" height="4.2"/>
	<rect x="148.6" y="148.2" fill="#79BD43" width="4.2" height="4.2"/>
	<rect x="155.7" y="155.7" fill="#CC2028" width="4.2" height="4.2"/>
	<rect x="156.1" y="163.2" fill="#F36D21" width="4.2" height="4.2"/>
	<rect x="163.2" y="163.2" fill="#79BD43" width="4.2" height="4.2"/>
	<rect x="170.4" y="163.2" fill="#CC2028" width="4.2" height="4.2"/>
	<rect x="196" y="163.2" fill="#139FDA" width="4.2" height="4.2"/>
	<rect x="303" y="156.3" fill="#4655A5" width="7.2" height="7.2"/>
	<rect x="327" y="156.3" fill="#4655A5" width="7.2" height="7.2"/>
	<rect x="290.6" y="156.3" fill="#139FDA" width="7.2" height="7.2"/>
	<rect x="278.4" y="156.3" fill="#F36D21" width="7.2" height="7.2"/>
	<path fill="#FFFFFF" d="M66.7,137.4c0-0.2-0.1-0.3-0.3-0.3c-0.1,0-0.2,0-0.2,0.1l-3.3,3.3c-0.1,0.1-0.1,0.3,0.1,0.4
		c0.1,0.1,0.3,0.1,0.4,0l3.3-3.3C66.6,137.5,66.7,137.5,66.7,137.4z M64.6,137.6l0.3-0.3c0.1-0.1,0.2-0.3,0.1-0.4
		c-0.1-0.1-0.3-0.2-0.4-0.1c0,0,0,0-0.1,0.1l-0.3,0.3c-0.1,0.1-0.2,0.3-0.1,0.4C64.2,137.7,64.4,137.8,64.6,137.6
		C64.6,137.6,64.6,137.6,64.6,137.6z M66.7,138.7c-0.1,0-0.2,0-0.2,0.1l-1,1c-0.1,0.1-0.2,0.3-0.1,0.4c0.1,0.1,0.3,0.2,0.4,0.1
		c0,0,0,0,0.1-0.1l1-1c0.1-0.1,0.1-0.3,0-0.5C66.8,138.7,66.8,138.7,66.7,138.7L66.7,138.7z M75.8,128.2c0-0.2-0.1-0.3-0.3-0.3h-0.1
		l-13.7,5.9l0,0c-0.2,0.1-0.2,0.3-0.2,0.4c0,0.1,0.1,0.2,0.2,0.2l0,0l5.4,2.2l2.2,5.4l0,0c0,0.2,0.2,0.3,0.4,0.3
		c0.1,0,0.2-0.1,0.2-0.2l0,0l5.9-13.7l0,0C75.8,128.3,75.8,128.3,75.8,128.2L75.8,128.2z M62.6,134.1l11.5-4.9l-6.8,6.8L62.6,134.1z
		 M69.6,141.1l-1.9-4.6l6.8-6.8L69.6,141.1z"/>
	<path fill="#FFFFFF" d="M336.4,108.9c0,0.2,0.2,0.4,0.4,0.4h3.3c0-0.3,0.1-0.6,0.2-0.9h-2.9c0.3-1.3,1.4-1.8,2.6-2.2
		c1.4-0.3,2.4-1.6,2.4-3c0-1.1-0.4-2.1-1.1-2.8l-0.1-0.1H341c-0.1-0.4-0.1-0.8,0.1-1.1c0.1-0.3,0-0.6-0.1-0.8c-0.4-0.5-0.5-1.6,0-3
		c0.2-0.6,0.6-1.1,1.1-1.4c0.3-0.1,0.6-0.2,0.9-0.2c0.5,0,0.9,0.1,1.4,0.3v-0.1l0.3-0.7c-0.5-0.2-1.1-0.4-1.7-0.4
		c-0.5,0-1,0.1-1.4,0.3c-0.7,0.4-1.2,1.1-1.5,1.8c-0.7,1.6-0.5,3,0.1,3.9c-0.4,1.5,0.2,2,0.2,2c0.7,0.6,1.1,1.5,1,2.4
		c0,1-0.7,1.9-1.7,2.1C338.6,105.7,336.4,106.4,336.4,108.9z M341,109.8c0,0.3,0.2,0.5,0.5,0.5l0,0h14.6c0.3,0,0.5-0.2,0.5-0.5
		c0,0,0,0,0,0c0-2.8-2.5-3.6-3.7-4c-1.1-0.3-1.8-1.2-1.8-2.4c0-1,0.3-2,1-2.7c0,0,0.6-0.6,0.1-2.2s1-2.2,0.5-3.5
		c-0.4-1.2-1.2-2.1-2.4-2.5c-0.7-0.3-1.4-0.5-2.2-0.5c-0.5,0-1,0.1-1.5,0.3c-0.6,0.3-1,0.9-1.5,2c-0.5,1.1-0.6,3.3,0.1,4.3
		c-0.4,1.7,0.2,2.2,0.2,2.2c0.7,0.7,1.1,1.7,1,2.7c0,1.1-0.8,2.1-1.8,2.4C343.4,106.2,340.9,107,341,109.8L341,109.8z M341.9,109.3
		c0.2-1.6,1.6-2.2,3-2.7c1.5-0.4,2.5-1.7,2.5-3.2c0.1-1.1-0.3-2.2-1.1-3.1l-0.1-0.1H346c-0.2-0.4-0.2-0.9,0-1.4
		c0.1-0.3,0-0.6-0.1-0.8c-0.5-0.6-0.6-1.9,0.1-3.3c0.7-1.4,0.8-1.4,1.1-1.6c0.3-0.2,0.7-0.3,1-0.3c0.6,0,1.2,0.1,1.7,0.4h0.1
		c0.9,0.3,1.6,1,1.9,2c0.4,1-0.2,2.3-0.5,2.8c-0.1,0.2-0.1,0.4-0.1,0.6c0.2,0.5,0.2,1,0,1.4h-0.1l-0.1,0.1c-0.8,0.8-1.2,1.9-1.1,3.1
		c0,1.5,1,2.8,2.5,3.2c1.3,0.5,2.8,1.1,3,2.7L341.9,109.3z"/>
	<path fill="#FFFFFF" d="M49.2,37.6c0,0.4,0.3,0.7,0.7,0.7h28.5c0.4,0,0.7-0.3,0.7-0.7s-0.3-0.7-0.7-0.7h-0.7V19.3h0.7
		c0.4,0,0.7-0.3,0.7-0.7c0-0.4-0.3-0.7-0.7-0.7h-0.7v-2.8c0-0.8-0.6-1.4-1.4-1.4l0,0H51.9c-0.8,0-1.4,0.6-1.4,1.4c0,0,0,0,0,0v2.7
		h-0.7c-0.4,0-0.7,0.3-0.7,0.7c0,0.4,0.3,0.7,0.7,0.7h0.7v17.6h-0.7C49.5,36.9,49.2,37.2,49.2,37.6C49.2,37.5,49.2,37.6,49.2,37.6z
		 M62.8,30.1h2.7v6.8h-2.7V30.1z M51.9,22.4c1,1.1,2.7,1.2,3.8,0.3c0.1-0.1,0.2-0.2,0.3-0.3c1,1.1,2.7,1.2,3.8,0.3
		c0.1-0.1,0.2-0.2,0.3-0.3c1,1.1,2.7,1.2,3.8,0.3c0.1-0.1,0.2-0.2,0.3-0.3c1,1.1,2.7,1.2,3.8,0.3c0.1-0.1,0.2-0.2,0.3-0.3
		c1,1.1,2.7,1.2,3.8,0.3c0.1-0.1,0.2-0.2,0.3-0.3c1,1.1,2.7,1.2,3.8,0.3c0.1-0.1,0.2-0.2,0.3-0.3v14.6h-9.4v-7.5
		c0-0.4-0.3-0.7-0.7-0.7h-4.1c-0.4,0-0.7,0.3-0.7,0.7v7.5h-9.6V22.4z M74.4,22c-0.8,0-1.4-0.6-1.4-1.4c0,0,0,0,0,0v-1.3h2.8v1.4
		C75.7,21.4,75.1,22,74.4,22z M70.3,22c-0.8,0-1.4-0.6-1.4-1.4c0,0,0,0,0,0v-1.3h2.7v1.4C71.6,21.4,71,22,70.3,22z M66.2,22
		c-0.8,0-1.4-0.6-1.4-1.4c0,0,0,0,0,0v-1.3h2.7v1.4C67.5,21.4,66.9,22,66.2,22z M62.2,22c-0.8,0-1.4-0.6-1.4-1.4c0,0,0,0,0,0v-1.3
		h2.7v1.4C63.4,21.4,62.9,22,62.2,22z M58.1,22c-0.8,0-1.4-0.6-1.4-1.4c0,0,0,0,0,0v-1.3h2.7v1.4C59.4,21.4,58.8,22,58.1,22z M54,22
		c-0.8,0-1.4-0.6-1.4-1.4c0,0,0,0,0,0v-1.3h2.7v1.4C55.3,21.4,54.7,22,54,22L54,22z M52,15.2h24.5v2.7H51.9L52,15.2z M54.7,29.5v4.1
		c0,0.4,0.3,0.7,0.7,0.7h4.1c0.4,0,0.7-0.3,0.7-0.7v-4.1c0-0.4-0.3-0.7-0.7-0.7h-4.1C55,28.8,54.7,29.1,54.7,29.5
		C54.7,29.5,54.7,29.5,54.7,29.5L54.7,29.5z M56.1,30.1h2.7v2.7h-2.7L56.1,30.1z M68.3,29.5v4.1c0,0.4,0.3,0.7,0.7,0.7H73
		c0.4,0,0.7-0.3,0.7-0.7v-4.1c0-0.4-0.3-0.7-0.7-0.7H69C68.6,28.8,68.3,29,68.3,29.5C68.3,29.4,68.3,29.4,68.3,29.5L68.3,29.5z
		 M69.7,30.1h2.7v2.7h-2.7V30.1z"/>
	<path fill="#D92380" d="M239.3,228.2h-14.7c-3.3,0-6-2.7-6-6v-14.7c0-3.3,2.7-6,6-6h14.7c3.3,0,6,2.7,6,6v14.7
		C245.2,225.5,242.6,228.2,239.3,228.2z"/>
	<path fill="#FFFFFF" d="M291,103.2c0,12.6,15.5,27.1,15.5,27.1s15.5-14.5,15.5-27.1c0-8.5-6.9-15.5-15.5-15.5
		C297.9,87.8,291,94.7,291,103.2L291,103.2z M293,103.2c0.5-7.5,7-13.1,14.5-12.6c6.8,0.5,12.1,5.8,12.6,12.6
		c0,11.6-13.6,24.2-13.6,24.2S292.9,114.8,293,103.2L293,103.2z M298.8,103.2c0,4.3,3.5,7.7,7.7,7.7c4.3,0,7.7-3.5,7.7-7.7
		c0-4.3-3.5-7.7-7.7-7.7l0,0C302.3,95.5,298.8,98.9,298.8,103.2C298.8,103.2,298.8,103.2,298.8,103.2L298.8,103.2z M300.8,103.2
		c0-3.2,2.6-5.8,5.8-5.8c3.2,0,5.8,2.6,5.8,5.8s-2.6,5.8-5.8,5.8c-3.2,0.1-5.9-2.5-6-5.7c0,0,0-0.1,0-0.1H300.8z"/>
	<path fill="#D92380" d="M161.9,17.3l6.8-6.8c0.2-0.3,0.7-0.3,0.9-0.1c0,0,0,0,0.1,0.1l6.8,6.8c0.3,0.3,0.3,0.7,0,1
		c-0.3,0.3-0.7,0.3-1,0l-5.6-5.6v26.9c0,0.4-0.3,0.7-0.7,0.7c-0.4,0-0.7-0.3-0.7-0.7V12.6l-5.6,5.6c-0.3,0.3-0.7,0.3-1,0
		C161.6,18,161.6,17.5,161.9,17.3L161.9,17.3z"/>
	<path fill="none" stroke="#D92380" stroke-width="2" stroke-miterlimit="10" d="M161.9,17.3l6.8-6.8c0.2-0.3,0.7-0.3,0.9-0.1
		c0,0,0,0,0.1,0.1l6.8,6.8c0.3,0.3,0.3,0.7,0,1c-0.3,0.3-0.7,0.3-1,0l-5.6-5.6v26.9c0,0.4-0.3,0.7-0.7,0.7c-0.4,0-0.7-0.3-0.7-0.7
		V12.6l-5.6,5.6c-0.3,0.3-0.7,0.3-1,0C161.6,18,161.6,17.5,161.9,17.3L161.9,17.3z"/>
	<path fill="#D92380" d="M305.2,177.3h26.9l-5.6-5.6c-0.3-0.3-0.3-0.7,0-1c0.3-0.3,0.7-0.3,1,0l6.8,6.8c0.3,0.2,0.3,0.7,0.1,0.9
		c0,0,0,0-0.1,0.1l-6.8,6.8c-0.3,0.3-0.7,0.3-1,0c-0.3-0.3-0.3-0.7,0-1l5.6-5.6h-26.9c-0.4,0-0.7-0.3-0.7-0.7
		C304.5,177.6,304.8,177.3,305.2,177.3L305.2,177.3z"/>
	<path fill="none" stroke="#D92380" stroke-miterlimit="10" d="M305.2,177.3h26.9l-5.6-5.6c-0.3-0.3-0.3-0.7,0-1
		c0.3-0.3,0.7-0.3,1,0l6.8,6.8c0.3,0.2,0.3,0.7,0.1,0.9c0,0,0,0-0.1,0.1l-6.8,6.8c-0.3,0.3-0.7,0.3-1,0c-0.3-0.3-0.3-0.7,0-1
		l5.6-5.6h-26.9c-0.4,0-0.7-0.3-0.7-0.7C304.5,177.6,304.8,177.3,305.2,177.3L305.2,177.3z"/>
	<path fill="#139FDA" d="M255.3,219.7h12.1l-4.1-4.1c-0.2-0.2-0.2-0.6,0.1-0.7c0.1-0.1,0.2-0.1,0.3-0.1l0.3,0.1l5,5
		c0.2,0.2,0.2,0.5,0,0.7l-5,5l-0.3,0.1c-0.3,0-0.5-0.3-0.4-0.6c0-0.1,0.1-0.2,0.1-0.3l4.1-4.1h-12.1c-0.3-0.1-0.4-0.4-0.3-0.7
		C255,219.9,255.1,219.7,255.3,219.7L255.3,219.7z"/>
	<path fill="none" stroke="#139FDA" stroke-miterlimit="10" d="M255.3,219.7h12.1l-4.1-4.1c-0.2-0.2-0.2-0.6,0.1-0.7
		c0.1-0.1,0.2-0.1,0.3-0.1l0.3,0.1l5,5c0.2,0.2,0.2,0.5,0,0.7l-5,5l-0.3,0.1c-0.3,0-0.5-0.3-0.4-0.6c0-0.1,0.1-0.2,0.1-0.3l4.1-4.1
		h-12.1c-0.3-0.1-0.4-0.4-0.3-0.7C255,219.9,255.1,219.7,255.3,219.7L255.3,219.7z"/>
	<path fill="#139FDA" d="M193,8.3l-5-5l-0.3-0.1l-0.3,0.1l-5,5c-0.2,0.2-0.2,0.6,0.1,0.7c0.1,0.1,0.2,0.1,0.3,0.1L183,9l4.1-4.1
		v12.1c0.1,0.3,0.4,0.4,0.7,0.3c0.1-0.1,0.3-0.2,0.3-0.3V4.9l4.1,4.1l0.3,0.1c0.3,0,0.5-0.3,0.4-0.6C193,8.4,193,8.4,193,8.3
		L193,8.3z"/>
	<path fill="none" stroke="#139FDA" stroke-linecap="round" stroke-linejoin="round" stroke-miterlimit="10" d="M193,8.3l-5-5
		l-0.3-0.1l-0.3,0.1l-5,5c-0.2,0.2-0.2,0.6,0.1,0.7c0.1,0.1,0.2,0.1,0.3,0.1L183,9l4.1-4.1v12.1c0.1,0.3,0.4,0.4,0.7,0.3
		c0.1-0.1,0.3-0.2,0.3-0.3V4.9l4.1,4.1l0.3,0.1c0.3,0,0.5-0.3,0.4-0.6C193,8.4,193,8.4,193,8.3L193,8.3z"/>
	<path fill="#79BD43" d="M20.7,205.7l6.8-6.8c0.3-0.3,0.7-0.3,1,0c0.3,0.3,0.3,0.7,0,1l-5.6,5.6h16.4c0.4,0,0.7,0.3,0.7,0.7
		c0,0.4-0.3,0.7-0.7,0.7H22.8l5.6,5.6c0.3,0.3,0.3,0.7,0,1c-0.3,0.3-0.7,0.3-1,0l-6.8-6.8C20.4,206.5,20.4,206.1,20.7,205.7
		C20.6,205.8,20.6,205.7,20.7,205.7z"/>
	<path fill="none" stroke="#79BD43" stroke-miterlimit="10" d="M20.7,205.7l6.8-6.8c0.3-0.3,0.7-0.3,1,0c0.3,0.3,0.3,0.7,0,1
		l-5.6,5.6h16.4c0.4,0,0.7,0.3,0.7,0.7c0,0.4-0.3,0.7-0.7,0.7H22.8l5.6,5.6c0.3,0.3,0.3,0.7,0,1c-0.3,0.3-0.7,0.3-1,0l-6.8-6.8
		C20.4,206.5,20.4,206.1,20.7,205.7C20.6,205.8,20.6,205.7,20.7,205.7z"/>
	<path fill="#79BD43" d="M141.6,27.8l6.8-6.8c0.2-0.3,0.7-0.3,0.9-0.1c0,0,0,0,0.1,0.1l6.8,6.8c0.3,0.3,0.3,0.7,0,1
		c-0.3,0.3-0.7,0.3-1,0l-5.6-5.6v16.4c0,0.4-0.3,0.7-0.7,0.7c-0.4,0-0.7-0.3-0.7-0.7V23.1l-5.6,5.6c-0.3,0.3-0.7,0.3-1,0
		C141.3,28.5,141.3,28,141.6,27.8L141.6,27.8z"/>
	<path fill="none" stroke="#79BD43" stroke-width="2" stroke-miterlimit="10" d="M141.6,27.8l6.8-6.8c0.2-0.3,0.7-0.3,0.9-0.1
		c0,0,0,0,0.1,0.1l6.8,6.8c0.3,0.3,0.3,0.7,0,1c-0.3,0.3-0.7,0.3-1,0l-5.6-5.6v16.4c0,0.4-0.3,0.7-0.7,0.7c-0.4,0-0.7-0.3-0.7-0.7
		V23.1l-5.6,5.6c-0.3,0.3-0.7,0.3-1,0C141.3,28.5,141.3,28,141.6,27.8L141.6,27.8z"/>
	<path fill="#4655A5" d="M281.1,198.9l-6.8-6.8c-0.3-0.3-0.7-0.3-1,0c-0.3,0.3-0.3,0.7,0,1l5.6,5.6h-16.4c-0.4,0-0.7,0.3-0.7,0.7
		c0,0.4,0.3,0.7,0.7,0.7H279l-5.6,5.6c-0.3,0.3-0.3,0.7,0,1c0.3,0.3,0.7,0.3,1,0l6.8-6.8C281.4,199.6,281.4,199.2,281.1,198.9
		C281.2,198.9,281.1,198.9,281.1,198.9L281.1,198.9z"/>
	<path fill="none" stroke="#4655A5" stroke-miterlimit="10" d="M281.1,198.9l-6.8-6.8c-0.3-0.3-0.7-0.3-1,0c-0.3,0.3-0.3,0.7,0,1
		l5.6,5.6h-16.4c-0.4,0-0.7,0.3-0.7,0.7c0,0.4,0.3,0.7,0.7,0.7H279l-5.6,5.6c-0.3,0.3-0.3,0.7,0,1c0.3,0.3,0.7,0.3,1,0l6.8-6.8
		C281.4,199.6,281.4,199.2,281.1,198.9C281.2,198.9,281.1,198.9,281.1,198.9L281.1,198.9z"/>
	<path fill="#109C49" d="M282.9,64.9h16.4l-5.6-5.6c-0.3-0.3-0.3-0.7,0-1c0.3-0.3,0.7-0.3,1,0l6.8,6.8c0.3,0.2,0.3,0.7,0.1,0.9
		c0,0,0,0-0.1,0.1l-6.8,6.8c-0.3,0.3-0.7,0.3-1,0c-0.3-0.3-0.3-0.7,0-1l5.6-5.6h-16.4c-0.4,0-0.7-0.3-0.7-0.7S282.5,64.9,282.9,64.9
		L282.9,64.9z"/>
	<path fill="none" stroke="#109C49" stroke-miterlimit="10" d="M282.9,64.9h16.4l-5.6-5.6c-0.3-0.3-0.3-0.7,0-1c0.3-0.3,0.7-0.3,1,0
		l6.8,6.8c0.3,0.2,0.3,0.7,0.1,0.9c0,0,0,0-0.1,0.1l-6.8,6.8c-0.3,0.3-0.7,0.3-1,0c-0.3-0.3-0.3-0.7,0-1l5.6-5.6h-16.4
		c-0.4,0-0.7-0.3-0.7-0.7S282.5,64.9,282.9,64.9L282.9,64.9z"/>
	<path fill="#FCDC19" d="M86.4,233.5l4.4-4.4l0.3-0.1c0.3,0,0.4,0.3,0.4,0.5c0,0.1,0,0.2-0.1,0.2l-3.7,3.7h10.7
		c0.2-0.1,0.5,0,0.6,0.3c0.1,0.2,0,0.5-0.3,0.6c-0.1,0-0.2,0-0.3,0H87.8l3.7,3.7c0.1,0.2,0.1,0.5-0.1,0.6c-0.1,0-0.1,0.1-0.2,0.1
		l-0.3-0.1l-4.4-4.4C86.2,233.9,86.2,233.6,86.4,233.5C86.4,233.4,86.4,233.4,86.4,233.5L86.4,233.5z"/>
	<path fill="none" stroke="#FCDC19" stroke-miterlimit="10" d="M86.4,233.5l4.4-4.4l0.3-0.1c0.3,0,0.4,0.3,0.4,0.5
		c0,0.1,0,0.2-0.1,0.2l-3.7,3.7h10.7c0.2-0.1,0.5,0,0.6,0.3c0.1,0.2,0,0.5-0.3,0.6c-0.1,0-0.2,0-0.3,0H87.8l3.7,3.7
		c0.1,0.2,0.1,0.5-0.1,0.6c-0.1,0-0.1,0.1-0.2,0.1l-0.3-0.1l-4.4-4.4C86.2,233.9,86.2,233.6,86.4,233.5
		C86.4,233.4,86.4,233.4,86.4,233.5L86.4,233.5z"/>
	<path fill="#FFFFFF" d="M200.5,138.2c0,0.3,0.2,0.5,0.5,0.5h0h6c0.3,1,1.3,1.6,2.3,1.3c0.6-0.2,1.1-0.7,1.3-1.3h4.2
		c0.3,0,0.5-0.2,0.5-0.5c0-0.3-0.2-0.5-0.5-0.5c0,0,0,0,0,0h-4.2c-0.3-1-1.3-1.6-2.3-1.3c-0.6,0.2-1.1,0.7-1.3,1.3h-6
		C200.7,137.7,200.5,137.9,200.5,138.2z M207.9,138.2c0-0.5,0.4-0.9,0.9-0.9c0.5,0,0.9,0.4,0.9,0.9c0,0.5-0.4,0.9-0.9,0.9l0,0
		C208.3,139.1,207.9,138.7,207.9,138.2z M197.8,124.9v16.5c0,1,0.8,1.8,1.8,1.8h16.5c1,0,1.8-0.8,1.8-1.8v-16.5c0-1-0.8-1.8-1.8-1.8
		h-16.5C198.6,123,197.8,123.9,197.8,124.9z M198.7,124.9c0-0.5,0.4-0.9,0.9-0.9h16.5c0.5,0,0.9,0.4,0.9,0.9v16.5
		c0,0.5-0.4,0.9-0.9,0.9h-16.5c-0.5,0-0.9-0.4-0.9-0.9V124.9z M200.5,128.1c0,0.3,0.2,0.5,0.5,0.5l0,0h7.9c0.3,1,1.3,1.6,2.3,1.3
		c0.6-0.2,1.1-0.7,1.3-1.3h2.4c0.3,0,0.5-0.2,0.5-0.5c0-0.3-0.2-0.5-0.5-0.5c0,0,0,0,0,0h-2.4c-0.3-1-1.3-1.6-2.3-1.3
		c-0.6,0.2-1.1,0.7-1.3,1.3H201C200.7,127.6,200.5,127.8,200.5,128.1C200.5,128.1,200.5,128.1,200.5,128.1L200.5,128.1z
		 M209.7,128.1c0-0.5,0.4-0.9,0.9-0.9s0.9,0.4,0.9,0.9c0,0.5-0.4,0.9-0.9,0.9l0,0C210.1,129,209.7,128.6,209.7,128.1L209.7,128.1z
		 M200.5,133.1c0,0.3,0.2,0.5,0.5,0.5l0,0h1.4c0.3,1,1.3,1.6,2.3,1.3c0.6-0.2,1.1-0.7,1.3-1.3h8.8c0.3,0,0.5-0.2,0.5-0.5
		c0-0.3-0.2-0.5-0.5-0.5c0,0,0,0,0,0H206c-0.3-1-1.3-1.6-2.3-1.3c-0.6,0.2-1.1,0.7-1.3,1.3H201C200.7,132.7,200.5,132.9,200.5,133.1
		C200.5,133.1,200.5,133.1,200.5,133.1L200.5,133.1z M203.3,133.1c0-0.5,0.4-0.9,0.9-0.9c0.5,0,0.9,0.4,0.9,0.9
		c0,0.5-0.4,0.9-0.9,0.9l0,0C203.7,134,203.3,133.6,203.3,133.1L203.3,133.1z"/>
	<path fill="none" stroke="#FFFFFF" stroke-width="0.5" stroke-miterlimit="10" d="M200.5,138.2c0,0.3,0.2,0.5,0.5,0.5h0h6
		c0.3,1,1.3,1.6,2.3,1.3c0.6-0.2,1.1-0.7,1.3-1.3h4.2c0.3,0,0.5-0.2,0.5-0.5c0-0.3-0.2-0.5-0.5-0.5c0,0,0,0,0,0h-4.2
		c-0.3-1-1.3-1.6-2.3-1.3c-0.6,0.2-1.1,0.7-1.3,1.3h-6C200.7,137.7,200.5,137.9,200.5,138.2z M207.9,138.2c0-0.5,0.4-0.9,0.9-0.9
		c0.5,0,0.9,0.4,0.9,0.9c0,0.5-0.4,0.9-0.9,0.9l0,0C208.3,139.1,207.9,138.7,207.9,138.2z M197.8,124.9v16.5c0,1,0.8,1.8,1.8,1.8
		h16.5c1,0,1.8-0.8,1.8-1.8v-16.5c0-1-0.8-1.8-1.8-1.8h-16.5C198.6,123,197.8,123.9,197.8,124.9z M198.7,124.9
		c0-0.5,0.4-0.9,0.9-0.9h16.5c0.5,0,0.9,0.4,0.9,0.9v16.5c0,0.5-0.4,0.9-0.9,0.9h-16.5c-0.5,0-0.9-0.4-0.9-0.9V124.9z M200.5,128.1
		c0,0.3,0.2,0.5,0.5,0.5l0,0h7.9c0.3,1,1.3,1.6,2.3,1.3c0.6-0.2,1.1-0.7,1.3-1.3h2.4c0.3,0,0.5-0.2,0.5-0.5c0-0.3-0.2-0.5-0.5-0.5
		c0,0,0,0,0,0h-2.4c-0.3-1-1.3-1.6-2.3-1.3c-0.6,0.2-1.1,0.7-1.3,1.3H201C200.7,127.6,200.5,127.8,200.5,128.1
		C200.5,128.1,200.5,128.1,200.5,128.1L200.5,128.1z M209.7,128.1c0-0.5,0.4-0.9,0.9-0.9s0.9,0.4,0.9,0.9c0,0.5-0.4,0.9-0.9,0.9l0,0
		C210.1,129,209.7,128.6,209.7,128.1L209.7,128.1z M200.5,133.1c0,0.3,0.2,0.5,0.5,0.5l0,0h1.4c0.3,1,1.3,1.6,2.3,1.3
		c0.6-0.2,1.1-0.7,1.3-1.3h8.8c0.3,0,0.5-0.2,0.5-0.5c0-0.3-0.2-0.5-0.5-0.5c0,0,0,0,0,0H206c-0.3-1-1.3-1.6-2.3-1.3
		c-0.6,0.2-1.1,0.7-1.3,1.3H201C200.7,132.7,200.5,132.9,200.5,133.1C200.5,133.1,200.5,133.1,200.5,133.1L200.5,133.1z
		 M203.3,133.1c0-0.5,0.4-0.9,0.9-0.9c0.5,0,0.9,0.4,0.9,0.9c0,0.5-0.4,0.9-0.9,0.9l0,0C203.7,134,203.3,133.6,203.3,133.1
		L203.3,133.1z"/>
	<path fill="#FFFFFF" d="M116.6,117v-1.1h3.5v-3.5h1.1v3.5h3.5v1.1h-3.5v3.5h-1.1V117H116.6z"/>
	<g>
		<defs>
			<path id="SVGID_1_" d="M6,164.3h14.7c3.3,0,6,2.7,6,6V185c0,3.3-2.7,6-6,6H6c-3.3,0-6-2.7-6-6v-14.7C0,167,2.7,164.3,6,164.3z"/>
		</defs>
		<clipPath id="SVGID_4_">
			<use xlink:href="#SVGID_1_"  overflow="visible"/>
		</clipPath>
		<g clip-path="url(#SVGID_4_)">
			<path fill="#4655A5" d="M6,164.3h14.7c3.3,0,6,2.7,6,6V185c0,3.3-2.7,6-6,6H6c-3.3,0-6-2.7-6-6v-14.7C0,167,2.7,164.3,6,164.3z"
				/>
			<path fill="#FFFFFF" d="M13.8,171.3c0,0.9,0.8,1.7,1.7,1.7c0.9,0,1.7-0.8,1.7-1.7c0-0.9-0.8-1.7-1.7-1.7
				C14.5,169.6,13.8,170.4,13.8,171.3L13.8,171.3z M8.1,171.3c0,0.9,0.8,1.7,1.7,1.7c0.9,0,1.7-0.8,1.7-1.7c0-0.9-0.8-1.7-1.7-1.7
				C8.9,169.6,8.1,170.4,8.1,171.3L8.1,171.3z M2.5,171.3c0,0.9,0.8,1.7,1.7,1.7c0.9,0,1.7-0.8,1.7-1.7c0-0.9-0.8-1.7-1.7-1.7
				C3.3,169.6,2.5,170.4,2.5,171.3L2.5,171.3z M-2.6,171.3c0,5.6,5.5,10.1,12.3,10.1c1.2,0,2.3-0.1,3.5-0.4l6.6,2.7l-1.2-5.4
				c2.1-1.7,3.4-4.3,3.5-7c0-5.6-5.5-10.1-12.3-10.1S-2.6,165.7-2.6,171.3z M-1.4,171.3c0-5,5-9,11.2-9s11.2,4,11.2,9
				c-0.1,2.4-1.2,4.7-3.1,6.2c-0.3,0.3-0.5,0.7-0.4,1.1l0.8,3.2l-4.7-1.8H13c-1.1,0.3-2.1,0.4-3.2,0.4
				C3.6,180.3-1.4,176.2-1.4,171.3L-1.4,171.3z"/>
		</g>
	</g>
	<path fill="#109C49" d="M62.6,162.4H44.5c-1.4,0-2.6-1.1-2.6-2.6v-18.1c0-1.4,1.1-2.6,2.6-2.6h18.1c1.4,0,2.6,1.1,2.6,2.6v18.1
		C65.2,161.2,64,162.4,62.6,162.4z"/>
	<path fill="#FFFFFF" d="M51.7,151.6l1.8-1.8v9.8c0,0.2,0.2,0.4,0.4,0.4c0.2,0,0.4-0.2,0.4-0.4l0,0v-9.8l1.8,1.8l0.3,0.1
		c0.2,0,0.4-0.1,0.4-0.3c0-0.2,0-0.3-0.2-0.4l-2.5-2.5l-0.3-0.1l-0.3,0.1l-2.5,2.5c-0.2,0.1-0.2,0.4-0.1,0.5
		c0.1,0.1,0.2,0.2,0.4,0.2L51.7,151.6z M44.8,150.8c0,2.3,1.8,4.1,4.1,4.1h3.3c0.2,0,0.4-0.2,0.4-0.4s-0.2-0.4-0.4-0.4h-3.3
		c-1.8-0.1-3.3-1.6-3.2-3.5c0-1.2,0.8-2.4,1.9-2.9l0.5-0.3v-0.6l0,0c0-0.1,0-0.1,0-0.2c0-2.3,1.8-4.1,4.1-4.1c1.5,0,3,0.9,3.7,2.2
		l0.3,0.7l0.7-0.3l0.7-0.1c1.2,0,2.1,0.9,2.1,2.1l0,0c0,0.2,0,0.3-0.1,0.5l-0.1,0.7l0.7,0.3c1.5,0.5,2.4,2.1,1.9,3.6
		c-0.4,1.2-1.5,2.1-2.8,2h-3.7c-0.2,0-0.4,0.2-0.4,0.4s0.2,0.4,0.4,0.4h3.7c2.1,0,3.7-1.7,3.7-3.8c0-1.6-1-3-2.5-3.5
		c0.3-1.6-0.7-3.1-2.2-3.4c-0.2,0-0.4-0.1-0.6-0.1l-1,0.2c-1.3-2.4-4.3-3.3-6.7-2c-1.6,0.9-2.6,2.5-2.6,4.3c0,0.1,0,0.2,0,0.3
		C45.9,147.8,44.9,149.2,44.8,150.8L44.8,150.8z"/>
	<path fill="#FFFFFF" d="M282.9,142c-1.2-1.2-2.8-1.9-4.5-1.9H274v-2.3c0-0.6-0.5-1-1-1l0,0h-20.5c-0.6,0-1,0.5-1,1l0,0v3.6h-4
		c-0.6,0-1,0.5-1,1c0,0.6,0.5,1,1,1h5c0.6,0,1-0.5,1-1l0,0v-3.6H272v16.1h-9.8c-0.7-1.8-2.7-2.6-4.5-1.9c-0.9,0.4-1.6,1-1.9,1.9
		h-2.3v-3.6c0-0.6-0.5-1-1-1c0,0,0,0,0,0h-5c-0.6,0-1,0.5-1,1s0.5,1,1,1h4v3.6c0,0.6,0.5,1,1,1c0,0,0,0,0,0h3.2
		c0.4,1.9,2.3,3,4.2,2.6c1.3-0.3,2.3-1.3,2.6-2.6h12.3c0.4,1.9,2.3,3,4.2,2.6c1.3-0.3,2.3-1.3,2.6-2.6h2.3c0.6,0,1-0.5,1-1l0,0v-8.7
		C284.8,145.4,284.1,143.5,282.9,142z M258.9,157.6c-0.8,0-1.4-0.6-1.4-1.4c0-0.8,0.6-1.4,1.4-1.4s1.4,0.6,1.4,1.4l0,0
		C260.3,157,259.7,157.6,258.9,157.6L258.9,157.6z M278,157.6c-0.8,0-1.4-0.6-1.4-1.4c0-0.8,0.6-1.4,1.4-1.4c0.8,0,1.4,0.6,1.4,1.4
		l0,0C279.4,157,278.8,157.6,278,157.6L278,157.6z M282.7,154.9h-1.4c-0.7-1.8-2.7-2.6-4.5-1.9c-0.9,0.4-1.6,1-1.9,1.9h-0.8v-12.8
		h4.3c2.7,0,4.3,2,4.3,5.2L282.7,154.9z"/>
	<path fill="#FFFFFF" d="M260.4,148.7c-0.4,0.4-0.5,1-0.1,1.4c0.2,0.2,0.5,0.4,0.9,0.3c0.3,0,0.6-0.1,0.8-0.3l2.6-2.6h0.3
		c0-0.1,0-0.1,0-0.2h-0.3l-2.5-2.5c-0.4-0.4-1-0.4-1.4,0c-0.4,0.4-0.4,1,0,1.4l0.8,0.8h-17.6c-0.6,0-1,0.5-1,1s0.5,1,1,1h17.5
		L260.4,148.7z"/>
	<path fill="#FFFFFF" d="M230,209.5l-0.3,0.2c-0.1,0.1-0.2,0.2-0.2,0.3c0,0.1,0.1,0.2,0.2,0.3l0.3,0.2h0.5v-0.9L230,209.5z
		 M224.7,214.7c1.2,0,2.2,1,2.2,2.2c0,0.1,0,0.2,0,0.3c0.4,0.3,0.8,0.6,1.1,1.1c0.4,0.6,0.6,1.3,0.6,2l0,0c0,1.6,1.3,3,3,3
		c1.6,0,3-1.3,3-3v-1.8h-0.7c-2.8,0-5-2.3-5-5V210l0,0c0-0.3,0.1-0.7,0.4-0.9c0.2-0.2,0.6-0.4,0.9-0.4h0.9c0.2,0,0.4,0.2,0.4,0.4
		l0,0v1.7c0,0.2-0.2,0.4-0.4,0.4c0,0,0,0-0.1,0h-0.8v2.1c0,2,1.7,3.6,3.7,3.7h1.1c2,0,3.6-1.7,3.7-3.7v-2.1h-0.8
		c-0.2,0-0.4-0.2-0.4-0.4v0v-1.7l0,0c0-0.2,0.2-0.4,0.4-0.4l0,0h0.9c0.3,0,0.7,0.1,0.9,0.4c0.2,0.2,0.4,0.6,0.4,0.9l0,0v3.4
		c0,2.6-2,4.8-4.7,5v1.8c0,2.1-1.7,3.8-3.8,3.8s-3.8-1.7-3.8-3.8l0,0c0-0.6-0.1-1.1-0.4-1.6c-0.2-0.3-0.4-0.5-0.6-0.7l-0.3,0.4
		c-0.8,0.9-2.2,0.9-3.1,0c-0.9-0.8-0.9-2.2,0-3.1C223.6,214.9,224.2,214.7,224.7,214.7L224.7,214.7z M238.2,209.5v0.9h0.5
		c0.1,0,0.2-0.1,0.3-0.2c0.1-0.1,0.2-0.2,0.2-0.3c0-0.1-0.1-0.2-0.2-0.3c-0.1-0.1-0.2-0.2-0.3-0.2L238.2,209.5z M224.2,216.2
		c-0.3,0.3-0.3,0.8,0.1,1.1c0.1,0.1,0.3,0.2,0.5,0.2c0.2,0,0.4-0.1,0.5-0.2c0.3-0.3,0.3-0.8-0.1-1.1c-0.1-0.1-0.3-0.2-0.5-0.2
		C224.6,216,224.3,216.1,224.2,216.2z"/>
	<g>
		<path fill="#FFFFFF" d="M318,204.3v2.2c0,0.3,0.3,0.5,0.6,0.6l0.8,0.2c0.2,0.6,0.4,1.2,0.7,1.7l-0.4,0.7c-0.2,0.2-0.2,0.5,0,0.8
			l1.5,1.5c0.1,0.1,0.2,0.1,0.3,0.1l0.4-0.1l0.7-0.4c0.5,0.3,1.1,0.6,1.7,0.7l0.2,0.8c0.1,0.3,0.2,0.6,0.6,0.6h2.2
			c0.3,0,0.5-0.3,0.6-0.6l0.2-0.8c0.6-0.2,1.2-0.4,1.7-0.7l0.7,0.4l0.4,0.1c0.1,0,0.2,0,0.3-0.1l1.6-1.6c0.2-0.2,0.2-0.5,0-0.8
			l-0.4-0.7c0.3-0.5,0.6-1.1,0.7-1.7l0.8-0.2c0.3-0.1,0.6-0.2,0.6-0.6v-2.1c0-0.3-0.3-0.5-0.6-0.6l-0.8-0.2
			c-0.2-0.6-0.4-1.2-0.7-1.7l0.4-0.7c0.2-0.2,0.2-0.5,0-0.8l-1.6-1.6c-0.1-0.1-0.2-0.1-0.3-0.1l-0.4,0.1l-0.7,0.4
			c-0.5-0.3-1.1-0.6-1.7-0.7l-0.2-0.8c0-0.3-0.2-0.6-0.6-0.6H325c-0.3,0-0.5,0.3-0.6,0.6l-0.2,0.8c-0.6,0.2-1.2,0.4-1.7,0.7
			l-0.7-0.4l-0.4-0.1c-0.1,0-0.2,0.1-0.3,0.1l-1.6,1.6c-0.2,0.2-0.2,0.5,0,0.8l0.4,0.7c-0.3,0.5-0.6,1.1-0.7,1.7l-0.8,0.2
			C318.2,203.8,318,204,318,204.3z M318.7,204.5l0.8-0.2c0.3-0.1,0.5-0.3,0.5-0.5c0.1-0.5,0.3-1,0.6-1.5c0.1-0.2,0.1-0.5,0-0.8
			l-0.4-0.7l0,0l1.3-1.3l0.7,0.4l0.4,0.1l0.4-0.1c0.5-0.3,1-0.5,1.5-0.6c0.3-0.1,0.5-0.3,0.5-0.5l0.2-0.8h1.9l0.2,0.8
			c0.1,0.3,0.3,0.5,0.5,0.5c0.5,0.1,1,0.3,1.5,0.6l0.4,0.1l0.4-0.1l0.7-0.4l1.3,1.3l0,0l-0.4,0.7c-0.1,0.2-0.1,0.5,0,0.8
			c0.3,0.5,0.5,1,0.7,1.5c0.1,0.3,0.3,0.5,0.5,0.5l0.8,0.2v1.9l0,0l-0.8,0.2c-0.3,0.1-0.5,0.3-0.5,0.5c-0.1,0.5-0.3,1-0.6,1.5
			c-0.1,0.2-0.1,0.5,0,0.8l0.4,0.7l-1.3,1.3l0,0l-0.7-0.4l-0.4-0.1l-0.4,0.1c-0.5,0.3-1,0.5-1.5,0.6c-0.3,0.1-0.5,0.3-0.5,0.5
			l-0.3,0.9h-1.8L325,212c-0.1-0.3-0.3-0.5-0.5-0.5c-0.5-0.1-1-0.3-1.5-0.6l-0.4-0.1l-0.4,0.1l-0.7,0.4l0,0l-1.3-1.3l0.4-0.7
			c0.1-0.2,0.1-0.5,0-0.8c-0.3-0.5-0.5-1-0.6-1.5c-0.1-0.3-0.3-0.6-0.7-0.6l-0.8-0.2l0,0L318.7,204.5z M321.7,205.4
			c0,2.5,2,4.5,4.5,4.5s4.5-2,4.5-4.5s-2-4.5-4.5-4.5C323.7,200.9,321.7,202.9,321.7,205.4C321.7,205.4,321.7,205.4,321.7,205.4
			L321.7,205.4z M329.2,203.3l-2,1.1c-0.6-0.6-1.5-0.6-2.1-0.1c0,0,0,0-0.1,0.1l-2-1.1c1.2-1.7,3.5-2.1,5.2-1
			C328.6,202.5,329,202.9,329.2,203.3z M326.5,206.8c0.8-0.2,1.3-1,1-1.8c0,0,0,0,0,0l2-1.1c0.8,1.9,0,4.1-1.8,4.9
			c-0.4,0.2-0.8,0.3-1.2,0.3V206.8z M326.1,206.1c-0.4,0-0.8-0.3-0.8-0.8s0.3-0.8,0.8-0.8s0.8,0.3,0.8,0.8l0,0
			C326.9,205.8,326.6,206.1,326.1,206.1z M322.7,203.9l2,1.1c-0.2,0.8,0.3,1.6,1,1.8c0,0,0,0,0,0v2.3c-2-0.2-3.5-2-3.4-4
			C322.4,204.7,322.5,204.3,322.7,203.9z"/>
		<path fill="none" stroke="#FFFFFF" stroke-width="0.5" stroke-miterlimit="10" d="M318,204.3v2.2c0,0.3,0.3,0.5,0.6,0.6l0.8,0.2
			c0.2,0.6,0.4,1.2,0.7,1.7l-0.4,0.7c-0.2,0.2-0.2,0.5,0,0.8l1.5,1.5c0.1,0.1,0.2,0.1,0.3,0.1l0.4-0.1l0.7-0.4
			c0.5,0.3,1.1,0.6,1.7,0.7l0.2,0.8c0.1,0.3,0.2,0.6,0.6,0.6h2.2c0.3,0,0.5-0.3,0.6-0.6l0.2-0.8c0.6-0.2,1.2-0.4,1.7-0.7l0.7,0.4
			l0.4,0.1c0.1,0,0.2,0,0.3-0.1l1.6-1.6c0.2-0.2,0.2-0.5,0-0.8l-0.4-0.7c0.3-0.5,0.6-1.1,0.7-1.7l0.8-0.2c0.3-0.1,0.6-0.2,0.6-0.6
			v-2.1c0-0.3-0.3-0.5-0.6-0.6l-0.8-0.2c-0.2-0.6-0.4-1.2-0.7-1.7l0.4-0.7c0.2-0.2,0.2-0.5,0-0.8l-1.6-1.6c-0.1-0.1-0.2-0.1-0.3-0.1
			l-0.4,0.1l-0.7,0.4c-0.5-0.3-1.1-0.6-1.7-0.7l-0.2-0.8c0-0.3-0.2-0.6-0.6-0.6H325c-0.3,0-0.5,0.3-0.6,0.6l-0.2,0.8
			c-0.6,0.2-1.2,0.4-1.7,0.7l-0.7-0.4l-0.4-0.1c-0.1,0-0.2,0.1-0.3,0.1l-1.6,1.6c-0.2,0.2-0.2,0.5,0,0.8l0.4,0.7
			c-0.3,0.5-0.6,1.1-0.7,1.7l-0.8,0.2C318.2,203.8,318,204,318,204.3z M318.7,204.5l0.8-0.2c0.3-0.1,0.5-0.3,0.5-0.5
			c0.1-0.5,0.3-1,0.6-1.5c0.1-0.2,0.1-0.5,0-0.8l-0.4-0.7l0,0l1.3-1.3l0.7,0.4l0.4,0.1l0.4-0.1c0.5-0.3,1-0.5,1.5-0.6
			c0.3-0.1,0.5-0.3,0.5-0.5l0.2-0.8h1.9l0.2,0.8c0.1,0.3,0.3,0.5,0.5,0.5c0.5,0.1,1,0.3,1.5,0.6l0.4,0.1l0.4-0.1l0.7-0.4l1.3,1.3
			l0,0l-0.4,0.7c-0.1,0.2-0.1,0.5,0,0.8c0.3,0.5,0.5,1,0.7,1.5c0.1,0.3,0.3,0.5,0.5,0.5l0.8,0.2v1.9l0,0l-0.8,0.2
			c-0.3,0.1-0.5,0.3-0.5,0.5c-0.1,0.5-0.3,1-0.6,1.5c-0.1,0.2-0.1,0.5,0,0.8l0.4,0.7l-1.3,1.3l0,0l-0.7-0.4l-0.4-0.1l-0.4,0.1
			c-0.5,0.3-1,0.5-1.5,0.6c-0.3,0.1-0.5,0.3-0.5,0.5l-0.3,0.9h-1.8L325,212c-0.1-0.3-0.3-0.5-0.5-0.5c-0.5-0.1-1-0.3-1.5-0.6
			l-0.4-0.1l-0.4,0.1l-0.7,0.4l0,0l-1.3-1.3l0.4-0.7c0.1-0.2,0.1-0.5,0-0.8c-0.3-0.5-0.5-1-0.6-1.5c-0.1-0.3-0.3-0.6-0.7-0.6
			l-0.8-0.2l0,0L318.7,204.5z M321.7,205.4c0,2.5,2,4.5,4.5,4.5s4.5-2,4.5-4.5s-2-4.5-4.5-4.5C323.7,200.9,321.7,202.9,321.7,205.4
			C321.7,205.4,321.7,205.4,321.7,205.4L321.7,205.4z M329.2,203.3l-2,1.1c-0.6-0.6-1.5-0.6-2.1-0.1c0,0,0,0-0.1,0.1l-2-1.1
			c1.2-1.7,3.5-2.1,5.2-1C328.6,202.5,329,202.9,329.2,203.3z M326.5,206.8c0.8-0.2,1.3-1,1-1.8c0,0,0,0,0,0l2-1.1
			c0.8,1.9,0,4.1-1.8,4.9c-0.4,0.2-0.8,0.3-1.2,0.3V206.8z M326.1,206.1c-0.4,0-0.8-0.3-0.8-0.8s0.3-0.8,0.8-0.8s0.8,0.3,0.8,0.8
			l0,0C326.9,205.8,326.6,206.1,326.1,206.1z M322.7,203.9l2,1.1c-0.2,0.8,0.3,1.6,1,1.8c0,0,0,0,0,0v2.3c-2-0.2-3.5-2-3.4-4
			C322.4,204.7,322.5,204.3,322.7,203.9z"/>
	</g>
	<path fill="#F1F2F2" d="M225.3,37.3v10.1h-0.6c-0.2,0-0.4,0.2-0.5,0.4l0,0l-1.2,3.4l0,0c0,0.1,0,0.1-0.1,0.2c0,0.3,0.3,0.6,0.6,0.6
		h23.7c0.3,0,0.6-0.3,0.6-0.6c0-0.1,0-0.1-0.1-0.2l0,0l-1.2-3.4l0,0c-0.1-0.2-0.3-0.4-0.5-0.4h-0.6V37.3h1.7c0.3,0,0.6-0.3,0.6-0.6
		v-2.2c0-0.2-0.1-0.4-0.3-0.5l0,0l-11.8-6.8h-0.6L223.3,34l0,0c-0.2,0.1-0.3,0.3-0.3,0.5v2.2c0,0.3,0.3,0.6,0.6,0.6L225.3,37.3z
		 M245.2,33.9h-19.5l9.7-5.5L245.2,33.9z M245.8,48.6l0.7,2.2h-22.1l0.7-2.2H245.8z M242.2,47.4V37.3h2.2v10.1H242.2z M238.8,47.4
		V37.3h2.2v10.1H238.8z M233.2,47.4V37.3h4.5v10.1H233.2z M229.8,47.4V37.3h2.2v10.1H229.8z M226.4,47.4V37.3h2.2v10.1H226.4z
		 M224.1,36.1V35h22.6v1.2H224.1z"/>
</g>
</svg>
