<?xml version="1.0" encoding="utf-8"?>
<!-- Generator: Adobe Illustrator 18.1.0, SVG Export Plug-In . SVG Version: 6.00 Build 0)  -->
<svg version="1.1" id="Capa_1" xmlns="http://www.w3.org/2000/svg" xmlns:xlink="http://www.w3.org/1999/xlink" x="0px" y="0px"
	 viewBox="0 0 100 100" enable-background="new 0 0 100 100" xml:space="preserve">
<radialGradient id="SVGID_1_" cx="50.2326" cy="41.0028" r="71.8008" gradientTransform="matrix(1 0 0 -0.7057 0 83.4956)" gradientUnits="userSpaceOnUse">
	<stop  offset="0" style="stop-color:#B0B0B0"/>
	<stop  offset="0.1701" style="stop-color:#BBBBBB;stop-opacity:0.7812"/>
	<stop  offset="0.4736" style="stop-color:#DADADA;stop-opacity:0.3907"/>
	<stop  offset="0.7772" style="stop-color:#FFFFFF;stop-opacity:0"/>
</radialGradient>
<rect x="3.4" y="54.3" opacity="0.5" fill="url(#SVGID_1_)" width="93.3" height="41.2"/>
<g>
	<rect x="18.3" y="39.7" fill="#FFFFFF" width="16.1" height="37.3"/>
	<rect x="45.8" y="19.9" fill="#FFFFFF" width="34.7" height="56.2"/>
	<path fill="#494B55" d="M79.8,17.8H46.5c-1.9,0-3.4,1.4-3.4,3.3v52.7c0,1.9,1.5,3.4,3.4,3.4h33.3c1.9,0,3.6-1.5,3.6-3.4V21.1
		C83.3,19.2,81.6,17.8,79.8,17.8z M63.4,20.4c0.3,0,0.6,0.3,0.6,0.6c0,0.3-0.3,0.6-0.6,0.6s-0.6-0.3-0.6-0.6
		C62.7,20.7,63,20.4,63.4,20.4z M63.4,75.7c-1,0-1.7-0.8-1.7-1.7c0-1,0.8-1.7,1.7-1.7s1.7,0.8,1.7,1.7
		C65.1,74.9,64.4,75.7,63.4,75.7z M80.6,70.7H45.8V24.3h34.9L80.6,70.7L80.6,70.7z"/>
	<path fill="#494B55" d="M32.5,38.5H19.9c-1.6,0-3.2,1.5-3.2,3.1V75c0,1.6,1.6,2.9,3.2,2.9h12.6c1.6,0,3.3-1.3,3.3-2.9V41.6
		C35.8,40,34.1,38.5,32.5,38.5z M26.2,39.7c0.3,0,0.5,0.2,0.5,0.5s-0.2,0.5-0.5,0.5s-0.5-0.2-0.5-0.5S26,39.7,26.2,39.7z M25.5,41.7
		h2.7c0.2,0,0.4,0.2,0.4,0.4s-0.2,0.4-0.4,0.4h-2.7c-0.2,0-0.4-0.2-0.4-0.4S25.2,41.7,25.5,41.7z M23.8,41.7c0.2,0,0.4,0.2,0.4,0.4
		s-0.2,0.4-0.4,0.4s-0.4-0.2-0.4-0.4S23.5,41.7,23.8,41.7z M26.2,76.7c-0.8,0-1.4-0.6-1.4-1.4s0.6-1.4,1.4-1.4s1.4,0.6,1.4,1.4
		S27,76.7,26.2,76.7z M34.3,72.6H18.2V43.9h16.1C34.3,43.9,34.3,72.6,34.3,72.6z"/>
	<rect x="29.7" y="43.9" fill="#FFFFFF" width="16.1" height="37.3"/>
	<path fill="#787C8C" d="M44,42.7H31.4c-1.6,0-3.2,1.5-3.2,3.1v33.4c0,1.6,1.6,2.9,3.2,2.9H44c1.6,0,3.3-1.3,3.3-2.9V45.8
		C47.3,44.2,45.6,42.7,44,42.7z M37.7,43.9c0.3,0,0.5,0.2,0.5,0.5s-0.2,0.5-0.5,0.5s-0.5-0.2-0.5-0.5C37.2,44.2,37.5,43.9,37.7,43.9
		z M37,45.9h2.7c0.2,0,0.4,0.2,0.4,0.4s-0.2,0.4-0.4,0.4H37c-0.2,0-0.4-0.2-0.4-0.4C36.6,46.1,36.7,45.9,37,45.9z M35.3,45.9
		c0.2,0,0.4,0.2,0.4,0.4s-0.2,0.4-0.4,0.4s-0.4-0.2-0.4-0.4C34.8,46.1,35,45.9,35.3,45.9z M37.7,81c-0.8,0-1.4-0.6-1.4-1.4
		s0.6-1.4,1.4-1.4s1.4,0.6,1.4,1.4C39.2,80.3,38.5,81,37.7,81z M45.8,76.8H29.7V48.1h16.1L45.8,76.8L45.8,76.8z"/>
</g>
</svg>
