<?xml version="1.0" encoding="utf-8"?>
<!-- Generator: Adobe Illustrator 21.1.0, SVG Export Plug-In . SVG Version: 6.00 Build 0)  -->
<svg version="1.1" id="Layer_1" xmlns="http://www.w3.org/2000/svg" xmlns:xlink="http://www.w3.org/1999/xlink" x="0px" y="0px"
	 viewBox="0 0 197.5 197.5" style="enable-background:new 0 0 197.5 197.5;" xml:space="preserve">
<style type="text/css">
	.st0{fill:#EB0028;}
	.st1{fill:#FFFFFF;}
</style>
<polygon class="st0" points="197.5,197.5 197.5,0 0,0 44,197.5 "/>
<g>
	<g>
		<path class="st1" d="M118,69.8c-14.1,0-25.7,11.5-25.7,25.7c0,6.4,2.8,12,5.5,17.5c2.2,4.3,4.2,8.4,4.2,11.7
			c0,3.4,2.8,6.2,6.2,6.2h19.5c3.4,0,6.2-2.8,6.2-6.2c0-3.5,2.1-7.6,4.2-11.9c2.7-5.4,5.5-11,5.5-17.3
			C143.7,81.3,132.2,69.8,118,69.8z M118,106.3c-2.1,0-3.8,1.7-3.8,3.8v13.3h-4.7c-0.4-4.6-2.7-9.3-4.9-13.8
			c-2.3-4.7-4.8-9.6-4.8-14.1c0-10,8.1-18.2,18.2-18.2c10,0,18.2,8.1,18.2,18.2c0,4.5-2.3,9.1-4.7,13.9c-2.3,4.5-4.6,9.2-5,14h-4.7
			v-13.3C121.8,108,120.1,106.3,118,106.3z"/>
		<path class="st1" d="M126.6,100.2c0-2.1-1.7-3.8-3.8-3.8h-9.7c-2.1,0-3.8,1.7-3.8,3.8c0,2.1,1.7,3.8,3.8,3.8h9.7
			C125,103.9,126.6,102.2,126.6,100.2z"/>
		<path class="st1" d="M113.2,94h9.7c2.1,0,3.8-1.7,3.8-3.8c0-2.1-1.7-3.8-3.8-3.8h-9.7c-2.1,0-3.8,1.7-3.8,3.8
			C109.4,92.3,111.1,94,113.2,94z"/>
		<path class="st1" d="M107.8,140.7h20.5c1.9,0,3.4-1.5,3.4-3.4s-1.5-3.4-3.4-3.4h-20.5c-1.9,0-3.4,1.5-3.4,3.4
			S105.9,140.7,107.8,140.7z"/>
		<path class="st1" d="M107.8,150.3h20.5c1.9,0,3.4-1.5,3.4-3.4s-1.5-3.4-3.4-3.4h-20.5c-1.9,0-3.4,1.5-3.4,3.4
			S105.9,150.3,107.8,150.3z"/>
		<path class="st1" d="M71.5,99.1h9.7c2.1,0,3.8-1.7,3.8-3.8c0-2.1-1.7-3.8-3.8-3.8h-9.7c-2.1,0-3.8,1.7-3.8,3.8
			C67.8,97.4,69.4,99.1,71.5,99.1z"/>
		<path class="st1" d="M154.3,99.1h9.7c2.1,0,3.8-1.7,3.8-3.8c0-2.1-1.7-3.8-3.8-3.8h-9.7c-2.1,0-3.8,1.7-3.8,3.8
			S152.2,99.1,154.3,99.1z"/>
		<path class="st1" d="M146.4,70.7l6.9-6.9c1.5-1.5,1.5-3.8,0-5.3s-3.8-1.5-5.3,0l-6.9,6.9c-1.5,1.5-1.5,3.8,0,5.3
			C142.5,72.2,144.9,72.2,146.4,70.7z"/>
		<path class="st1" d="M121.8,58.2v-9.7c0-2.1-1.7-3.8-3.8-3.8c-2.1,0-3.8,1.7-3.8,3.8v9.7c0,2.1,1.7,3.8,3.8,3.8
			C120.1,62,121.8,60.3,121.8,58.2z"/>
		<path class="st1" d="M95.1,65.4l-6.9-6.9c-1.5-1.5-3.8-1.5-5.3,0s-1.5,3.8,0,5.3l6.9,6.9c1.5,1.5,3.8,1.5,5.3,0
			C96.5,69.2,96.5,66.9,95.1,65.4z"/>
	</g>
</g>
</svg>
